<svg width="60" height="60" viewBox="0 0 60 60" fill="none" xmlns="http://www.w3.org/2000/svg">
<path opacity="0.4" d="M26.2156 5.56953L13.7406 10.2446C10.8656 11.3196 8.51562 14.7195 8.51562 17.7945V36.3695C8.51562 39.3195 10.4657 43.1946 12.8407 44.9696L23.5906 52.9945C27.1156 55.6445 32.9156 55.6445 36.4406 52.9945L47.1906 44.9696C49.5656 43.1946 51.5156 39.3195 51.5156 36.3695V17.7945C51.5156 14.7195 49.1656 11.3196 46.2906 10.2446L33.8156 5.56953C31.6906 4.79453 28.2906 4.79453 26.2156 5.56953Z" fill="#006FFF"/>
<path d="M29.7336 28.2531C29.7836 28.2531 29.8336 28.2531 29.8836 28.2531H29.9336H29.9836C32.8586 28.1531 35.1086 25.8281 35.1336 22.9281C35.1336 19.9781 32.7336 17.5781 29.7836 17.5781C26.8336 17.5781 24.4336 19.9781 24.4336 22.9281C24.4836 25.8031 26.7336 28.1531 29.7336 28.2531Z" fill="#006FFF"/>
<path d="M35.4656 33.5312C32.4406 31.5313 27.5406 31.5313 24.4906 33.5312C23.0906 34.4813 22.2656 35.8312 22.2656 37.2312C22.2656 38.6562 23.0656 39.9562 24.4906 40.9062C26.0156 41.9062 27.9906 42.4312 29.9656 42.4312C31.9406 42.4312 33.9406 41.9312 35.4406 40.9062C36.8406 39.9562 37.6656 38.6063 37.6656 37.2063C37.6906 35.7813 36.8906 34.4813 35.4656 33.5312Z" fill="#006FFF"/>
</svg>
