<svg width="18" height="16" viewBox="0 0 18 16" fill="none" xmlns="http://www.w3.org/2000/svg">
<path d="M12.1385 7.9013C12.1385 9.5513 10.8052 10.8846 9.15521 10.8846C7.50521 10.8846 6.17188 9.5513 6.17188 7.9013C6.17188 6.2513 7.50521 4.91797 9.15521 4.91797C10.8052 4.91797 12.1385 6.2513 12.1385 7.9013Z" stroke="white" stroke-linecap="round" stroke-linejoin="round"/>
<path d="M9.15417 14.7917C12.0958 14.7917 14.8375 13.0583 16.7458 10.0583C17.4958 8.88333 17.4958 6.90833 16.7458 5.73333C14.8375 2.73333 12.0958 1 9.15417 1C6.2125 1 3.47083 2.73333 1.5625 5.73333C0.8125 6.90833 0.8125 8.88333 1.5625 10.0583C3.47083 13.0583 6.2125 14.7917 9.15417 14.7917Z" stroke="white" stroke-linecap="round" stroke-linejoin="round"/>
</svg>
