<svg width="51" height="51" viewBox="0 0 51 51" fill="none" xmlns="http://www.w3.org/2000/svg">
<path opacity="0.4" d="M44.8162 45.6875C44.8162 46.2825 44.3487 46.75 43.7537 46.75H7.24622C6.65122 46.75 6.18372 46.2825 6.18372 45.6875C6.18372 36.89 14.8537 29.75 25.5 29.75C27.6887 29.75 29.8137 30.0474 31.7687 30.6212C30.515 32.1087 29.75 34.0425 29.75 36.125C29.75 37.7188 30.1962 39.2275 30.9824 40.5025C31.4074 41.225 31.9599 41.8837 32.5975 42.4362C34.0849 43.7962 36.0612 44.625 38.25 44.625C40.63 44.625 42.7762 43.6475 44.3062 42.075C44.6462 43.2225 44.8162 44.4338 44.8162 45.6875Z" fill="#006FFF"/>
<path d="M44.5613 30.4513C43.0313 28.7088 40.7575 27.625 38.25 27.625C35.87 27.625 33.7025 28.6025 32.1513 30.1963C30.6638 31.7263 29.75 33.83 29.75 36.125C29.75 37.7188 30.1962 39.2275 30.9825 40.5025C31.4075 41.225 31.96 41.8837 32.5975 42.4362C34.085 43.7962 36.0613 44.625 38.25 44.625C41.3525 44.625 44.0513 42.9675 45.5175 40.5025C45.9638 39.78 46.3038 38.9512 46.495 38.1012C46.665 37.4637 46.75 36.805 46.75 36.125C46.75 33.9575 45.9213 31.96 44.5613 30.4513ZM41.4375 37.6762H39.8438V39.3338C39.8438 40.205 39.1213 40.9275 38.25 40.9275C37.3787 40.9275 36.6562 40.205 36.6562 39.3338V37.6762H35.0625C34.1912 37.6762 33.4688 36.9537 33.4688 36.0825C33.4688 35.2112 34.1912 34.4887 35.0625 34.4887H36.6562V32.98C36.6562 32.1088 37.3787 31.3863 38.25 31.3863C39.1213 31.3863 39.8438 32.1088 39.8438 32.98V34.4887H41.4375C42.3088 34.4887 43.0312 35.2112 43.0312 36.0825C43.0312 36.9537 42.3088 37.6762 41.4375 37.6762Z" fill="#006FFF"/>
<path d="M25.5 25.5C31.368 25.5 36.125 20.743 36.125 14.875C36.125 9.00697 31.368 4.25 25.5 4.25C19.632 4.25 14.875 9.00697 14.875 14.875C14.875 20.743 19.632 25.5 25.5 25.5Z" fill="#006FFF"/>
</svg>
