<svg width="10" height="10" viewBox="0 0 10 10" fill="none" xmlns="http://www.w3.org/2000/svg">
<path d="M5 0C2.245 0 0 2.245 0 5C0 7.755 2.245 10 5 10C7.755 10 10 7.755 10 5C10 2.245 7.755 0 5 0ZM4.625 3C4.625 2.795 4.795 2.625 5 2.625C5.205 2.625 5.375 2.795 5.375 3V5.5C5.375 5.705 5.205 5.875 5 5.875C4.795 5.875 4.625 5.705 4.625 5.5V3ZM5.46 7.19C5.435 7.255 5.4 7.305 5.355 7.355C5.305 7.4 5.25 7.435 5.19 7.46C5.13 7.485 5.065 7.5 5 7.5C4.935 7.5 4.87 7.485 4.81 7.46C4.75 7.435 4.695 7.4 4.645 7.355C4.6 7.305 4.565 7.255 4.54 7.19C4.515 7.13 4.5 7.065 4.5 7C4.5 6.935 4.515 6.87 4.54 6.81C4.565 6.75 4.6 6.695 4.645 6.645C4.695 6.6 4.75 6.565 4.81 6.54C4.93 6.49 5.07 6.49 5.19 6.54C5.25 6.565 5.305 6.6 5.355 6.645C5.4 6.695 5.435 6.75 5.46 6.81C5.485 6.87 5.5 6.935 5.5 7C5.5 7.065 5.485 7.13 5.46 7.19Z" fill="#2F3056"/>
</svg>
