<svg width="11" height="11" viewBox="0 0 11 11" fill="none" xmlns="http://www.w3.org/2000/svg">
<path d="M5.49977 10.4271C5.38977 10.4271 5.27977 10.4134 5.17435 10.3813C2.7956 9.72587 1.07227 7.50294 1.07227 5.09211V3.08002C1.07227 2.56668 1.44352 2.01212 1.92019 1.81504L4.47311 0.770027C5.13769 0.499611 5.86643 0.499611 6.52643 0.770027L9.07935 1.81504C9.55602 2.01212 9.92727 2.56668 9.92727 3.08002V5.09211C9.92727 7.49836 8.19935 9.72129 5.82518 10.3813C5.71976 10.4134 5.60977 10.4271 5.49977 10.4271ZM5.49977 1.26045C5.23852 1.26045 4.98184 1.31087 4.73434 1.41171L2.18144 2.45669C1.96144 2.54836 1.75977 2.84627 1.75977 3.08461V5.09669C1.75977 7.20045 3.27227 9.14379 5.35769 9.72129C5.44935 9.74879 5.55018 9.74879 5.64185 9.72129C7.72727 9.14379 9.23977 7.20045 9.23977 5.09669V3.08461C9.23977 2.84627 9.0381 2.54836 8.8181 2.45669L6.26519 1.41171C6.01769 1.31087 5.76102 1.26045 5.49977 1.26045Z" fill="white"/>
</svg>
