<svg width="47" height="29" viewBox="0 0 47 29" fill="none" xmlns="http://www.w3.org/2000/svg">
<path d="M6.10686 0.00195532L47 0L46.999 0.000977545L40.8815 28.9932H3.46621C3.46621 28.9932 39.2284 15.0758 39.7018 14.7239C39.7018 14.7239 43.0099 9.67547 40.9746 7.96268C40.2975 7.39371 39.8221 7.23631 35.9514 7.25587C35.9514 7.25587 36.1231 6.18147 30.5993 5.19896C30.123 5.11489 6.0826 0.138821 6.0826 0.138821L6.10686 0.00195532Z" fill="#006FFF"/>
<path d="M23.8153 6.70449C23.9026 6.71036 24.6661 6.69471 25.7497 6.70253L25.7487 6.70449C29.0015 6.72991 35.1394 6.97236 34.5476 8.64017H17.0012L19.7476 17.2178C22.1806 15.9244 30.6313 12.533 35.0424 12.3238C36.4879 12.2525 37.3416 12.2828 37.3745 12.7403C37.3852 12.8996 37.0243 13.0453 36.1755 13.1978C33.985 13.5918 30.2238 14.76 29.3459 15.0592C24.7388 16.641 19.7534 19.1065 16.1475 20.9738C14.3877 21.8849 0 29 0 29L4.69728 6.70449H23.8153Z" fill="#006FFF"/>
<path d="M34.6689 9.05761C34.8164 8.85525 34.926 8.76922 35.0531 8.76922V8.76824H37.4977C39.0344 8.76824 40.1481 8.96474 39.9968 10.2738C39.89 11.1947 38.9093 13.0042 38.691 13.2467C38.4737 13.4872 38.0982 13.5253 38.2894 12.9779C38.7831 11.5574 39.2663 10.4771 38.6648 10.2835C37.5249 9.91791 33.7424 10.7166 31.6412 10.7166C30.7273 10.7166 30.6264 10.5905 30.6332 10.3686C30.6439 10.1213 30.8166 10.0558 31.453 10.002C32.1165 9.94626 33.5339 9.79571 34.0752 9.52687C34.4244 9.34992 34.5341 9.23163 34.6689 9.05761Z" fill="#006FFF"/>
</svg>
