<?xml version="1.0" encoding="UTF-8" standalone="no"?>
<!-- Created with Inkscape (http://www.inkscape.org/) -->

<svg
   width="149.75443mm"
   height="84.225433mm"
   viewBox="0 0 149.75443 84.225433"
   version="1.1"
   id="svg5"
   xml:space="preserve"
   inkscape:export-filename="BGInfo.svg"
   inkscape:export-xdpi="96"
   inkscape:export-ydpi="96"
   xmlns:inkscape="http://www.inkscape.org/namespaces/inkscape"
   xmlns:sodipodi="http://sodipodi.sourceforge.net/DTD/sodipodi-0.dtd"
   xmlns="http://www.w3.org/2000/svg"
   xmlns:svg="http://www.w3.org/2000/svg"><sodipodi:namedview
     id="namedview7"
     pagecolor="#ffffff"
     bordercolor="#000000"
     borderopacity="0.25"
     inkscape:showpageshadow="2"
     inkscape:pageopacity="0.0"
     inkscape:pagecheckerboard="0"
     inkscape:deskcolor="#d1d1d1"
     inkscape:document-units="mm"
     showgrid="false" /><defs
     id="defs2" /><g
     inkscape:label="Layer 1"
     inkscape:groupmode="layer"
     id="layer1"
     transform="translate(-41.449056,-84.363981)"><g
       style="mix-blend-mode:normal;fill:none"
       id="g174"
       transform="matrix(0.26458333,0,0,0.26458333,44.359473,92.921633)"><g
         style="opacity:0.35;mix-blend-mode:normal;fill:#0b8eff;fill-opacity:1"
         opacity="0.35"
         id="g154"><path
           d="m 165.454,155.993 c -2.082,-0.069 -4.119,-0.633 -6.005,-1.645 -5.959,-3.808 -8.363,-10.722 -12.16,-16.658 l -5.82,1.841 -9.974,-11.055 -11.365,0.621 -7.213,-4.302 -4.981,2.416 -3.325,4.601 -4.9924,-3.681 -4.4404,1.84 -3.0599,-3.681 1.3919,-9.479 -9.41,-2.415 -0.2876,-5.522 2.1742,-0.874 0.8743,-0.369 0.3451,-2.507 0.7593,-5.476 -7.7649,0.621 -1.392,8.294 -4.9811,1.208 -4.9925,-5.222 0.8282,-11.3545 8.5932,-9.8356 12.746,-1.2079 5.2342,0.2991 1.1043,4.6014 -0.2876,5.2227 c 0,0 2.2202,1.852 3.0597,1.5299 0.84,-0.3106 1.381,-2.1396 1.381,-2.1396 l -1.082,-12.3089 2.485,-3.6236 c 2.542,-3.7502 6.914,-3.0485 10.043,-5.5102 3.968,-3.106 3.819,-6.2925 4.371,-11.3886 0,0 2.22,-3.3706 4.441,-3.9917 6.706,-1.8636 13.229,-5.3147 19.935,-7.4544 1.381,-0.253 2.658,-1.0468 3.612,-2.2317 2.094,-3.3475 -5.613,-8.2365 -7.465,-9.9736 0,0 3.876,-2.4158 6.649,-1.8406 2.772,0.5752 8.029,0.6212 8.869,0.9203 2.876,1.0353 6.051,-5.7863 6.166,-7.6729 C 159.989,18.8582 149.395,9.45975 143.102,8.45894 131.817,6.67588 130.322,10.0005 128.458,21.6651 l -4.521,6.396 c -0.333,0.5407 -0.771,0.9778 -1.265,1.3114 -0.495,0.3221 -1.059,0.5177 -1.622,0.5637 -0.575,0.046 -1.139,-0.046 -1.68,-0.2876 -0.529,-0.2416 -1.012,-0.6097 -1.415,-1.0813 -4.762,-6.0049 -14.115,-14.8512 -13.896,-15.2423 0.552,-1.2079 8.029,-7.07473 8.029,-7.07473 0,0 9.146,-2.1512 10.25,-2.76089 1.105,-0.60969 6.385,-3.082956 6.385,-3.082956 l -1.392,-7.373774 -3.877,-4.90055 -0.552,-3.6236 -4.705,1.5299 -2.496,4.60148 -0.276,4.92354 -6.937,-0.62117 -0.828,-4.60144 c 0,0 2.22,-3.38211 2.22,-4.30241 0,-0.9202 -4.188,-2.7723 -4.188,-2.7723 l -8.8688,2.1512 c 0,0 -1.3919,-0.9203 -2.4963,-1.8406 -1.6105,-1.0583 -3.2785,-1.9786 -4.9925,-2.7724 l -4.1873,3.9918 c 0,0 -0.5522,3.382 1.1043,3.6236 1.806,0.1035 3.6007,-0.3106 5.2342,-1.2079 1.1043,-0.6212 2.7723,-1.5415 3.0599,-0.6212 0.2876,0.9318 -1.1044,5.52174 -1.1044,5.52174 l 0.5523,4.92354 -5.8209,1.84062 C 86.1019,-1.91725 84.0772,-2.83758 82.1101,-3.89591 79.2917,-5.771 76.2893,-10.499 72.9072,-11.6608 67.9377,-13.3864 66.0396,-9.18755 61.5992,-8.19824 60.2073,-7.89915 37.2001,-8.81945 37.2001,-8.81945 L 24.4541,-7.89914 19.22,-3.5968 5.9103,2.23553 6.46245,6.81394 0.0894852,10.4376 0.91771,14.4293 3.97771,18.1105 1.2053,20.8828 -10.7239,22.0907 -11,27.4169 9.78701,22.5279 13.1116,15.7867 c 0.8857,-1.829 14.3794,-3.2439 16.4156,-3.405 8.156,-0.6787 8.2596,2.6918 11.3195,12.8495 1.438,4.8315 -3.6697,8.3977 2.1972,15.4149 -8.0871,9.3524 -15.6909,21.6152 -6.9251,33.832 0,0 4.4403,6.1544 4.7164,7.0862 1.5875,5.6828 -0.9548,7.9375 2.7724,13.2062 -5.6252,2.1281 0.7362,6.9135 3.6006,7.9605 0.8397,0.311 3.8768,-1.53 3.8768,-1.53 l -3.3246,-5.8209 -1.668,-9.8356 6.6491,13.5168 v 7.9717 l 14.7131,10.963 7.4888,-0.299 4.1873,2.416 5.8208,1.53 2.4963,7.374 5.2341,4.003 4.4404,3.992 3.6117,-2.773 3.049,2.151 -0.276,5.833 -5.821,6.752 -0.8283,11.055 c 0,0 -3.06,3.072 -2.7724,3.992 0.2876,0.92 1e-4,5.211 0.2762,6.143 1.7485,5.89 2.3697,12.907 7.9375,15.898 2.37,1.277 5.015,2.025 7.121,3.785 1.898,1.564 2.703,4.624 4.44,6.039 1.173,0.943 3.67,0.932 4.521,1.921 0.334,0.518 0.472,1.151 0.403,1.783 0,7.155 -2.094,18.659 0,25.561 0.954,3.302 -1.047,9.663 -0.518,13.574 0.771,6.281 6.741,18.889 5.234,24.814 -2.243,8.731 6.58,15.345 12.551,19.521 2.093,1.484 9.571,5.476 10.284,0.518 0.402,-2.726 -4.349,-6.212 -5.925,-7.753 l -4.981,-4.901 c 2.209,-0.92 4.705,-1.208 4.981,-2.151 0.276,-0.943 0,-7.075 0,-7.075 l -3.6,0.61 2.772,-10.135 4.44,-6.131 c 1.45,-0.506 2.934,-0.921 4.429,-1.208 1.404,0 5.442,-6.96 5.844,-8.352 0.552,-1.852 -1.357,-2.818 -0.978,-4.636 1.197,-5.659 9.272,-12.654 9.272,-18.026 v -4.578 c 0,-1.841 11.113,-8.087 12.493,-10.273 2.853,-4.544 5.602,-13.816 7.224,-19.061 2.278,-7.328 0.691,-17.578 -5.326,-22.271 -2.231,-1.68 -7.109,-1.254 -11.549,-1.657 z"
           fill="#0b37d6"
           id="path132"
           style="fill:#0b8eff;fill-opacity:1" /><path
           d="m 134.281,-2.66538 c 0,0 4.705,-4.30236 5.533,-4.90055 0.828,-0.60969 2.773,0.29911 2.773,0.29911 l 4.44,3.99171 c 0,0 -1.668,3.681169 -2.485,3.681169 -1.668,-0.080525 -3.336,-0.287554 -4.992,-0.609654 -0.391,-0.080526 -0.806,3e-6 -1.151,0.2185715 -0.356,0.2185675 -0.632,0.5751735 -0.793,1.0008035 l 0.552,2.41573 c 0,0 5.544,0.60968 7.489,0.92027 1.541,0.42564 2.967,1.25394 4.187,2.4158 l 2.772,-1.20786 c 0,0 0.288,-2.76088 -0.276,-3.68117 -0.552,-0.931788 2.773,0 2.773,0 l 5.234,-1.529994 0.552,-2.760896 -6.373,-1.20782 c 0,0 0,-4.92358 -1.392,-5.53327 -1.219,-0.72472 -2.347,-1.64497 -3.325,-2.76087 l -8.317,0.6212 -3.048,-3.382 -7.477,1.2078 0.552,4.91208 0.552,2.77237 -1.944,3.62363 4.164,-0.48313 z"
           fill="#0b37d6"
           id="path134"
           style="fill:#0b8eff;fill-opacity:1" /><path
           d="m 220.531,-11.9481 c 0.518,-1.4379 3.371,-8.0525 3.371,-8.9038 0,-0.8512 3.635,-1.4379 4.923,-2.0016 1.3,-0.5636 -1.288,-4.0262 -1.288,-4.0262 l -5.959,-1.2079 -4.418,-4.2563 c -7.442,0.2761 -14.897,-0.1841 -22.305,0.6902 -2.013,0.23 -4.13,0.2416 -5.614,1.4609 -0.575,0.4717 -1.771,3.8767 -2.404,3.8767 -6.753,0 -12.24,-0.8627 -16.324,5.7518 0,0 -5.234,0.5637 -6.223,0.5637 -0.989,0 -0.265,3.1635 -0.265,3.1635 l 4.924,0.8628 h 8.812 l -1.806,2.2662 c 0,0 -1.047,3.73864 -1.3,5.17659 -0.253,1.43795 5.234,1.43795 5.234,1.43795 l -4.97,5.47569 c -2.093,2.300716 -1.3,3.43963 -0.518,4.01481 1.565,1.20788 0.771,5.93582 1.22,7.64986 0.978,3.6811 3.336,4.3369 6.522,4.0033 4.567,-0.4947 4.982,-2.968 6.373,-7.41984 0.863,-2.77237 3.141,-5.24569 3.774,-7.96054 0.264,-1.15036 10.364,-0.27608 11.4,-0.56367 1.035,-0.28759 12.7,-4.31381 13.482,-4.02622 0.782,0.28759 2.841,-4.57843 3.37,-6.01643 z"
           fill="#0b37d6"
           id="path136"
           style="fill:#0b8eff;fill-opacity:1" /><path
           d="m 497.929,71.5114 1.047,-15.7139 c 0.046,-0.8742 -0.161,-1.7485 -0.587,-2.4618 -0.437,-0.7247 -1.058,-1.2539 -1.783,-1.5069 -1.507,-0.5637 -3.198,-1.3459 -3.669,-2.1167 -0.886,-1.4839 -0.886,-5.4527 -1.335,-6.9367 -0.448,-1.4839 -2.68,-6.4304 -4.014,-5.9358 -0.392,0.0805 -0.783,0.0345 -1.151,-0.1035 0.633,2.6458 1.047,5.2801 0.127,7.9144 -0.587,1.553 -1.024,3.175 -1.312,4.8316 -0.115,0.5291 -0.115,1.0813 0,1.6219 l 0.518,2.5539 3.371,13.2176 c 0.195,0.7707 0.172,1.599 -0.069,2.3467 -0.242,0.7592 -0.679,1.4034 -1.254,1.8521 l -4.636,3.7386 c -0.403,0.3106 -0.737,0.7248 -0.99,1.1965 -0.253,0.4831 -0.402,1.0123 -0.448,1.5644 -0.046,0.5522 0,1.1159 0.172,1.645 0.161,0.5292 0.426,1.0009 0.76,1.4035 l 1.495,1.7715 c 0.667,0.7708 1.565,1.2079 2.508,1.2194 0.943,0.0115 1.852,-0.3911 2.542,-1.1388 l 7.673,-8.4552 c 0.61,-0.6557 0.978,-1.553 1.035,-2.5078 z"
           fill="#0b37d6"
           id="path138"
           style="fill:#0b8eff;fill-opacity:1" /><path
           d="m 466.582,178.112 c 6.718,-0.322 13.033,1.726 19.441,3.75 0.426,0.138 0.874,0.104 1.277,-0.103 0.402,-0.207 0.725,-0.576 0.92,-1.024 l 0.552,-1.346 c 0.115,-0.299 0.173,-0.621 0.161,-0.943 0,-0.322 -0.092,-0.645 -0.23,-0.921 -0.138,-0.287 -0.333,-0.529 -0.563,-0.701 -0.23,-0.184 -0.507,-0.288 -0.783,-0.334 l -3.382,-0.575 c 0,0 -6.695,-2.968 -8.029,-3.957 -1.335,-0.978 -12.965,0 -12.965,0 0,0 -13.39,-7.432 -14.287,-8.916 -0.898,-1.484 -0.886,-5.936 -0.886,-5.936 0,0 0.449,-7.914 -0.449,-9.398 -0.897,-1.484 -6.695,-6.442 -6.695,-6.442 v -11.273 c 0.012,-0.403 0.138,-0.783 0.357,-1.105 0.218,-0.322 0.506,-0.541 0.84,-0.656 0.333,-0.115 0.69,-0.103 1.012,0.035 0.334,0.138 0.61,0.38 0.805,0.713 l 2.738,4.556 c 0.184,0.299 0.414,0.54 0.69,0.736 0.265,0.195 0.564,0.322 0.875,0.368 0.31,0.057 0.632,0.046 0.931,-0.046 0.299,-0.092 0.599,-0.242 0.852,-0.46 l 2.093,-1.772 1.657,-3.347 c 0.31,-0.633 0.471,-1.358 0.448,-2.082 -0.011,-0.725 -0.195,-1.438 -0.54,-2.06 l -2.911,-5.372 c 0,0 -2.151,-5.694 -2.231,-5.936 -1.289,-3.416 18.831,-8.65 21.431,-9.893 0,0 4.015,-5.4525 4.015,-6.9364 -0.173,-1.8406 -0.472,-3.6582 -0.886,-5.4412 -1.887,-8.3401 -8.179,-13.6663 -9.836,-22.7656 -0.437,-2.4158 3.141,-5.4528 4.464,-5.9474 1.323,-0.4947 5.372,7.926 5.809,9.41 0.437,1.4839 4.026,1.4724 4.026,1.4724 0.253,-1.9671 0.403,-3.9457 0.449,-5.9358 0,-2.4158 -3.578,-6.9252 -4.475,-8.4552 -2.404,-4.0493 8.685,-12.6539 8.467,-17.7155 -0.127,-3.1865 -1.634,-5.7403 -3.244,-8.2251 l -12.367,-3.7502 -1.334,-7.4198 c 0,0 7.592,-2.4732 8.938,-2.4732 1.829,0.276 3.647,0.6786 5.43,1.2078 0.563,0.1726 1.139,0.1956 1.714,0.069 0.564,-0.1265 1.104,-0.4026 1.564,-0.7937 0.46,-0.3911 0.84,-0.9088 1.116,-1.4955 0.276,-0.5867 0.426,-1.2424 0.449,-1.9096 v -0.0345 c 0,-2.4157 2.68,-1.4725 2.68,-1.4725 0,0 2.243,3.4512 2.243,5.4413 0,1.9901 2.232,8.4551 2.232,8.4551 l 5.361,1.9786 5.533,3.221 c 0.633,0.3797 1.38,0.4602 2.059,0.2186 0.679,-0.2416 1.266,-0.7937 1.599,-1.5185 0.334,-0.7592 0.702,-1.4954 1.104,-2.2086 0.15,-0.2876 0.242,-0.6097 0.277,-0.9433 0.034,-0.3337 0,-0.6672 -0.081,-0.9893 -0.08,-0.3221 -0.23,-0.6212 -0.414,-0.8743 -0.196,-0.2531 -0.426,-0.4602 -0.69,-0.6097 -1.645,-0.8858 -3.716,-1.9672 -4.487,-2.2433 -1.346,-0.4946 -0.437,-6.9366 -0.437,-6.9366 l 2.623,-1.507 6.695,0.5062 5.372,-5.9474 -9.835,-8.90379 -9.824,-6.93664 -15.622,-3.94576 c 0,0 -8.847,2.93342 -10.262,3.45108 -10.606,3.87672 -22.339,-7.66139 -33.061,-5.44119 0,0 -14.287,2.96793 -15.622,2.96793 -0.402,-0.06902 -0.77,-0.28758 -1.047,-0.63269 -2.703,-2.72634 -6.235,-4.10674 -9.812,-3.85374 -4.003,0.4832 -8.03,0.4717 -12.033,-0.0575 -8.731,-1.5645 -16.657,-6.465 -24.295,-11.17 -3.866,-2.4157 -11.953,-7.8109 -16.738,-6.0394 -1.323,0.4947 -1.323,3.9573 -1.323,3.9573 l 5.809,6.442 -1.334,4.4519 c -1.174,0.2646 -2.393,0.2646 -3.566,0 -1.599,-0.5752 -17.244,-1.1274 -12.758,5.46418 -0.909,-1.42648 -1.921,-2.77238 -3.037,-4.00328 -0.989,-0.8282 -3.232,0.8168 -3.232,0.8168 l -1.99,3.31304 4.187,3.85367 0.748,2.76086 -1.737,1.10437 -3.152,-3.89974 c -0.288,-0.3336 -14.644,1.26543 -17.152,1.10437 l -7.202,4.958052 -2.496,0.276078 c 0,0 -2.726,3.33607 -3.485,3.33607 -0.76,0 -5.234,0.54063 -5.959,0.54063 -0.725,0 -2.727,-2.17418 -3.256,-2.95643 -0.517,-0.78224 0.253,-2.47323 0.253,-2.47323 l 8.202,3.0369 c 0.725,-0.98931 1.323,-2.105168 1.749,-3.313046 0.196,-0.621194 0.173,-1.311394 -0.058,-1.921084 -0.23,-0.60969 -0.644,-1.09284 -1.161,-1.36893 -0.748,-0.27609 -4.728,-0.82824 -5.718,-1.38041 -0.989,-0.54067 -3.623,-4.26785 -3.727,-4.4059 -1.047,-1.41497 -16.278,0.71323 -17.405,1.65652 -1.127,0.9433 -7.454,3.03698 -8.455,3.30157 -0.989,0.26458 -3.727,6.34996 -3.98,7.16672 -0.253,0.81675 -1.749,1.65651 -2.98,1.93259 -2.726,1.04683 -5.395,2.32374 -7.96,3.81921 -0.748,0.55217 0.506,2.76082 0.506,3.85372 0.253,1.4379 0.667,2.8184 1.231,4.1298 l 2.243,1.3804 2.991,-3.0369 1.484,0.276 c 4.348,4.2909 7.178,6.9367 11.204,0.1266 -2.76,-1.1159 -2.829,-5.83233 -0.782,-8.15606 2.048,-2.32373 5.234,-2.87589 8.11,-3.30153 -2.554,1.48397 -3.14,5.69428 -1.484,8.32859 1.657,2.6343 4.889,3.6236 7.708,3.0139 -0.598,1.5185 -1.622,2.7609 -2.911,3.5201 -1.288,0.7593 -2.749,1.0009 -4.175,0.6788 0.414,2.4157 1.794,3.9112 0.46,6.0394 -1.116,0.8167 -2.267,1.5529 -3.463,2.2086 l -2.485,-3.1059 -2.231,3.0369 c 0,0 -6.442,-0.8628 -7.213,-1.1043 -0.564,-0.1841 -1.151,-0.2761 -1.749,-0.2761 0,0 0.253,-3.6237 0.253,-4.6935 0,-1.0698 -2.726,0.8283 -3.738,1.1159 -1.001,0.2761 0.506,5.4987 0.506,5.4987 l -1.99,-0.2646 c -0.909,-0.138 -1.852,-0.5752 -2.738,-0.8053 1.219,0.3106 -4.107,5.2917 -6.166,5.1767 -0.23,-0.5407 -0.483,-1.8521 -1.38,-2.1282 -1.484,-0.4716 -2.508,4.3714 -4.694,5.6713 -0.161,0.0805 -0.288,0.2186 -0.391,0.3911 -0.092,0.1726 -0.138,0.3681 -0.138,0.5637 0,0.1956 0.046,0.4026 0.138,0.5637 0.092,0.1725 0.23,0.299 0.391,0.3911 l 1.265,0.6557 c -1.276,1.0008 -2.611,1.9211 -3.98,2.7609 l 2.98,2.1971 2.312,3.037 c 0,0 -1.749,3.037 -2.232,3.8537 -0.494,0.5522 -1.081,0.9778 -1.725,1.2654 -0.645,0.2876 -1.323,0.4141 -2.013,0.3911 -0.99,-0.2761 -2.474,-3.037 -3.233,-3.8537 -0.759,-0.8168 -4.475,0.5407 -4.475,0.5407 0,0 -1.737,6.0393 -2.232,7.7189 -0.494,1.6795 0.748,8.5356 0.748,8.5356 0,0 2.496,0.2761 3.233,-0.2645 0.747,-0.5407 2.979,1.645 3.727,1.921 1.829,0.0691 3.658,-0.023 5.476,-0.276 l 1.691,-3.3016 4.981,-8.5471 0.989,-2.4158 2.393,1.5645 c 0.31,0.2071 0.655,0.3221 1,0.3221 0.357,0 0.702,-0.0805 1.024,-0.2761 0.311,-0.1841 0.587,-0.4717 0.783,-0.8053 0.195,-0.3451 0.31,-0.7362 0.345,-1.1388 0,-1.1044 2.979,-0.2761 2.979,-0.2761 l 2.485,0.5522 3.474,5.5102 h 2.738 l 2.231,2.1972 -0.885,2.1397 c -0.161,0.3911 -0.184,0.8513 -0.069,1.2654 0.126,0.4141 0.379,0.7592 0.713,0.9662 l 0.483,0.3107 1.426,-0.3107 c 0.288,-0.0575 0.541,-0.2415 0.714,-0.506 0.172,-0.2646 0.253,-0.5983 0.218,-0.9319 l -0.368,-3.2095 1.634,1.2999 c 0.241,0.1841 0.517,0.2761 0.805,0.2646 0.288,-0.0115 0.564,-0.1265 0.794,-0.3336 0.092,-0.0805 0.161,-0.1841 0.218,-0.2991 0.058,-0.115 0.081,-0.2531 0.092,-0.3796 0,-0.1381 0,-0.2646 -0.046,-0.3911 -0.034,-0.1266 -0.103,-0.2416 -0.184,-0.3336 l -3.347,-3.9228 c -0.99,0.1381 -1.99,0.1381 -2.98,0 -0.748,-0.276 -1.737,-3.313 -2.979,-4.9695 -0.357,-0.5062 -0.575,-1.1158 -0.621,-1.7715 -0.046,-0.6443 0.08,-1.3 0.368,-1.8636 l 3.232,0.8167 3.98,1.3804 2.75,6.3845 5.959,5.7748 2.093,3.175 c 0.15,0.2186 0.345,0.3911 0.576,0.4832 0.23,0.092 0.471,0.1035 0.701,0.023 0.23,-0.0805 0.437,-0.2186 0.598,-0.4371 0.162,-0.2071 0.254,-0.4717 0.288,-0.7478 l 0.483,-6.6375 c 0,0 8.708,0.5521 9.41,0.5521 0.702,0 3.98,2.7609 3.98,2.7609 -1.046,0.4026 -2.128,0.6787 -3.232,0.8167 -1.553,0.2991 -3.06,0.8513 -4.464,1.6565 -1.046,0.5522 1.047,2.7609 1.047,2.7609 0,0 8.202,0.5522 8.939,0.2761 1.23,-0.2646 2.484,-0.4601 3.738,-0.5521 0,0 1.99,-4.406 1.737,-5.2342 -0.253,-0.8168 2.681,-3.313 2.681,-3.313 l 0.218,0.092 v 9.4904 l -1.334,4.4634 -3.141,7.4199 0.829,1.9901 -2.474,1.5415 c 0,0 -10.894,-2.5653 -11.871,-2.9334 l -6.086,-2.1052 c -0.863,-0.3106 -1.783,-0.2301 -2.6,0.2186 -0.805,0.4486 -1.449,1.2308 -1.771,2.1971 -0.15,0.4602 -0.311,0.9088 -0.506,1.3575 -5.027,-1.2884 -10.158,-2.6574 -15.128,-4.2334 0,0 -2.634,-0.7246 -2.312,-2.1856 0.322,-1.461 0,-7.3278 0,-7.3278 0,0 -2.312,-1.8291 -3.623,-1.8291 -1.312,0 -2.646,0 -3.624,1.461 -0.989,1.4609 -3.635,1.4609 -3.635,1.4609 0,0 -11.251,1.4265 -12.229,1.4265 -1.46,0.2416 -2.887,0.6096 -4.302,1.1043 l -2.634,-2.5653 c 0,0 -2.312,2.1972 -2.646,3.29 -0.794,2.3583 -1.461,4.7855 -1.979,7.2473 0,2.6343 -6.189,6.373 -6.994,9.9966 -0.679,3.014 -1.047,6.327 -3.06,8.4552 -0.782,0.8628 -1.771,1.4724 -2.485,2.4157 -1.587,2.0249 -0.862,7.5469 -0.345,9.8589 0.265,3.405 0.368,6.821 0.322,10.249 0,1.105 -1.645,1.461 -1.322,3.624 0.322,2.163 0.989,2.922 3.968,8.053 2.968,5.119 7.915,9.881 8.593,10.974 0.668,1.093 3.636,2.565 4.613,2.565 0.978,0 9.203,-4.728 10.561,-4.751 15.449,-0.276 22.65,1.208 22.121,20.12 0,0 6.281,11.711 6.615,13.54 0.333,1.829 0.989,5.487 0.655,6.948 -0.322,1.461 -1.99,9.145 -1.99,9.145 0,0 -3.623,3.302 -3.29,5.488 1.197,5.142 2.738,10.157 4.625,15.012 0.989,1.829 4.291,10.606 4.291,10.606 0,0 1.046,7.685 1.322,8.789 0.277,1.104 4.625,6.948 4.625,6.948 0,0 5.614,-3.624 6.603,-3.301 0.989,0.322 7.914,-0.357 7.926,-0.357 1.576,-0.173 5.959,-10.319 7.374,-12.159 1.99,-2.566 11.02,-7.65 11.446,-10.538 0.667,-4.509 -2.657,-18.279 5.936,-18.279 0.989,0 2.968,-15.369 2.968,-15.369 -1.151,-5.337 -5.58,-15.265 -1.496,-19.625 3.509,-3.773 7.696,-6.994 10.963,-11.043 3.267,-4.05 2.14,-7.248 4.406,-11.032 0.656,-1.105 4.291,-5.856 4.291,-5.856 0.011,-1.472 -0.092,-2.945 -0.322,-4.382 -0.334,-1.461 -0.99,-0.737 -1.979,-0.369 -0.989,0.38 -6.281,2.566 -6.281,2.566 l -5.28,0.368 c 0,0 -6.937,-4.026 -7.27,-6.224 -0.334,-2.197 -3.624,-8.052 -3.624,-8.052 l -2.312,-5.487 -5.936,-14.2763 -2.312,-4.3829 2.438,-1.4379 9.192,22.1211 4.912,2.968 2.232,5.936 c 0,0 3.14,4.958 5.809,4.958 l 6.707,-0.495 0.437,-7.419 8.501,-0.99 9.41,-6.936 c -0.644,-3.348 -2.796,-7.3972 -3.06,-10.5377 -0.196,-2.3467 6.327,-5.5101 8.42,-6.2809 1.346,-0.4946 12.953,10.3876 12.953,10.3876 l 4.464,9.399 c 0,0 4.9,16.335 4.9,17.819 0,1.484 3.141,2.956 3.141,2.956 l 9.421,13.367 c 0,0 4.015,0.99 5.361,0.495 1.334,-0.495 0.897,-2.968 0.897,-2.968 l -1.783,-4.452 -3.577,-3.462 c 0,0 0,-8.456 -0.437,-10.388 -0.438,-1.933 0.885,-3.463 0.885,-4.958 0,-1.496 8.041,-7.42 8.478,-8.904 0.438,-1.484 5.81,-2.956 5.81,-2.956 l 8.041,3.451 5.36,9.398 3.578,3.463 1.346,9.893 -0.449,2.968 -2.576,3.416 c -0.254,0.334 -0.438,0.713 -0.564,1.128 -0.115,0.414 -0.161,0.851 -0.138,1.288 0.034,0.437 0.138,0.863 0.31,1.254 0.173,0.391 0.426,0.725 0.714,1.012 l 1.346,1.3 c 4.451,9.26 8.374,18.003 14.287,26.24 l 11.573,9.042 c 1.046,0.793 6.097,-1.496 7.419,-1.634 l 1.484,-0.103 z"
           fill="#0b37d6"
           id="path140"
           style="fill:#0b8eff;fill-opacity:1" /><g
           opacity="0.53"
           id="g144"
           style="fill:#0b8eff;fill-opacity:1"><path
             d="m 241.715,23.0001 c -0.173,0.1496 -0.322,0.3336 -0.437,0.5637 -0.104,0.2186 -0.173,0.4717 -0.184,0.7247 l -0.196,3.8883 0.506,0.2645 c 0.23,0.1266 0.472,0.1956 0.725,0.1956 0.253,0 0.495,-0.069 0.725,-0.1956 2.358,-1.4034 4.739,-2.6342 6.407,-5.2686 0.219,-0.3451 0.311,-0.7823 0.253,-1.2079 -0.092,-0.7477 -0.138,-1.5069 -0.161,-2.2662 0,-1.6565 -2.991,-3.8537 -3.98,-4.4059 -1.035,-0.7132 -2.013,-1.5184 -2.922,-2.4157 -0.196,-0.1956 -0.357,-0.4486 -0.449,-0.7247 l -0.172,-0.5292 c -0.092,-0.2531 -0.219,-0.4831 -0.391,-0.6672 -0.173,-0.184 -0.38,-0.3221 -0.598,-0.4142 -0.231,-0.0805 -0.461,-0.115 -0.702,-0.0805 -0.23,0.0345 -0.46,0.1266 -0.667,0.2646 l -0.15,0.1035 c -0.265,0.1841 -0.472,0.4602 -0.598,0.7823 -0.127,0.3221 -0.161,0.6902 -0.115,1.0353 l 0.92,5.3032 c 0.081,0.4371 0.311,0.8282 0.633,1.0928 l 1.518,1.2079 c 0.184,0.161 0.345,0.3681 0.449,0.5982 0.103,0.2416 0.161,0.4946 0.161,0.7707 0,0.2646 -0.046,0.5292 -0.15,0.7708 -0.092,0.2416 -0.241,0.4486 -0.425,0.6212 z"
             fill="#0b37d6"
             id="path142"
             style="fill:#0b8eff;fill-opacity:1" /></g><g
           opacity="0.53"
           id="g148"
           style="fill:#0b8eff;fill-opacity:1"><path
             d="m 225.986,27.8434 c -0.046,0.4602 0.069,0.9318 0.299,1.2999 0.598,0.9318 1.737,2.6228 2.151,2.6228 0.414,0 2.255,0.1036 3.393,0.1726 0.277,0.023 0.541,-0.0345 0.794,-0.1611 0.253,-0.1265 0.472,-0.3105 0.644,-0.5521 l 3.003,-4.1183 c 0.161,-0.2186 0.276,-0.4717 0.345,-0.7593 0.057,-0.2761 0.069,-0.5752 0.011,-0.8512 l -0.517,-2.7149 c -0.058,-0.3106 -0.184,-0.5981 -0.368,-0.8282 l -1.162,-1.5645 c -0.173,-0.2301 -0.391,-0.4141 -0.644,-0.5292 -0.242,-0.115 -0.507,-0.1725 -0.771,-0.161 -0.265,0.0115 -0.529,0.092 -0.759,0.2416 -0.23,0.1495 -0.438,0.345 -0.599,0.5981 l -0.54,0.8973 c -0.196,0.2991 -0.449,0.5291 -0.748,0.6787 l -0.863,0.4486 -0.138,0.0691 -2.416,1.4149 c -0.253,0.138 -0.46,0.3566 -0.621,0.6212 -0.161,0.2646 -0.253,0.5752 -0.287,0.8858 l -0.184,2.3007 z"
             fill="#0b37d6"
             id="path146"
             style="fill:#0b8eff;fill-opacity:1" /></g><path
           d="m 486.232,136.136 c 0.161,-0.483 0.161,-1.012 0.034,-1.507 -0.138,-0.495 -0.414,-0.92 -0.782,-1.208 -0.955,-0.828 -1.956,-1.576 -3.002,-2.254 -0.541,-0.196 0,-2.416 -0.173,-3.003 0.161,-2.002 0.587,-3.957 1.265,-5.798 0.357,-0.609 -0.724,-3.014 -1.806,-3.807 -1.081,-0.794 -2.703,-4.211 -3.428,-5.2 -0.724,-0.989 -2.162,-5.809 -2.531,-6.408 -0.368,-0.586 -2.346,0.196 -2.887,0.403 -0.541,0.207 -0.725,2.6 -0.725,2.6 0,0 0.541,4.21 0,4.21 -0.54,0 -1.047,-1.001 -1.047,-1.001 -0.345,0.806 -0.54,1.691 -0.54,2.6 0.103,0.667 0.161,1.346 0.161,2.025 0,0.518 0.172,1.012 0.46,1.403 0.955,1.312 3.141,4.314 3.52,4.832 0.391,0.517 1.622,4.601 1.795,5.211 0.184,1.495 0.287,3.002 0.31,4.521 0.023,0.391 0.127,0.782 0.311,1.116 0.184,0.333 0.437,0.621 0.736,0.816 l 4.233,2.738 0.276,0.219 c 0.265,0.218 0.564,0.379 0.886,0.448 0.322,0.07 0.645,0.07 0.967,-0.022 0.31,-0.093 0.609,-0.265 0.862,-0.495 0.253,-0.242 0.46,-0.541 0.599,-0.874 0.184,-0.576 0.345,-1.093 0.506,-1.542 z"
           fill="#0b37d6"
           id="path150"
           style="fill:#0b8eff;fill-opacity:1" /><path
           d="m 554.254,114.614 c -0.633,-1.208 -1.668,0.311 -1.668,-1.208 0.057,-0.943 -0.15,-1.886 -0.61,-2.669 -0.449,-0.782 -1.127,-1.368 -1.898,-1.668 l -0.552,4.337 -1.956,2.186 -0.288,2.784 2.508,-0.299 -1.104,5.556 c 0,0 -2.243,0.932 -3.348,1.208 -1.104,0.276 -1.403,2.162 -1.403,2.162 l -1.956,6.189 -0.276,3.406 c 0,0 3.624,-0.311 4.464,-0.311 0.816,-0.196 1.576,-0.61 2.231,-1.208 0.288,-1.415 0.391,-2.887 0.288,-4.337 -0.288,-1.541 2.232,-0.932 2.795,-1.852 0.748,-1.725 1.128,-3.635 1.105,-5.568 0,-0.609 0.149,-1.208 0.448,-1.702 0.299,-0.495 0.725,-0.886 1.22,-1.093 0.483,-0.886 0.747,-1.91 0.747,-2.956 0,-1.047 -0.253,-2.071 -0.747,-2.957 z"
           fill="#0b37d6"
           id="path152"
           style="fill:#0b8eff;fill-opacity:1" /></g></g></g></svg>
