<svg width="21" height="21" viewBox="0 0 21 21" fill="none" xmlns="http://www.w3.org/2000/svg">
<path d="M8.75 19.25H12.25C16.625 19.25 18.375 17.5 18.375 13.125V7.875C18.375 3.5 16.625 1.75 12.25 1.75H8.75C4.375 1.75 2.625 3.5 2.625 7.875V13.125C2.625 17.5 4.375 19.25 8.75 19.25Z" stroke="#0257CC" stroke-width="1.5" stroke-linecap="round" stroke-linejoin="round"/>
<path d="M14.4375 6.63245V7.50745C14.4375 8.22495 13.8512 8.81995 13.125 8.81995H7.875C7.1575 8.81995 6.5625 8.2337 6.5625 7.50745V6.63245C6.5625 5.91495 7.14875 5.31995 7.875 5.31995H13.125C13.8512 5.31995 14.4375 5.9062 14.4375 6.63245Z" stroke="#0257CC" stroke-width="1.5" stroke-linecap="round" stroke-linejoin="round"/>
<path d="M7.1191 12.25H7.12921" stroke="#0257CC" stroke-width="2" stroke-linecap="round" stroke-linejoin="round"/>
<path d="M10.4961 12.25H10.5062" stroke="#0257CC" stroke-width="2" stroke-linecap="round" stroke-linejoin="round"/>
<path d="M13.8725 12.25H13.8826" stroke="#0257CC" stroke-width="2" stroke-linecap="round" stroke-linejoin="round"/>
<path d="M7.1191 15.3125H7.12921" stroke="#0257CC" stroke-width="2" stroke-linecap="round" stroke-linejoin="round"/>
<path d="M10.4961 15.3125H10.5062" stroke="#0257CC" stroke-width="2" stroke-linecap="round" stroke-linejoin="round"/>
<path d="M13.8725 15.3125H13.8826" stroke="#0257CC" stroke-width="2" stroke-linecap="round" stroke-linejoin="round"/>
</svg>
