<svg width="18" height="13" viewBox="0 0 18 13" fill="none" xmlns="http://www.w3.org/2000/svg">
<path d="M15.261 1.09795C17.2939 3.93099 18.2978 7.12659 17.9225 10.8055C17.9209 10.821 17.9124 10.8353 17.8989 10.8447C16.3594 11.9161 14.8679 12.5664 13.3973 12.9976C13.3859 13.0009 13.3736 13.0007 13.3623 12.9971C13.3509 12.9935 13.3411 12.9866 13.3341 12.9774C12.9943 12.5293 12.6856 12.0569 12.4152 11.5608C12.3997 11.5316 12.4138 11.4964 12.4458 11.4849C12.9361 11.3098 13.4023 11.1 13.8507 10.8515C13.886 10.8319 13.8883 10.7839 13.8556 10.7609C13.7605 10.6939 13.6662 10.6235 13.576 10.5532C13.5591 10.5401 13.5364 10.5376 13.5172 10.5463C10.606 11.8206 7.41682 11.8206 4.47113 10.5463C4.452 10.5382 4.42928 10.541 4.41285 10.5538C4.32285 10.6242 4.22835 10.6939 4.13408 10.7609C4.10145 10.7839 4.10415 10.8319 4.1397 10.8515C4.58813 11.0953 5.05433 11.3098 5.54392 11.4858C5.57565 11.4973 5.59072 11.5316 5.57497 11.5608C5.31037 12.0575 5.00167 12.5299 4.65563 12.978C4.64055 12.9961 4.6158 13.0045 4.5924 12.9976C3.12878 12.5664 1.63726 11.9161 0.097808 10.8447C0.084983 10.8353 0.075758 10.8204 0.074408 10.8048C-0.239241 7.62265 0.399982 4.40061 2.73345 1.09731C2.73908 1.08856 2.74763 1.08174 2.75753 1.07769C3.9057 0.578214 5.13577 0.210754 6.42142 0.000899025C6.44482 -0.00251325 6.46822 0.00772357 6.48037 0.0273442C6.63922 0.293928 6.8208 0.635796 6.94365 0.915176C8.29882 0.71897 9.67514 0.71897 11.0587 0.915176C11.1815 0.641768 11.3568 0.293928 11.515 0.0273442C11.5206 0.0176106 11.5293 0.00981264 11.5399 0.00506348C11.5505 0.000314325 11.5624 -0.00114321 11.5739 0.000899025C12.8602 0.211394 14.0903 0.578854 15.2376 1.07769C15.2477 1.08174 15.256 1.08856 15.261 1.09795ZM7.6326 7.14834C7.64677 6.20762 6.92317 5.42919 6.01485 5.42919C5.11395 5.42919 4.39733 6.2008 4.39733 7.14834C4.39733 8.09568 5.12812 8.86728 6.01485 8.86728C6.91597 8.86728 7.6326 8.09568 7.6326 7.14834ZM13.6135 7.14834C13.6277 6.20762 12.9041 5.42919 11.996 5.42919C11.0949 5.42919 10.3783 6.2008 10.3783 7.14834C10.3783 8.09568 11.1091 8.86728 11.996 8.86728C12.9041 8.86728 13.6135 8.09568 13.6135 7.14834Z" fill="white"/>
</svg>
