<svg width="22" height="22" viewBox="0 0 22 22" fill="none" xmlns="http://www.w3.org/2000/svg">
<path opacity="0.4" d="M19.5892 10.4408V15.9316C19.5892 18.4616 17.5359 20.515 15.0059 20.515H6.99422C4.46422 20.515 2.41089 18.4616 2.41089 15.9316V10.505C3.10756 11.2566 4.09756 11.6875 5.17006 11.6875C6.32506 11.6875 7.43422 11.11 8.13089 10.1841C8.75422 11.11 9.81756 11.6875 11.0001 11.6875C12.1734 11.6875 13.2184 11.1375 13.8509 10.2208C14.5567 11.1283 15.6476 11.6875 16.7842 11.6875C17.8934 11.6875 18.9017 11.2383 19.5892 10.4408Z" fill="#006FFF"/>
<path d="M13.7407 1.14581H8.24074L7.5624 7.89248C7.5074 8.51581 7.59907 9.10248 7.82824 9.63415C8.3599 10.8808 9.60657 11.6875 10.9999 11.6875C12.4116 11.6875 13.6307 10.8991 14.1807 9.64331C14.3457 9.24915 14.4466 8.79081 14.4557 8.32331V8.14915L13.7407 1.14581Z" fill="#006FFF"/>
<path opacity="0.6" d="M20.4968 7.58081L20.2309 5.04165C19.8459 2.27331 18.5901 1.14581 15.9043 1.14581H12.3843L13.0626 8.02081C13.0718 8.11248 13.0809 8.21331 13.0809 8.38748C13.1359 8.86415 13.2826 9.30415 13.5026 9.69831C14.1626 10.9083 15.4459 11.6875 16.7843 11.6875C18.0034 11.6875 19.1034 11.1466 19.7909 10.1933C20.3409 9.45998 20.5884 8.53415 20.4968 7.58081Z" fill="#006FFF"/>
<path opacity="0.6" d="M6.04076 1.14581C3.34576 1.14581 2.09909 2.27331 1.70492 5.06915L1.45742 7.58998C1.36576 8.57081 1.63159 9.52415 2.20909 10.2666C2.90576 11.1741 3.97826 11.6875 5.16992 11.6875C6.50826 11.6875 7.79159 10.9083 8.44242 9.71665C8.68076 9.30415 8.83659 8.82748 8.88242 8.33248L9.59742 1.15498H6.04076V1.14581Z" fill="#006FFF"/>
<path d="M10.4043 15.2717C9.24011 15.3909 8.36011 16.3809 8.36011 17.5542V20.515H13.6309V17.875C13.6401 15.9592 12.5126 15.0517 10.4043 15.2717Z" fill="#006FFF"/>
</svg>
