<svg width="30" height="30" viewBox="0 0 30 30" fill="none" xmlns="http://www.w3.org/2000/svg">
<path opacity="0.4" d="M13.4376 3.06252C14.3001 2.32502 15.7126 2.32502 16.5876 3.06252L18.5626 4.76251C18.9376 5.08751 19.6376 5.35005 20.1376 5.35005H22.2626C23.5876 5.35005 24.6751 6.43754 24.6751 7.76254V9.88748C24.6751 10.375 24.9376 11.0875 25.2626 11.4625L26.9626 13.4375C27.7001 14.3 27.7001 15.7125 26.9626 16.5875L25.2626 18.5625C24.9376 18.9375 24.6751 19.6375 24.6751 20.1375V22.2625C24.6751 23.5875 23.5876 24.675 22.2626 24.675H20.1376C19.6501 24.675 18.9376 24.9375 18.5626 25.2625L16.5876 26.9625C15.7251 27.7 14.3126 27.7 13.4376 26.9625L11.4626 25.2625C11.0876 24.9375 10.3876 24.675 9.8876 24.675H7.72509C6.40009 24.675 5.31259 23.5875 5.31259 22.2625V20.125C5.31259 19.6375 5.05011 18.9375 4.73761 18.5625L3.0501 16.575C2.3251 15.7125 2.3251 14.3125 3.0501 13.45L4.73761 11.4625C5.05011 11.0875 5.31259 10.3875 5.31259 9.89999V7.76254C5.31259 6.43754 6.40009 5.35005 7.72509 5.35005H9.8876C10.3751 5.35005 11.0876 5.08751 11.4626 4.76251L13.4376 3.06252Z" fill="#006FFF"/>
<path d="M20.7251 13.8375C20.4876 13.5 20.0876 13.3125 19.6126 13.3125H17.1751C17.0126 13.3125 16.8626 13.25 16.7626 13.125C16.6626 13 16.6126 12.8375 16.6376 12.6625L16.9376 10.7125C17.0626 10.1375 16.6751 9.47496 16.1001 9.28746C15.5626 9.08746 14.9251 9.36244 14.6751 9.73744L12.2501 13.3374V12.8875C12.2501 12.0125 11.8751 11.65 10.9501 11.65H10.3376C9.41257 11.65 9.0376 12.0125 9.0376 12.8875V18.8625C9.0376 19.7375 9.41257 20.1 10.3376 20.1H10.9501C11.8251 20.1 12.2001 19.7625 12.2376 18.9625L14.0751 20.375C14.3251 20.625 14.8876 20.7625 15.2876 20.7625H17.6001C18.4001 20.7625 19.2001 20.1624 19.3751 19.4249L20.8376 14.9749C21.0001 14.5749 20.9626 14.1625 20.7251 13.8375Z" fill="#006FFF"/>
</svg>
