<svg width="20" height="20" viewBox="0 0 20 20" fill="none" xmlns="http://www.w3.org/2000/svg">
<path opacity="0.4" d="M15.2752 4.72496L5.4919 14.5083C5.12524 14.875 4.50856 14.8249 4.20856 14.3916C3.17523 12.8833 2.56689 11.0999 2.56689 9.26661V5.60829C2.56689 4.92496 3.08357 4.14996 3.7169 3.89162L8.35857 1.99163C9.40857 1.55829 10.5752 1.55829 11.6252 1.99163L14.9919 3.36662C15.5502 3.59162 15.6919 4.30829 15.2752 4.72496Z" fill="#006FFF"/>
<path d="M16.0582 5.86661C16.5998 5.40827 17.4249 5.79993 17.4249 6.50826V9.26659C17.4249 13.3416 14.4665 17.1583 10.4249 18.2749C10.1499 18.3499 9.84986 18.3499 9.56652 18.2749C8.38319 17.9416 7.28317 17.3833 6.3415 16.6499C5.9415 16.3416 5.89985 15.7583 6.24985 15.3999C8.06651 13.5416 13.3832 8.12494 16.0582 5.86661Z" fill="#006FFF"/>
</svg>
