<svg width="1920" height="1627" viewBox="0 0 1920 1627" fill="none" xmlns="http://www.w3.org/2000/svg">
<g opacity="0.1">
<path fill-rule="evenodd" clip-rule="evenodd" d="M-56 206H424V625.084H-56V206ZM-55.25 206.748H3.25V265.121H-55.25V206.748ZM4.74999 206.748H63.25V265.121H4.74999V206.748ZM123.25 206.748H64.75V265.121H123.25V206.748ZM124.75 206.748H183.25V265.121H124.75V206.748ZM243.25 206.748H184.75V265.121H243.25V206.748ZM244.75 206.748H303.25V265.121H244.75V206.748ZM363.25 206.748H304.75V265.121H363.25V206.748ZM364.75 206.748H423.25V265.121H364.75V206.748ZM3.25 266.617H-55.25V324.99H3.25V266.617ZM4.74999 266.617H63.25V324.99H4.74999V266.617ZM123.25 266.617H64.75V324.99H123.25V266.617ZM124.75 266.617H183.25V324.99H124.75V266.617ZM243.25 266.617H184.75V324.99H243.25V266.617ZM244.75 266.617H303.25V324.99H244.75V266.617ZM363.25 266.617H304.75V324.99H363.25V266.617ZM364.75 266.617H423.25V324.99H364.75V266.617ZM3.25 326.487H-55.25V384.859H3.25V326.487ZM4.74999 326.487H63.25V384.859H4.74999V326.487ZM123.25 326.487H64.75V384.859H123.25V326.487ZM124.75 326.487H183.25V384.859H124.75V326.487ZM243.25 326.487H184.75V384.859H243.25V326.487ZM244.75 326.487H303.25V384.859H244.75V326.487ZM363.25 326.487H304.75V384.859H363.25V326.487ZM364.75 326.487H423.25V384.859H364.75V326.487ZM3.25 386.356H-55.25V444.728H3.25V386.356ZM4.74999 386.356H63.25V444.728H4.74999V386.356ZM123.25 386.356H64.75V444.728H123.25V386.356ZM124.75 386.356H183.25V444.728H124.75V386.356ZM243.25 386.356H184.75V444.728H243.25V386.356ZM244.75 386.356H303.25V444.728H244.75V386.356ZM363.25 386.356H304.75V444.728H363.25V386.356ZM364.75 386.356H423.25V444.728H364.75V386.356ZM3.25 446.225H-55.25V504.597H3.25V446.225ZM4.74999 446.225H63.25V504.597H4.74999V446.225ZM123.25 446.225H64.75V504.597H123.25V446.225ZM124.75 446.225H183.25V504.597H124.75V446.225ZM243.25 446.225H184.75V504.597H243.25V446.225ZM244.75 446.225H303.25V504.597H244.75V446.225ZM363.25 446.225H304.75V504.597H363.25V446.225ZM364.75 446.225H423.25V504.597H364.75V446.225ZM3.25 506.094H-55.25V564.466H3.25V506.094ZM4.74999 506.094H63.25V564.466H4.74999V506.094ZM123.25 506.094H64.75V564.466H123.25V506.094ZM124.75 506.094H183.25V564.466H124.75V506.094ZM243.25 506.094H184.75V564.466H243.25V506.094ZM244.75 506.094H303.25V564.466H244.75V506.094ZM363.25 506.094H304.75V564.466H363.25V506.094ZM364.75 506.094H423.25V564.466H364.75V506.094ZM3.25 565.963H-55.25V624.336H3.25V565.963ZM4.74999 565.963H63.25V624.336H4.74999V565.963ZM123.25 565.963H64.75V624.336H123.25V565.963ZM124.75 565.963H183.25V624.336H124.75V565.963ZM243.25 565.963H184.75V624.336H243.25V565.963ZM244.75 565.963H303.25V624.336H244.75V565.963ZM363.25 565.963H304.75V624.336H363.25V565.963ZM364.75 565.963H423.25V624.336H364.75V565.963Z" fill="url(#paint0_linear_101_1229)" fill-opacity="0.2"/>
<path fill-rule="evenodd" clip-rule="evenodd" d="M-56 625.084H424V1044.17H-56V625.084ZM-55.25 625.832H3.25V684.205H-55.25V625.832ZM4.74999 625.832H63.25V684.205H4.74999V625.832ZM123.25 625.832H64.75V684.205H123.25V625.832ZM124.75 625.832H183.25V684.205H124.75V625.832ZM243.25 625.832H184.75V684.205H243.25V625.832ZM244.75 625.832H303.25V684.205H244.75V625.832ZM363.25 625.832H304.75V684.205H363.25V625.832ZM364.75 625.832H423.25V684.205H364.75V625.832ZM3.25 685.701H-55.25V744.074H3.25V685.701ZM4.74999 685.701H63.25V744.074H4.74999V685.701ZM123.25 685.701H64.75V744.074H123.25V685.701ZM124.75 685.701H183.25V744.074H124.75V685.701ZM243.25 685.701H184.75V744.074H243.25V685.701ZM244.75 685.701H303.25V744.074H244.75V685.701ZM363.25 685.701H304.75V744.074H363.25V685.701ZM364.75 685.701H423.25V744.074H364.75V685.701ZM3.25 745.57H-55.25V803.943H3.25V745.57ZM4.74999 745.57H63.25V803.943H4.74999V745.57ZM123.25 745.57H64.75V803.943H123.25V745.57ZM124.75 745.57H183.25V803.943H124.75V745.57ZM243.25 745.57H184.75V803.943H243.25V745.57ZM244.75 745.57H303.25V803.943H244.75V745.57ZM363.25 745.57H304.75V803.943H363.25V745.57ZM364.75 745.57H423.25V803.943H364.75V745.57ZM3.25 805.44H-55.25V863.812H3.25V805.44ZM4.74999 805.44H63.25V863.812H4.74999V805.44ZM123.25 805.44H64.75V863.812H123.25V805.44ZM124.75 805.44H183.25V863.812H124.75V805.44ZM243.25 805.44H184.75V863.812H243.25V805.44ZM244.75 805.44H303.25V863.812H244.75V805.44ZM363.25 805.44H304.75V863.812H363.25V805.44ZM364.75 805.44H423.25V863.812H364.75V805.44ZM3.25 865.309H-55.25V923.681H3.25V865.309ZM4.74999 865.309H63.25V923.681H4.74999V865.309ZM123.25 865.309H64.75V923.681H123.25V865.309ZM124.75 865.309H183.25V923.681H124.75V865.309ZM243.25 865.309H184.75V923.681H243.25V865.309ZM244.75 865.309H303.25V923.681H244.75V865.309ZM363.25 865.309H304.75V923.681H363.25V865.309ZM364.75 865.309H423.25V923.681H364.75V865.309ZM3.25 925.178H-55.25V983.55H3.25V925.178ZM4.74999 925.178H63.25V983.55H4.74999V925.178ZM123.25 925.178H64.75V983.55H123.25V925.178ZM124.75 925.178H183.25V983.55H124.75V925.178ZM243.25 925.178H184.75V983.55H243.25V925.178ZM244.75 925.178H303.25V983.55H244.75V925.178ZM363.25 925.178H304.75V983.55H363.25V925.178ZM364.75 925.178H423.25V983.55H364.75V925.178ZM3.25 985.047H-55.25V1043.42H3.25V985.047ZM4.74999 985.047H63.25V1043.42H4.74999V985.047ZM123.25 985.047H64.75V1043.42H123.25V985.047ZM124.75 985.047H183.25V1043.42H124.75V985.047ZM243.25 985.047H184.75V1043.42H243.25V985.047ZM244.75 985.047H303.25V1043.42H244.75V985.047ZM363.25 985.047H304.75V1043.42H363.25V985.047ZM364.75 985.047H423.25V1043.42H364.75V985.047Z" fill="url(#paint1_linear_101_1229)" fill-opacity="0.2"/>
<path fill-rule="evenodd" clip-rule="evenodd" d="M424 206H904V625.084H424V206ZM424.75 206.748H483.25V265.121H424.75V206.748ZM484.75 206.748H543.25V265.121H484.75V206.748ZM603.25 206.748H544.75V265.121H603.25V206.748ZM604.75 206.748H663.25V265.121H604.75V206.748ZM723.25 206.748H664.75V265.121H723.25V206.748ZM724.75 206.748H783.25V265.121H724.75V206.748ZM843.25 206.748H784.75V265.121H843.25V206.748ZM844.75 206.748H903.25V265.121H844.75V206.748ZM483.25 266.617H424.75V324.99H483.25V266.617ZM484.75 266.617H543.25V324.99H484.75V266.617ZM603.25 266.617H544.75V324.99H603.25V266.617ZM604.75 266.617H663.25V324.99H604.75V266.617ZM723.25 266.617H664.75V324.99H723.25V266.617ZM724.75 266.617H783.25V324.99H724.75V266.617ZM843.25 266.617H784.75V324.99H843.25V266.617ZM844.75 266.617H903.25V324.99H844.75V266.617ZM483.25 326.487H424.75V384.859H483.25V326.487ZM484.75 326.487H543.25V384.859H484.75V326.487ZM603.25 326.487H544.75V384.859H603.25V326.487ZM604.75 326.487H663.25V384.859H604.75V326.487ZM723.25 326.487H664.75V384.859H723.25V326.487ZM724.75 326.487H783.25V384.859H724.75V326.487ZM843.25 326.487H784.75V384.859H843.25V326.487ZM844.75 326.487H903.25V384.859H844.75V326.487ZM483.25 386.356H424.75V444.728H483.25V386.356ZM484.75 386.356H543.25V444.728H484.75V386.356ZM603.25 386.356H544.75V444.728H603.25V386.356ZM604.75 386.356H663.25V444.728H604.75V386.356ZM723.25 386.356H664.75V444.728H723.25V386.356ZM724.75 386.356H783.25V444.728H724.75V386.356ZM843.25 386.356H784.75V444.728H843.25V386.356ZM844.75 386.356H903.25V444.728H844.75V386.356ZM483.25 446.225H424.75V504.597H483.25V446.225ZM484.75 446.225H543.25V504.597H484.75V446.225ZM603.25 446.225H544.75V504.597H603.25V446.225ZM604.75 446.225H663.25V504.597H604.75V446.225ZM723.25 446.225H664.75V504.597H723.25V446.225ZM724.75 446.225H783.25V504.597H724.75V446.225ZM843.25 446.225H784.75V504.597H843.25V446.225ZM844.75 446.225H903.25V504.597H844.75V446.225ZM483.25 506.094H424.75V564.466H483.25V506.094ZM484.75 506.094H543.25V564.466H484.75V506.094ZM603.25 506.094H544.75V564.466H603.25V506.094ZM604.75 506.094H663.25V564.466H604.75V506.094ZM723.25 506.094H664.75V564.466H723.25V506.094ZM724.75 506.094H783.25V564.466H724.75V506.094ZM843.25 506.094H784.75V564.466H843.25V506.094ZM844.75 506.094H903.25V564.466H844.75V506.094ZM483.25 565.963H424.75V624.336H483.25V565.963ZM484.75 565.963H543.25V624.336H484.75V565.963ZM603.25 565.963H544.75V624.336H603.25V565.963ZM604.75 565.963H663.25V624.336H604.75V565.963ZM723.25 565.963H664.75V624.336H723.25V565.963ZM724.75 565.963H783.25V624.336H724.75V565.963ZM843.25 565.963H784.75V624.336H843.25V565.963ZM844.75 565.963H903.25V624.336H844.75V565.963Z" fill="url(#paint2_linear_101_1229)" fill-opacity="0.2"/>
<path fill-rule="evenodd" clip-rule="evenodd" d="M424 625.084H904V1044.17H424V625.084ZM424.75 625.832H483.25V684.205H424.75V625.832ZM484.75 625.832H543.25V684.205H484.75V625.832ZM603.25 625.832H544.75V684.205H603.25V625.832ZM604.75 625.832H663.25V684.205H604.75V625.832ZM723.25 625.832H664.75V684.205H723.25V625.832ZM724.75 625.832H783.25V684.205H724.75V625.832ZM843.25 625.832H784.75V684.205H843.25V625.832ZM844.75 625.832H903.25V684.205H844.75V625.832ZM483.25 685.701H424.75V744.074H483.25V685.701ZM484.75 685.701H543.25V744.074H484.75V685.701ZM603.25 685.701H544.75V744.074H603.25V685.701ZM604.75 685.701H663.25V744.074H604.75V685.701ZM723.25 685.701H664.75V744.074H723.25V685.701ZM724.75 685.701H783.25V744.074H724.75V685.701ZM843.25 685.701H784.75V744.074H843.25V685.701ZM844.75 685.701H903.25V744.074H844.75V685.701ZM483.25 745.57H424.75V803.943H483.25V745.57ZM484.75 745.57H543.25V803.943H484.75V745.57ZM603.25 745.57H544.75V803.943H603.25V745.57ZM604.75 745.57H663.25V803.943H604.75V745.57ZM723.25 745.57H664.75V803.943H723.25V745.57ZM724.75 745.57H783.25V803.943H724.75V745.57ZM843.25 745.57H784.75V803.943H843.25V745.57ZM844.75 745.57H903.25V803.943H844.75V745.57ZM483.25 805.44H424.75V863.812H483.25V805.44ZM484.75 805.44H543.25V863.812H484.75V805.44ZM603.25 805.44H544.75V863.812H603.25V805.44ZM604.75 805.44H663.25V863.812H604.75V805.44ZM723.25 805.44H664.75V863.812H723.25V805.44ZM724.75 805.44H783.25V863.812H724.75V805.44ZM843.25 805.44H784.75V863.812H843.25V805.44ZM844.75 805.44H903.25V863.812H844.75V805.44ZM483.25 865.309H424.75V923.681H483.25V865.309ZM484.75 865.309H543.25V923.681H484.75V865.309ZM603.25 865.309H544.75V923.681H603.25V865.309ZM604.75 865.309H663.25V923.681H604.75V865.309ZM723.25 865.309H664.75V923.681H723.25V865.309ZM724.75 865.309H783.25V923.681H724.75V865.309ZM843.25 865.309H784.75V923.681H843.25V865.309ZM844.75 865.309H903.25V923.681H844.75V865.309ZM483.25 925.178H424.75V983.55H483.25V925.178ZM484.75 925.178H543.25V983.55H484.75V925.178ZM603.25 925.178H544.75V983.55H603.25V925.178ZM604.75 925.178H663.25V983.55H604.75V925.178ZM723.25 925.178H664.75V983.55H723.25V925.178ZM724.75 925.178H783.25V983.55H724.75V925.178ZM843.25 925.178H784.75V983.55H843.25V925.178ZM844.75 925.178H903.25V983.55H844.75V925.178ZM483.25 985.047H424.75V1043.42H483.25V985.047ZM484.75 985.047H543.25V1043.42H484.75V985.047ZM603.25 985.047H544.75V1043.42H603.25V985.047ZM604.75 985.047H663.25V1043.42H604.75V985.047ZM723.25 985.047H664.75V1043.42H723.25V985.047ZM724.75 985.047H783.25V1043.42H724.75V985.047ZM843.25 985.047H784.75V1043.42H843.25V985.047ZM844.75 985.047H903.25V1043.42H844.75V985.047Z" fill="url(#paint3_linear_101_1229)" fill-opacity="0.2"/>
<path fill-rule="evenodd" clip-rule="evenodd" d="M904 206H1384V625.084H904V206ZM904.75 206.748H963.25V265.121H904.75V206.748ZM964.75 206.748H1023.25V265.121H964.75V206.748ZM1083.25 206.748H1024.75V265.121H1083.25V206.748ZM1084.75 206.748H1143.25V265.121H1084.75V206.748ZM1203.25 206.748H1144.75V265.121H1203.25V206.748ZM1204.75 206.748H1263.25V265.121H1204.75V206.748ZM1323.25 206.748H1264.75V265.121H1323.25V206.748ZM1324.75 206.748H1383.25V265.121H1324.75V206.748ZM963.25 266.617H904.75V324.99H963.25V266.617ZM964.75 266.617H1023.25V324.99H964.75V266.617ZM1083.25 266.617H1024.75V324.99H1083.25V266.617ZM1084.75 266.617H1143.25V324.99H1084.75V266.617ZM1203.25 266.617H1144.75V324.99H1203.25V266.617ZM1204.75 266.617H1263.25V324.99H1204.75V266.617ZM1323.25 266.617H1264.75V324.99H1323.25V266.617ZM1324.75 266.617H1383.25V324.99H1324.75V266.617ZM963.25 326.487H904.75V384.859H963.25V326.487ZM964.75 326.487H1023.25V384.859H964.75V326.487ZM1083.25 326.487H1024.75V384.859H1083.25V326.487ZM1084.75 326.487H1143.25V384.859H1084.75V326.487ZM1203.25 326.487H1144.75V384.859H1203.25V326.487ZM1204.75 326.487H1263.25V384.859H1204.75V326.487ZM1323.25 326.487H1264.75V384.859H1323.25V326.487ZM1324.75 326.487H1383.25V384.859H1324.75V326.487ZM963.25 386.356H904.75V444.728H963.25V386.356ZM964.75 386.356H1023.25V444.728H964.75V386.356ZM1083.25 386.356H1024.75V444.728H1083.25V386.356ZM1084.75 386.356H1143.25V444.728H1084.75V386.356ZM1203.25 386.356H1144.75V444.728H1203.25V386.356ZM1204.75 386.356H1263.25V444.728H1204.75V386.356ZM1323.25 386.356H1264.75V444.728H1323.25V386.356ZM1324.75 386.356H1383.25V444.728H1324.75V386.356ZM963.25 446.225H904.75V504.597H963.25V446.225ZM964.75 446.225H1023.25V504.597H964.75V446.225ZM1083.25 446.225H1024.75V504.597H1083.25V446.225ZM1084.75 446.225H1143.25V504.597H1084.75V446.225ZM1203.25 446.225H1144.75V504.597H1203.25V446.225ZM1204.75 446.225H1263.25V504.597H1204.75V446.225ZM1323.25 446.225H1264.75V504.597H1323.25V446.225ZM1324.75 446.225H1383.25V504.597H1324.75V446.225ZM963.25 506.094H904.75V564.466H963.25V506.094ZM964.75 506.094H1023.25V564.466H964.75V506.094ZM1083.25 506.094H1024.75V564.466H1083.25V506.094ZM1084.75 506.094H1143.25V564.466H1084.75V506.094ZM1203.25 506.094H1144.75V564.466H1203.25V506.094ZM1204.75 506.094H1263.25V564.466H1204.75V506.094ZM1323.25 506.094H1264.75V564.466H1323.25V506.094ZM1324.75 506.094H1383.25V564.466H1324.75V506.094ZM963.25 565.963H904.75V624.336H963.25V565.963ZM964.75 565.963H1023.25V624.336H964.75V565.963ZM1083.25 565.963H1024.75V624.336H1083.25V565.963ZM1084.75 565.963H1143.25V624.336H1084.75V565.963ZM1203.25 565.963H1144.75V624.336H1203.25V565.963ZM1204.75 565.963H1263.25V624.336H1204.75V565.963ZM1323.25 565.963H1264.75V624.336H1323.25V565.963ZM1324.75 565.963H1383.25V624.336H1324.75V565.963Z" fill="url(#paint4_linear_101_1229)" fill-opacity="0.2"/>
<path fill-rule="evenodd" clip-rule="evenodd" d="M904 625.084H1384V1044.17H904V625.084ZM904.75 625.832H963.25V684.205H904.75V625.832ZM964.75 625.832H1023.25V684.205H964.75V625.832ZM1083.25 625.832H1024.75V684.205H1083.25V625.832ZM1084.75 625.832H1143.25V684.205H1084.75V625.832ZM1203.25 625.832H1144.75V684.205H1203.25V625.832ZM1204.75 625.832H1263.25V684.205H1204.75V625.832ZM1323.25 625.832H1264.75V684.205H1323.25V625.832ZM1324.75 625.832H1383.25V684.205H1324.75V625.832ZM963.25 685.701H904.75V744.074H963.25V685.701ZM964.75 685.701H1023.25V744.074H964.75V685.701ZM1083.25 685.701H1024.75V744.074H1083.25V685.701ZM1084.75 685.701H1143.25V744.074H1084.75V685.701ZM1203.25 685.701H1144.75V744.074H1203.25V685.701ZM1204.75 685.701H1263.25V744.074H1204.75V685.701ZM1323.25 685.701H1264.75V744.074H1323.25V685.701ZM1324.75 685.701H1383.25V744.074H1324.75V685.701ZM963.25 745.57H904.75V803.943H963.25V745.57ZM964.75 745.57H1023.25V803.943H964.75V745.57ZM1083.25 745.57H1024.75V803.943H1083.25V745.57ZM1084.75 745.57H1143.25V803.943H1084.75V745.57ZM1203.25 745.57H1144.75V803.943H1203.25V745.57ZM1204.75 745.57H1263.25V803.943H1204.75V745.57ZM1323.25 745.57H1264.75V803.943H1323.25V745.57ZM1324.75 745.57H1383.25V803.943H1324.75V745.57ZM963.25 805.44H904.75V863.812H963.25V805.44ZM964.75 805.44H1023.25V863.812H964.75V805.44ZM1083.25 805.44H1024.75V863.812H1083.25V805.44ZM1084.75 805.44H1143.25V863.812H1084.75V805.44ZM1203.25 805.44H1144.75V863.812H1203.25V805.44ZM1204.75 805.44H1263.25V863.812H1204.75V805.44ZM1323.25 805.44H1264.75V863.812H1323.25V805.44ZM1324.75 805.44H1383.25V863.812H1324.75V805.44ZM963.25 865.309H904.75V923.681H963.25V865.309ZM964.75 865.309H1023.25V923.681H964.75V865.309ZM1083.25 865.309H1024.75V923.681H1083.25V865.309ZM1084.75 865.309H1143.25V923.681H1084.75V865.309ZM1203.25 865.309H1144.75V923.681H1203.25V865.309ZM1204.75 865.309H1263.25V923.681H1204.75V865.309ZM1323.25 865.309H1264.75V923.681H1323.25V865.309ZM1324.75 865.309H1383.25V923.681H1324.75V865.309ZM963.25 925.178H904.75V983.55H963.25V925.178ZM964.75 925.178H1023.25V983.55H964.75V925.178ZM1083.25 925.178H1024.75V983.55H1083.25V925.178ZM1084.75 925.178H1143.25V983.55H1084.75V925.178ZM1203.25 925.178H1144.75V983.55H1203.25V925.178ZM1204.75 925.178H1263.25V983.55H1204.75V925.178ZM1323.25 925.178H1264.75V983.55H1323.25V925.178ZM1324.75 925.178H1383.25V983.55H1324.75V925.178ZM963.25 985.047H904.75V1043.42H963.25V985.047ZM964.75 985.047H1023.25V1043.42H964.75V985.047ZM1083.25 985.047H1024.75V1043.42H1083.25V985.047ZM1084.75 985.047H1143.25V1043.42H1084.75V985.047ZM1203.25 985.047H1144.75V1043.42H1203.25V985.047ZM1204.75 985.047H1263.25V1043.42H1204.75V985.047ZM1323.25 985.047H1264.75V1043.42H1323.25V985.047ZM1324.75 985.047H1383.25V1043.42H1324.75V985.047Z" fill="url(#paint5_linear_101_1229)" fill-opacity="0.2"/>
<path fill-rule="evenodd" clip-rule="evenodd" d="M1384 206H1864V625.084H1384V206ZM1384.75 206.748H1443.25V265.121H1384.75V206.748ZM1444.75 206.748H1503.25V265.121H1444.75V206.748ZM1563.25 206.748H1504.75V265.121H1563.25V206.748ZM1564.75 206.748H1623.25V265.121H1564.75V206.748ZM1683.25 206.748H1624.75V265.121H1683.25V206.748ZM1684.75 206.748H1743.25V265.121H1684.75V206.748ZM1803.25 206.748H1744.75V265.121H1803.25V206.748ZM1804.75 206.748H1863.25V265.121H1804.75V206.748ZM1443.25 266.617H1384.75V324.99H1443.25V266.617ZM1444.75 266.617H1503.25V324.99H1444.75V266.617ZM1563.25 266.617H1504.75V324.99H1563.25V266.617ZM1564.75 266.617H1623.25V324.99H1564.75V266.617ZM1683.25 266.617H1624.75V324.99H1683.25V266.617ZM1684.75 266.617H1743.25V324.99H1684.75V266.617ZM1803.25 266.617H1744.75V324.99H1803.25V266.617ZM1804.75 266.617H1863.25V324.99H1804.75V266.617ZM1443.25 326.487H1384.75V384.859H1443.25V326.487ZM1444.75 326.487H1503.25V384.859H1444.75V326.487ZM1563.25 326.487H1504.75V384.859H1563.25V326.487ZM1564.75 326.487H1623.25V384.859H1564.75V326.487ZM1683.25 326.487H1624.75V384.859H1683.25V326.487ZM1684.75 326.487H1743.25V384.859H1684.75V326.487ZM1803.25 326.487H1744.75V384.859H1803.25V326.487ZM1804.75 326.487H1863.25V384.859H1804.75V326.487ZM1443.25 386.356H1384.75V444.728H1443.25V386.356ZM1444.75 386.356H1503.25V444.728H1444.75V386.356ZM1563.25 386.356H1504.75V444.728H1563.25V386.356ZM1564.75 386.356H1623.25V444.728H1564.75V386.356ZM1683.25 386.356H1624.75V444.728H1683.25V386.356ZM1684.75 386.356H1743.25V444.728H1684.75V386.356ZM1803.25 386.356H1744.75V444.728H1803.25V386.356ZM1804.75 386.356H1863.25V444.728H1804.75V386.356ZM1443.25 446.225H1384.75V504.597H1443.25V446.225ZM1444.75 446.225H1503.25V504.597H1444.75V446.225ZM1563.25 446.225H1504.75V504.597H1563.25V446.225ZM1564.75 446.225H1623.25V504.597H1564.75V446.225ZM1683.25 446.225H1624.75V504.597H1683.25V446.225ZM1684.75 446.225H1743.25V504.597H1684.75V446.225ZM1803.25 446.225H1744.75V504.597H1803.25V446.225ZM1804.75 446.225H1863.25V504.597H1804.75V446.225ZM1443.25 506.094H1384.75V564.466H1443.25V506.094ZM1444.75 506.094H1503.25V564.466H1444.75V506.094ZM1563.25 506.094H1504.75V564.466H1563.25V506.094ZM1564.75 506.094H1623.25V564.466H1564.75V506.094ZM1683.25 506.094H1624.75V564.466H1683.25V506.094ZM1684.75 506.094H1743.25V564.466H1684.75V506.094ZM1803.25 506.094H1744.75V564.466H1803.25V506.094ZM1804.75 506.094H1863.25V564.466H1804.75V506.094ZM1443.25 565.963H1384.75V624.336H1443.25V565.963ZM1444.75 565.963H1503.25V624.336H1444.75V565.963ZM1563.25 565.963H1504.75V624.336H1563.25V565.963ZM1564.75 565.963H1623.25V624.336H1564.75V565.963ZM1683.25 565.963H1624.75V624.336H1683.25V565.963ZM1684.75 565.963H1743.25V624.336H1684.75V565.963ZM1803.25 565.963H1744.75V624.336H1803.25V565.963ZM1804.75 565.963H1863.25V624.336H1804.75V565.963Z" fill="url(#paint6_linear_101_1229)" fill-opacity="0.2"/>
<path fill-rule="evenodd" clip-rule="evenodd" d="M1384 625.084H1864V1044.17H1384V625.084ZM1384.75 625.832H1443.25V684.205H1384.75V625.832ZM1444.75 625.832H1503.25V684.205H1444.75V625.832ZM1563.25 625.832H1504.75V684.205H1563.25V625.832ZM1564.75 625.832H1623.25V684.205H1564.75V625.832ZM1683.25 625.832H1624.75V684.205H1683.25V625.832ZM1684.75 625.832H1743.25V684.205H1684.75V625.832ZM1803.25 625.832H1744.75V684.205H1803.25V625.832ZM1804.75 625.832H1863.25V684.205H1804.75V625.832ZM1443.25 685.701H1384.75V744.074H1443.25V685.701ZM1444.75 685.701H1503.25V744.074H1444.75V685.701ZM1563.25 685.701H1504.75V744.074H1563.25V685.701ZM1564.75 685.701H1623.25V744.074H1564.75V685.701ZM1683.25 685.701H1624.75V744.074H1683.25V685.701ZM1684.75 685.701H1743.25V744.074H1684.75V685.701ZM1803.25 685.701H1744.75V744.074H1803.25V685.701ZM1804.75 685.701H1863.25V744.074H1804.75V685.701ZM1443.25 745.57H1384.75V803.943H1443.25V745.57ZM1444.75 745.57H1503.25V803.943H1444.75V745.57ZM1563.25 745.57H1504.75V803.943H1563.25V745.57ZM1564.75 745.57H1623.25V803.943H1564.75V745.57ZM1683.25 745.57H1624.75V803.943H1683.25V745.57ZM1684.75 745.57H1743.25V803.943H1684.75V745.57ZM1803.25 745.57H1744.75V803.943H1803.25V745.57ZM1804.75 745.57H1863.25V803.943H1804.75V745.57ZM1443.25 805.44H1384.75V863.812H1443.25V805.44ZM1444.75 805.44H1503.25V863.812H1444.75V805.44ZM1563.25 805.44H1504.75V863.812H1563.25V805.44ZM1564.75 805.44H1623.25V863.812H1564.75V805.44ZM1683.25 805.44H1624.75V863.812H1683.25V805.44ZM1684.75 805.44H1743.25V863.812H1684.75V805.44ZM1803.25 805.44H1744.75V863.812H1803.25V805.44ZM1804.75 805.44H1863.25V863.812H1804.75V805.44ZM1443.25 865.309H1384.75V923.681H1443.25V865.309ZM1444.75 865.309H1503.25V923.681H1444.75V865.309ZM1563.25 865.309H1504.75V923.681H1563.25V865.309ZM1564.75 865.309H1623.25V923.681H1564.75V865.309ZM1683.25 865.309H1624.75V923.681H1683.25V865.309ZM1684.75 865.309H1743.25V923.681H1684.75V865.309ZM1803.25 865.309H1744.75V923.681H1803.25V865.309ZM1804.75 865.309H1863.25V923.681H1804.75V865.309ZM1443.25 925.178H1384.75V983.55H1443.25V925.178ZM1444.75 925.178H1503.25V983.55H1444.75V925.178ZM1563.25 925.178H1504.75V983.55H1563.25V925.178ZM1564.75 925.178H1623.25V983.55H1564.75V925.178ZM1683.25 925.178H1624.75V983.55H1683.25V925.178ZM1684.75 925.178H1743.25V983.55H1684.75V925.178ZM1803.25 925.178H1744.75V983.55H1803.25V925.178ZM1804.75 925.178H1863.25V983.55H1804.75V925.178ZM1443.25 985.047H1384.75V1043.42H1443.25V985.047ZM1444.75 985.047H1503.25V1043.42H1444.75V985.047ZM1563.25 985.047H1504.75V1043.42H1563.25V985.047ZM1564.75 985.047H1623.25V1043.42H1564.75V985.047ZM1683.25 985.047H1624.75V1043.42H1683.25V985.047ZM1684.75 985.047H1743.25V1043.42H1684.75V985.047ZM1803.25 985.047H1744.75V1043.42H1803.25V985.047ZM1804.75 985.047H1863.25V1043.42H1804.75V985.047Z" fill="url(#paint7_linear_101_1229)" fill-opacity="0.2"/>
<path fill-rule="evenodd" clip-rule="evenodd" d="M-56 1044.17H424V1463.25H-56V1044.17ZM-55.25 1044.92H3.25V1103.29H-55.25V1044.92ZM4.74999 1044.92H63.25V1103.29H4.74999V1044.92ZM123.25 1044.92H64.75V1103.29H123.25V1044.92ZM124.75 1044.92H183.25V1103.29H124.75V1044.92ZM243.25 1044.92H184.75V1103.29H243.25V1044.92ZM244.75 1044.92H303.25V1103.29H244.75V1044.92ZM363.25 1044.92H304.75V1103.29H363.25V1044.92ZM364.75 1044.92H423.25V1103.29H364.75V1044.92ZM3.25 1104.79H-55.25V1163.16H3.25V1104.79ZM4.74999 1104.79H63.25V1163.16H4.74999V1104.79ZM123.25 1104.79H64.75V1163.16H123.25V1104.79ZM124.75 1104.79H183.25V1163.16H124.75V1104.79ZM243.25 1104.79H184.75V1163.16H243.25V1104.79ZM244.75 1104.79H303.25V1163.16H244.75V1104.79ZM363.25 1104.79H304.75V1163.16H363.25V1104.79ZM364.75 1104.79H423.25V1163.16H364.75V1104.79ZM3.25 1164.65H-55.25V1223.03H3.25V1164.65ZM4.74999 1164.65H63.25V1223.03H4.74999V1164.65ZM123.25 1164.65H64.75V1223.03H123.25V1164.65ZM124.75 1164.65H183.25V1223.03H124.75V1164.65ZM243.25 1164.65H184.75V1223.03H243.25V1164.65ZM244.75 1164.65H303.25V1223.03H244.75V1164.65ZM363.25 1164.65H304.75V1223.03H363.25V1164.65ZM364.75 1164.65H423.25V1223.03H364.75V1164.65ZM3.25 1224.52H-55.25V1282.9H3.25V1224.52ZM4.74999 1224.52H63.25V1282.9H4.74999V1224.52ZM123.25 1224.52H64.75V1282.9H123.25V1224.52ZM124.75 1224.52H183.25V1282.9H124.75V1224.52ZM243.25 1224.52H184.75V1282.9H243.25V1224.52ZM244.75 1224.52H303.25V1282.9H244.75V1224.52ZM363.25 1224.52H304.75V1282.9H363.25V1224.52ZM364.75 1224.52H423.25V1282.9H364.75V1224.52ZM3.25 1284.39H-55.25V1342.77H3.25V1284.39ZM4.74999 1284.39H63.25V1342.77H4.74999V1284.39ZM123.25 1284.39H64.75V1342.77H123.25V1284.39ZM124.75 1284.39H183.25V1342.77H124.75V1284.39ZM243.25 1284.39H184.75V1342.77H243.25V1284.39ZM244.75 1284.39H303.25V1342.77H244.75V1284.39ZM363.25 1284.39H304.75V1342.77H363.25V1284.39ZM364.75 1284.39H423.25V1342.77H364.75V1284.39ZM3.25 1344.26H-55.25V1402.63H3.25V1344.26ZM4.74999 1344.26H63.25V1402.63H4.74999V1344.26ZM123.25 1344.26H64.75V1402.63H123.25V1344.26ZM124.75 1344.26H183.25V1402.63H124.75V1344.26ZM243.25 1344.26H184.75V1402.63H243.25V1344.26ZM244.75 1344.26H303.25V1402.63H244.75V1344.26ZM363.25 1344.26H304.75V1402.63H363.25V1344.26ZM364.75 1344.26H423.25V1402.63H364.75V1344.26ZM3.25 1404.13H-55.25V1462.5H3.25V1404.13ZM4.74999 1404.13H63.25V1462.5H4.74999V1404.13ZM123.25 1404.13H64.75V1462.5H123.25V1404.13ZM124.75 1404.13H183.25V1462.5H124.75V1404.13ZM243.25 1404.13H184.75V1462.5H243.25V1404.13ZM244.75 1404.13H303.25V1462.5H244.75V1404.13ZM363.25 1404.13H304.75V1462.5H363.25V1404.13ZM364.75 1404.13H423.25V1462.5H364.75V1404.13Z" fill="url(#paint8_linear_101_1229)" fill-opacity="0.2"/>
<path fill-rule="evenodd" clip-rule="evenodd" d="M424 1044.17H904V1463.25H424V1044.17ZM424.75 1044.92H483.25V1103.29H424.75V1044.92ZM484.75 1044.92H543.25V1103.29H484.75V1044.92ZM603.25 1044.92H544.75V1103.29H603.25V1044.92ZM604.75 1044.92H663.25V1103.29H604.75V1044.92ZM723.25 1044.92H664.75V1103.29H723.25V1044.92ZM724.75 1044.92H783.25V1103.29H724.75V1044.92ZM843.25 1044.92H784.75V1103.29H843.25V1044.92ZM844.75 1044.92H903.25V1103.29H844.75V1044.92ZM483.25 1104.79H424.75V1163.16H483.25V1104.79ZM484.75 1104.79H543.25V1163.16H484.75V1104.79ZM603.25 1104.79H544.75V1163.16H603.25V1104.79ZM604.75 1104.79H663.25V1163.16H604.75V1104.79ZM723.25 1104.79H664.75V1163.16H723.25V1104.79ZM724.75 1104.79H783.25V1163.16H724.75V1104.79ZM843.25 1104.79H784.75V1163.16H843.25V1104.79ZM844.75 1104.79H903.25V1163.16H844.75V1104.79ZM483.25 1164.65H424.75V1223.03H483.25V1164.65ZM484.75 1164.65H543.25V1223.03H484.75V1164.65ZM603.25 1164.65H544.75V1223.03H603.25V1164.65ZM604.75 1164.65H663.25V1223.03H604.75V1164.65ZM723.25 1164.65H664.75V1223.03H723.25V1164.65ZM724.75 1164.65H783.25V1223.03H724.75V1164.65ZM843.25 1164.65H784.75V1223.03H843.25V1164.65ZM844.75 1164.65H903.25V1223.03H844.75V1164.65ZM483.25 1224.52H424.75V1282.9H483.25V1224.52ZM484.75 1224.52H543.25V1282.9H484.75V1224.52ZM603.25 1224.52H544.75V1282.9H603.25V1224.52ZM604.75 1224.52H663.25V1282.9H604.75V1224.52ZM723.25 1224.52H664.75V1282.9H723.25V1224.52ZM724.75 1224.52H783.25V1282.9H724.75V1224.52ZM843.25 1224.52H784.75V1282.9H843.25V1224.52ZM844.75 1224.52H903.25V1282.9H844.75V1224.52ZM483.25 1284.39H424.75V1342.77H483.25V1284.39ZM484.75 1284.39H543.25V1342.77H484.75V1284.39ZM603.25 1284.39H544.75V1342.77H603.25V1284.39ZM604.75 1284.39H663.25V1342.77H604.75V1284.39ZM723.25 1284.39H664.75V1342.77H723.25V1284.39ZM724.75 1284.39H783.25V1342.77H724.75V1284.39ZM843.25 1284.39H784.75V1342.77H843.25V1284.39ZM844.75 1284.39H903.25V1342.77H844.75V1284.39ZM483.25 1344.26H424.75V1402.63H483.25V1344.26ZM484.75 1344.26H543.25V1402.63H484.75V1344.26ZM603.25 1344.26H544.75V1402.63H603.25V1344.26ZM604.75 1344.26H663.25V1402.63H604.75V1344.26ZM723.25 1344.26H664.75V1402.63H723.25V1344.26ZM724.75 1344.26H783.25V1402.63H724.75V1344.26ZM843.25 1344.26H784.75V1402.63H843.25V1344.26ZM844.75 1344.26H903.25V1402.63H844.75V1344.26ZM483.25 1404.13H424.75V1462.5H483.25V1404.13ZM484.75 1404.13H543.25V1462.5H484.75V1404.13ZM603.25 1404.13H544.75V1462.5H603.25V1404.13ZM604.75 1404.13H663.25V1462.5H604.75V1404.13ZM723.25 1404.13H664.75V1462.5H723.25V1404.13ZM724.75 1404.13H783.25V1462.5H724.75V1404.13ZM843.25 1404.13H784.75V1462.5H843.25V1404.13ZM844.75 1404.13H903.25V1462.5H844.75V1404.13Z" fill="url(#paint9_linear_101_1229)" fill-opacity="0.2"/>
<path fill-rule="evenodd" clip-rule="evenodd" d="M904 1044.17H1384V1463.25H904V1044.17ZM904.75 1044.92H963.25V1103.29H904.75V1044.92ZM964.75 1044.92H1023.25V1103.29H964.75V1044.92ZM1083.25 1044.92H1024.75V1103.29H1083.25V1044.92ZM1084.75 1044.92H1143.25V1103.29H1084.75V1044.92ZM1203.25 1044.92H1144.75V1103.29H1203.25V1044.92ZM1204.75 1044.92H1263.25V1103.29H1204.75V1044.92ZM1323.25 1044.92H1264.75V1103.29H1323.25V1044.92ZM1324.75 1044.92H1383.25V1103.29H1324.75V1044.92ZM963.25 1104.79H904.75V1163.16H963.25V1104.79ZM964.75 1104.79H1023.25V1163.16H964.75V1104.79ZM1083.25 1104.79H1024.75V1163.16H1083.25V1104.79ZM1084.75 1104.79H1143.25V1163.16H1084.75V1104.79ZM1203.25 1104.79H1144.75V1163.16H1203.25V1104.79ZM1204.75 1104.79H1263.25V1163.16H1204.75V1104.79ZM1323.25 1104.79H1264.75V1163.16H1323.25V1104.79ZM1324.75 1104.79H1383.25V1163.16H1324.75V1104.79ZM963.25 1164.65H904.75V1223.03H963.25V1164.65ZM964.75 1164.65H1023.25V1223.03H964.75V1164.65ZM1083.25 1164.65H1024.75V1223.03H1083.25V1164.65ZM1084.75 1164.65H1143.25V1223.03H1084.75V1164.65ZM1203.25 1164.65H1144.75V1223.03H1203.25V1164.65ZM1204.75 1164.65H1263.25V1223.03H1204.75V1164.65ZM1323.25 1164.65H1264.75V1223.03H1323.25V1164.65ZM1324.75 1164.65H1383.25V1223.03H1324.75V1164.65ZM963.25 1224.52H904.75V1282.9H963.25V1224.52ZM964.75 1224.52H1023.25V1282.9H964.75V1224.52ZM1083.25 1224.52H1024.75V1282.9H1083.25V1224.52ZM1084.75 1224.52H1143.25V1282.9H1084.75V1224.52ZM1203.25 1224.52H1144.75V1282.9H1203.25V1224.52ZM1204.75 1224.52H1263.25V1282.9H1204.75V1224.52ZM1323.25 1224.52H1264.75V1282.9H1323.25V1224.52ZM1324.75 1224.52H1383.25V1282.9H1324.75V1224.52ZM963.25 1284.39H904.75V1342.77H963.25V1284.39ZM964.75 1284.39H1023.25V1342.77H964.75V1284.39ZM1083.25 1284.39H1024.75V1342.77H1083.25V1284.39ZM1084.75 1284.39H1143.25V1342.77H1084.75V1284.39ZM1203.25 1284.39H1144.75V1342.77H1203.25V1284.39ZM1204.75 1284.39H1263.25V1342.77H1204.75V1284.39ZM1323.25 1284.39H1264.75V1342.77H1323.25V1284.39ZM1324.75 1284.39H1383.25V1342.77H1324.75V1284.39ZM963.25 1344.26H904.75V1402.63H963.25V1344.26ZM964.75 1344.26H1023.25V1402.63H964.75V1344.26ZM1083.25 1344.26H1024.75V1402.63H1083.25V1344.26ZM1084.75 1344.26H1143.25V1402.63H1084.75V1344.26ZM1203.25 1344.26H1144.75V1402.63H1203.25V1344.26ZM1204.75 1344.26H1263.25V1402.63H1204.75V1344.26ZM1323.25 1344.26H1264.75V1402.63H1323.25V1344.26ZM1324.75 1344.26H1383.25V1402.63H1324.75V1344.26ZM963.25 1404.13H904.75V1462.5H963.25V1404.13ZM964.75 1404.13H1023.25V1462.5H964.75V1404.13ZM1083.25 1404.13H1024.75V1462.5H1083.25V1404.13ZM1084.75 1404.13H1143.25V1462.5H1084.75V1404.13ZM1203.25 1404.13H1144.75V1462.5H1203.25V1404.13ZM1204.75 1404.13H1263.25V1462.5H1204.75V1404.13ZM1323.25 1404.13H1264.75V1462.5H1323.25V1404.13ZM1324.75 1404.13H1383.25V1462.5H1324.75V1404.13Z" fill="url(#paint10_linear_101_1229)" fill-opacity="0.2"/>
<path fill-rule="evenodd" clip-rule="evenodd" d="M1384 1044.17H1864V1463.25H1384V1044.17ZM1384.75 1044.92H1443.25V1103.29H1384.75V1044.92ZM1444.75 1044.92H1503.25V1103.29H1444.75V1044.92ZM1563.25 1044.92H1504.75V1103.29H1563.25V1044.92ZM1564.75 1044.92H1623.25V1103.29H1564.75V1044.92ZM1683.25 1044.92H1624.75V1103.29H1683.25V1044.92ZM1684.75 1044.92H1743.25V1103.29H1684.75V1044.92ZM1803.25 1044.92H1744.75V1103.29H1803.25V1044.92ZM1804.75 1044.92H1863.25V1103.29H1804.75V1044.92ZM1443.25 1104.79H1384.75V1163.16H1443.25V1104.79ZM1444.75 1104.79H1503.25V1163.16H1444.75V1104.79ZM1563.25 1104.79H1504.75V1163.16H1563.25V1104.79ZM1564.75 1104.79H1623.25V1163.16H1564.75V1104.79ZM1683.25 1104.79H1624.75V1163.16H1683.25V1104.79ZM1684.75 1104.79H1743.25V1163.16H1684.75V1104.79ZM1803.25 1104.79H1744.75V1163.16H1803.25V1104.79ZM1804.75 1104.79H1863.25V1163.16H1804.75V1104.79ZM1443.25 1164.65H1384.75V1223.03H1443.25V1164.65ZM1444.75 1164.65H1503.25V1223.03H1444.75V1164.65ZM1563.25 1164.65H1504.75V1223.03H1563.25V1164.65ZM1564.75 1164.65H1623.25V1223.03H1564.75V1164.65ZM1683.25 1164.65H1624.75V1223.03H1683.25V1164.65ZM1684.75 1164.65H1743.25V1223.03H1684.75V1164.65ZM1803.25 1164.65H1744.75V1223.03H1803.25V1164.65ZM1804.75 1164.65H1863.25V1223.03H1804.75V1164.65ZM1443.25 1224.52H1384.75V1282.9H1443.25V1224.52ZM1444.75 1224.52H1503.25V1282.9H1444.75V1224.52ZM1563.25 1224.52H1504.75V1282.9H1563.25V1224.52ZM1564.75 1224.52H1623.25V1282.9H1564.75V1224.52ZM1683.25 1224.52H1624.75V1282.9H1683.25V1224.52ZM1684.75 1224.52H1743.25V1282.9H1684.75V1224.52ZM1803.25 1224.52H1744.75V1282.9H1803.25V1224.52ZM1804.75 1224.52H1863.25V1282.9H1804.75V1224.52ZM1443.25 1284.39H1384.75V1342.77H1443.25V1284.39ZM1444.75 1284.39H1503.25V1342.77H1444.75V1284.39ZM1563.25 1284.39H1504.75V1342.77H1563.25V1284.39ZM1564.75 1284.39H1623.25V1342.77H1564.75V1284.39ZM1683.25 1284.39H1624.75V1342.77H1683.25V1284.39ZM1684.75 1284.39H1743.25V1342.77H1684.75V1284.39ZM1803.25 1284.39H1744.75V1342.77H1803.25V1284.39ZM1804.75 1284.39H1863.25V1342.77H1804.75V1284.39ZM1443.25 1344.26H1384.75V1402.63H1443.25V1344.26ZM1444.75 1344.26H1503.25V1402.63H1444.75V1344.26ZM1563.25 1344.26H1504.75V1402.63H1563.25V1344.26ZM1564.75 1344.26H1623.25V1402.63H1564.75V1344.26ZM1683.25 1344.26H1624.75V1402.63H1683.25V1344.26ZM1684.75 1344.26H1743.25V1402.63H1684.75V1344.26ZM1803.25 1344.26H1744.75V1402.63H1803.25V1344.26ZM1804.75 1344.26H1863.25V1402.63H1804.75V1344.26ZM1443.25 1404.13H1384.75V1462.5H1443.25V1404.13ZM1444.75 1404.13H1503.25V1462.5H1444.75V1404.13ZM1563.25 1404.13H1504.75V1462.5H1563.25V1404.13ZM1564.75 1404.13H1623.25V1462.5H1564.75V1404.13ZM1683.25 1404.13H1624.75V1462.5H1683.25V1404.13ZM1684.75 1404.13H1743.25V1462.5H1684.75V1404.13ZM1803.25 1404.13H1744.75V1462.5H1803.25V1404.13ZM1804.75 1404.13H1863.25V1462.5H1804.75V1404.13Z" fill="url(#paint11_linear_101_1229)" fill-opacity="0.2"/>
</g>
<g opacity="0.05" filter="url(#filter0_f_101_1229)">
<circle cx="570.5" cy="570.5" r="570.5" transform="matrix(-1 0 0 1 1976 243)" fill="url(#paint12_linear_101_1229)"/>
</g>
<defs>
<filter id="filter0_f_101_1229" x="592.69" y="0.690475" width="1625.62" height="1625.62" filterUnits="userSpaceOnUse" color-interpolation-filters="sRGB">
<feFlood flood-opacity="0" result="BackgroundImageFix"/>
<feBlend mode="normal" in="SourceGraphic" in2="BackgroundImageFix" result="shape"/>
<feGaussianBlur stdDeviation="121.155" result="effect1_foregroundBlur_101_1229"/>
</filter>
<linearGradient id="paint0_linear_101_1229" x1="904" y1="206" x2="904.427" y2="1214.45" gradientUnits="userSpaceOnUse">
<stop offset="0.0765149" stop-color="white" stop-opacity="0"/>
<stop offset="0.488609" stop-color="white"/>
<stop offset="1" stop-color="white" stop-opacity="0"/>
</linearGradient>
<linearGradient id="paint1_linear_101_1229" x1="904" y1="206" x2="904.427" y2="1214.45" gradientUnits="userSpaceOnUse">
<stop offset="0.0765149" stop-color="white" stop-opacity="0"/>
<stop offset="0.488609" stop-color="white"/>
<stop offset="1" stop-color="white" stop-opacity="0"/>
</linearGradient>
<linearGradient id="paint2_linear_101_1229" x1="904" y1="206" x2="904.427" y2="1214.45" gradientUnits="userSpaceOnUse">
<stop offset="0.0765149" stop-color="white" stop-opacity="0"/>
<stop offset="0.488609" stop-color="white"/>
<stop offset="1" stop-color="white" stop-opacity="0"/>
</linearGradient>
<linearGradient id="paint3_linear_101_1229" x1="904" y1="206" x2="904.427" y2="1214.45" gradientUnits="userSpaceOnUse">
<stop offset="0.0765149" stop-color="white" stop-opacity="0"/>
<stop offset="0.488609" stop-color="white"/>
<stop offset="1" stop-color="white" stop-opacity="0"/>
</linearGradient>
<linearGradient id="paint4_linear_101_1229" x1="904" y1="206" x2="904.427" y2="1214.45" gradientUnits="userSpaceOnUse">
<stop offset="0.0765149" stop-color="white" stop-opacity="0"/>
<stop offset="0.488609" stop-color="white"/>
<stop offset="1" stop-color="white" stop-opacity="0"/>
</linearGradient>
<linearGradient id="paint5_linear_101_1229" x1="904" y1="206" x2="904.427" y2="1214.45" gradientUnits="userSpaceOnUse">
<stop offset="0.0765149" stop-color="white" stop-opacity="0"/>
<stop offset="0.488609" stop-color="white"/>
<stop offset="1" stop-color="white" stop-opacity="0"/>
</linearGradient>
<linearGradient id="paint6_linear_101_1229" x1="904" y1="206" x2="904.427" y2="1214.45" gradientUnits="userSpaceOnUse">
<stop offset="0.0765149" stop-color="white" stop-opacity="0"/>
<stop offset="0.488609" stop-color="white"/>
<stop offset="1" stop-color="white" stop-opacity="0"/>
</linearGradient>
<linearGradient id="paint7_linear_101_1229" x1="904" y1="206" x2="904.427" y2="1214.45" gradientUnits="userSpaceOnUse">
<stop offset="0.0765149" stop-color="white" stop-opacity="0"/>
<stop offset="0.488609" stop-color="white"/>
<stop offset="1" stop-color="white" stop-opacity="0"/>
</linearGradient>
<linearGradient id="paint8_linear_101_1229" x1="904" y1="206" x2="904.427" y2="1214.45" gradientUnits="userSpaceOnUse">
<stop offset="0.0765149" stop-color="white" stop-opacity="0"/>
<stop offset="0.488609" stop-color="white"/>
<stop offset="1" stop-color="white" stop-opacity="0"/>
</linearGradient>
<linearGradient id="paint9_linear_101_1229" x1="904" y1="206" x2="904.427" y2="1214.45" gradientUnits="userSpaceOnUse">
<stop offset="0.0765149" stop-color="white" stop-opacity="0"/>
<stop offset="0.488609" stop-color="white"/>
<stop offset="1" stop-color="white" stop-opacity="0"/>
</linearGradient>
<linearGradient id="paint10_linear_101_1229" x1="904" y1="206" x2="904.427" y2="1214.45" gradientUnits="userSpaceOnUse">
<stop offset="0.0765149" stop-color="white" stop-opacity="0"/>
<stop offset="0.488609" stop-color="white"/>
<stop offset="1" stop-color="white" stop-opacity="0"/>
</linearGradient>
<linearGradient id="paint11_linear_101_1229" x1="904" y1="206" x2="904.427" y2="1214.45" gradientUnits="userSpaceOnUse">
<stop offset="0.0765149" stop-color="white" stop-opacity="0"/>
<stop offset="0.488609" stop-color="white"/>
<stop offset="1" stop-color="white" stop-opacity="0"/>
</linearGradient>
<linearGradient id="paint12_linear_101_1229" x1="570.5" y1="0" x2="570.5" y2="1141" gradientUnits="userSpaceOnUse">
<stop stop-color="#201856"/>
<stop offset="1" stop-color="#006FFF"/>
</linearGradient>
</defs>
</svg>
