<svg width="22" height="22" viewBox="0 0 22 22" fill="none" xmlns="http://www.w3.org/2000/svg">
<path opacity="0.4" d="M19.2872 6.59087L11.0005 11.385L2.71387 6.59087C3.08053 5.91254 3.6122 5.31671 4.20803 4.98671L9.10303 2.27337C10.148 1.68671 11.853 1.68671 12.898 2.27337L17.793 4.98671C18.3889 5.31671 18.9205 5.91254 19.2872 6.59087Z" fill="#006FFF"/>
<path opacity="0.6" d="M11.0006 11.385V20.1667C10.3131 20.1667 9.62557 20.02 9.10307 19.7267L4.20807 17.0133C3.09891 16.3992 2.19141 14.8592 2.19141 13.5942V8.40582C2.19141 7.81915 2.39307 7.17749 2.71391 6.59082L11.0006 11.385Z" fill="#006FFF"/>
<path d="M19.8092 8.815V14.0033C19.8092 15.2683 18.9017 16.8083 17.7925 17.4225L12.8975 20.1358C12.375 20.4292 11.6875 20.5758 11 20.5758V11.7942L19.2867 7C19.6075 7.58667 19.8092 8.22833 19.8092 8.815Z" fill="#006FFF"/>
</svg>
