<svg width="24" height="24" viewBox="0 0 24 24" fill="none" xmlns="http://www.w3.org/2000/svg">
<path opacity="0.4" d="M4.16989 15.3L8.69989 19.83C10.5599 21.6901 13.5799 21.6901 15.4499 19.83L19.8399 15.44C21.6999 13.58 21.6999 10.56 19.8399 8.69005L15.2999 4.17005C14.3499 3.22005 13.0399 2.71005 11.6999 2.78005L6.69989 3.02005C4.69989 3.11005 3.10989 4.70005 3.00989 6.69005L2.76989 11.69C2.70989 13.04 3.21989 14.35 4.16989 15.3Z" fill="#006FFF"/>
<path d="M9.50012 12.38C11.0907 12.38 12.3801 11.0906 12.3801 9.5C12.3801 7.90942 11.0907 6.62 9.50012 6.62C7.90954 6.62 6.62012 7.90942 6.62012 9.5C6.62012 11.0906 7.90954 12.38 9.50012 12.38Z" fill="#006FFF"/>
<path d="M12.9999 17.7499C12.8099 17.7499 12.6199 17.6799 12.4699 17.5299C12.1799 17.2399 12.1799 16.7599 12.4699 16.4699L16.4699 12.4699C16.7599 12.1799 17.2399 12.1799 17.5299 12.4699C17.8199 12.7599 17.8199 13.2399 17.5299 13.5299L13.5299 17.5299C13.3799 17.6799 13.1899 17.7499 12.9999 17.7499Z" fill="#006FFF"/>
</svg>
