<svg width="1864" height="1258" viewBox="0 0 1864 1258" fill="none" xmlns="http://www.w3.org/2000/svg">
<g opacity="0.1">
<path fill-rule="evenodd" clip-rule="evenodd" d="M-56 0H424V419.084H-56V0ZM-55.25 0.748364H3.25V59.1208H-55.25V0.748364ZM4.74999 0.748364H63.25V59.1208H4.74999V0.748364ZM123.25 0.748364H64.75V59.1208H123.25V0.748364ZM124.75 0.748364H183.25V59.1208H124.75V0.748364ZM243.25 0.748364H184.75V59.1208H243.25V0.748364ZM244.75 0.748364H303.25V59.1208H244.75V0.748364ZM363.25 0.748364H304.75V59.1208H363.25V0.748364ZM364.75 0.748364H423.25V59.1208H364.75V0.748364ZM3.25 60.6175H-55.25V118.99H3.25V60.6175ZM4.74999 60.6175H63.25V118.99H4.74999V60.6175ZM123.25 60.6175H64.75V118.99H123.25V60.6175ZM124.75 60.6175H183.25V118.99H124.75V60.6175ZM243.25 60.6175H184.75V118.99H243.25V60.6175ZM244.75 60.6175H303.25V118.99H244.75V60.6175ZM363.25 60.6175H304.75V118.99H363.25V60.6175ZM364.75 60.6175H423.25V118.99H364.75V60.6175ZM3.25 120.487H-55.25V178.859H3.25V120.487ZM4.74999 120.487H63.25V178.859H4.74999V120.487ZM123.25 120.487H64.75V178.859H123.25V120.487ZM124.75 120.487H183.25V178.859H124.75V120.487ZM243.25 120.487H184.75V178.859H243.25V120.487ZM244.75 120.487H303.25V178.859H244.75V120.487ZM363.25 120.487H304.75V178.859H363.25V120.487ZM364.75 120.487H423.25V178.859H364.75V120.487ZM3.25 180.356H-55.25V238.728H3.25V180.356ZM4.74999 180.356H63.25V238.728H4.74999V180.356ZM123.25 180.356H64.75V238.728H123.25V180.356ZM124.75 180.356H183.25V238.728H124.75V180.356ZM243.25 180.356H184.75V238.728H243.25V180.356ZM244.75 180.356H303.25V238.728H244.75V180.356ZM363.25 180.356H304.75V238.728H363.25V180.356ZM364.75 180.356H423.25V238.728H364.75V180.356ZM3.25 240.225H-55.25V298.597H3.25V240.225ZM4.74999 240.225H63.25V298.597H4.74999V240.225ZM123.25 240.225H64.75V298.597H123.25V240.225ZM124.75 240.225H183.25V298.597H124.75V240.225ZM243.25 240.225H184.75V298.597H243.25V240.225ZM244.75 240.225H303.25V298.597H244.75V240.225ZM363.25 240.225H304.75V298.597H363.25V240.225ZM364.75 240.225H423.25V298.597H364.75V240.225ZM3.25 300.094H-55.25V358.466H3.25V300.094ZM4.74999 300.094H63.25V358.466H4.74999V300.094ZM123.25 300.094H64.75V358.466H123.25V300.094ZM124.75 300.094H183.25V358.466H124.75V300.094ZM243.25 300.094H184.75V358.466H243.25V300.094ZM244.75 300.094H303.25V358.466H244.75V300.094ZM363.25 300.094H304.75V358.466H363.25V300.094ZM364.75 300.094H423.25V358.466H364.75V300.094ZM3.25 359.963H-55.25V418.336H3.25V359.963ZM4.74999 359.963H63.25V418.336H4.74999V359.963ZM123.25 359.963H64.75V418.336H123.25V359.963ZM124.75 359.963H183.25V418.336H124.75V359.963ZM243.25 359.963H184.75V418.336H243.25V359.963ZM244.75 359.963H303.25V418.336H244.75V359.963ZM363.25 359.963H304.75V418.336H363.25V359.963ZM364.75 359.963H423.25V418.336H364.75V359.963Z" fill="url(#paint0_linear_101_1231)" fill-opacity="0.2"/>
<path fill-rule="evenodd" clip-rule="evenodd" d="M-56 419.084H424V838.168H-56V419.084ZM-55.25 419.832H3.25V478.205H-55.25V419.832ZM4.74999 419.832H63.25V478.205H4.74999V419.832ZM123.25 419.832H64.75V478.205H123.25V419.832ZM124.75 419.832H183.25V478.205H124.75V419.832ZM243.25 419.832H184.75V478.205H243.25V419.832ZM244.75 419.832H303.25V478.205H244.75V419.832ZM363.25 419.832H304.75V478.205H363.25V419.832ZM364.75 419.832H423.25V478.205H364.75V419.832ZM3.25 479.701H-55.25V538.074H3.25V479.701ZM4.74999 479.701H63.25V538.074H4.74999V479.701ZM123.25 479.701H64.75V538.074H123.25V479.701ZM124.75 479.701H183.25V538.074H124.75V479.701ZM243.25 479.701H184.75V538.074H243.25V479.701ZM244.75 479.701H303.25V538.074H244.75V479.701ZM363.25 479.701H304.75V538.074H363.25V479.701ZM364.75 479.701H423.25V538.074H364.75V479.701ZM3.25 539.57H-55.25V597.943H3.25V539.57ZM4.74999 539.57H63.25V597.943H4.74999V539.57ZM123.25 539.57H64.75V597.943H123.25V539.57ZM124.75 539.57H183.25V597.943H124.75V539.57ZM243.25 539.57H184.75V597.943H243.25V539.57ZM244.75 539.57H303.25V597.943H244.75V539.57ZM363.25 539.57H304.75V597.943H363.25V539.57ZM364.75 539.57H423.25V597.943H364.75V539.57ZM3.25 599.44H-55.25V657.812H3.25V599.44ZM4.74999 599.44H63.25V657.812H4.74999V599.44ZM123.25 599.44H64.75V657.812H123.25V599.44ZM124.75 599.44H183.25V657.812H124.75V599.44ZM243.25 599.44H184.75V657.812H243.25V599.44ZM244.75 599.44H303.25V657.812H244.75V599.44ZM363.25 599.44H304.75V657.812H363.25V599.44ZM364.75 599.44H423.25V657.812H364.75V599.44ZM3.25 659.309H-55.25V717.681H3.25V659.309ZM4.74999 659.309H63.25V717.681H4.74999V659.309ZM123.25 659.309H64.75V717.681H123.25V659.309ZM124.75 659.309H183.25V717.681H124.75V659.309ZM243.25 659.309H184.75V717.681H243.25V659.309ZM244.75 659.309H303.25V717.681H244.75V659.309ZM363.25 659.309H304.75V717.681H363.25V659.309ZM364.75 659.309H423.25V717.681H364.75V659.309ZM3.25 719.178H-55.25V777.55H3.25V719.178ZM4.74999 719.178H63.25V777.55H4.74999V719.178ZM123.25 719.178H64.75V777.55H123.25V719.178ZM124.75 719.178H183.25V777.55H124.75V719.178ZM243.25 719.178H184.75V777.55H243.25V719.178ZM244.75 719.178H303.25V777.55H244.75V719.178ZM363.25 719.178H304.75V777.55H363.25V719.178ZM364.75 719.178H423.25V777.55H364.75V719.178ZM3.25 779.047H-55.25V837.419H3.25V779.047ZM4.74999 779.047H63.25V837.419H4.74999V779.047ZM123.25 779.047H64.75V837.419H123.25V779.047ZM124.75 779.047H183.25V837.419H124.75V779.047ZM243.25 779.047H184.75V837.419H243.25V779.047ZM244.75 779.047H303.25V837.419H244.75V779.047ZM363.25 779.047H304.75V837.419H363.25V779.047ZM364.75 779.047H423.25V837.419H364.75V779.047Z" fill="url(#paint1_linear_101_1231)" fill-opacity="0.2"/>
<path fill-rule="evenodd" clip-rule="evenodd" d="M424 0H904V419.084H424V0ZM424.75 0.748364H483.25V59.1208H424.75V0.748364ZM484.75 0.748364H543.25V59.1208H484.75V0.748364ZM603.25 0.748364H544.75V59.1208H603.25V0.748364ZM604.75 0.748364H663.25V59.1208H604.75V0.748364ZM723.25 0.748364H664.75V59.1208H723.25V0.748364ZM724.75 0.748364H783.25V59.1208H724.75V0.748364ZM843.25 0.748364H784.75V59.1208H843.25V0.748364ZM844.75 0.748364H903.25V59.1208H844.75V0.748364ZM483.25 60.6175H424.75V118.99H483.25V60.6175ZM484.75 60.6175H543.25V118.99H484.75V60.6175ZM603.25 60.6175H544.75V118.99H603.25V60.6175ZM604.75 60.6175H663.25V118.99H604.75V60.6175ZM723.25 60.6175H664.75V118.99H723.25V60.6175ZM724.75 60.6175H783.25V118.99H724.75V60.6175ZM843.25 60.6175H784.75V118.99H843.25V60.6175ZM844.75 60.6175H903.25V118.99H844.75V60.6175ZM483.25 120.487H424.75V178.859H483.25V120.487ZM484.75 120.487H543.25V178.859H484.75V120.487ZM603.25 120.487H544.75V178.859H603.25V120.487ZM604.75 120.487H663.25V178.859H604.75V120.487ZM723.25 120.487H664.75V178.859H723.25V120.487ZM724.75 120.487H783.25V178.859H724.75V120.487ZM843.25 120.487H784.75V178.859H843.25V120.487ZM844.75 120.487H903.25V178.859H844.75V120.487ZM483.25 180.356H424.75V238.728H483.25V180.356ZM484.75 180.356H543.25V238.728H484.75V180.356ZM603.25 180.356H544.75V238.728H603.25V180.356ZM604.75 180.356H663.25V238.728H604.75V180.356ZM723.25 180.356H664.75V238.728H723.25V180.356ZM724.75 180.356H783.25V238.728H724.75V180.356ZM843.25 180.356H784.75V238.728H843.25V180.356ZM844.75 180.356H903.25V238.728H844.75V180.356ZM483.25 240.225H424.75V298.597H483.25V240.225ZM484.75 240.225H543.25V298.597H484.75V240.225ZM603.25 240.225H544.75V298.597H603.25V240.225ZM604.75 240.225H663.25V298.597H604.75V240.225ZM723.25 240.225H664.75V298.597H723.25V240.225ZM724.75 240.225H783.25V298.597H724.75V240.225ZM843.25 240.225H784.75V298.597H843.25V240.225ZM844.75 240.225H903.25V298.597H844.75V240.225ZM483.25 300.094H424.75V358.466H483.25V300.094ZM484.75 300.094H543.25V358.466H484.75V300.094ZM603.25 300.094H544.75V358.466H603.25V300.094ZM604.75 300.094H663.25V358.466H604.75V300.094ZM723.25 300.094H664.75V358.466H723.25V300.094ZM724.75 300.094H783.25V358.466H724.75V300.094ZM843.25 300.094H784.75V358.466H843.25V300.094ZM844.75 300.094H903.25V358.466H844.75V300.094ZM483.25 359.963H424.75V418.336H483.25V359.963ZM484.75 359.963H543.25V418.336H484.75V359.963ZM603.25 359.963H544.75V418.336H603.25V359.963ZM604.75 359.963H663.25V418.336H604.75V359.963ZM723.25 359.963H664.75V418.336H723.25V359.963ZM724.75 359.963H783.25V418.336H724.75V359.963ZM843.25 359.963H784.75V418.336H843.25V359.963ZM844.75 359.963H903.25V418.336H844.75V359.963Z" fill="url(#paint2_linear_101_1231)" fill-opacity="0.2"/>
<path fill-rule="evenodd" clip-rule="evenodd" d="M424 419.084H904V838.168H424V419.084ZM424.75 419.832H483.25V478.205H424.75V419.832ZM484.75 419.832H543.25V478.205H484.75V419.832ZM603.25 419.832H544.75V478.205H603.25V419.832ZM604.75 419.832H663.25V478.205H604.75V419.832ZM723.25 419.832H664.75V478.205H723.25V419.832ZM724.75 419.832H783.25V478.205H724.75V419.832ZM843.25 419.832H784.75V478.205H843.25V419.832ZM844.75 419.832H903.25V478.205H844.75V419.832ZM483.25 479.701H424.75V538.074H483.25V479.701ZM484.75 479.701H543.25V538.074H484.75V479.701ZM603.25 479.701H544.75V538.074H603.25V479.701ZM604.75 479.701H663.25V538.074H604.75V479.701ZM723.25 479.701H664.75V538.074H723.25V479.701ZM724.75 479.701H783.25V538.074H724.75V479.701ZM843.25 479.701H784.75V538.074H843.25V479.701ZM844.75 479.701H903.25V538.074H844.75V479.701ZM483.25 539.57H424.75V597.943H483.25V539.57ZM484.75 539.57H543.25V597.943H484.75V539.57ZM603.25 539.57H544.75V597.943H603.25V539.57ZM604.75 539.57H663.25V597.943H604.75V539.57ZM723.25 539.57H664.75V597.943H723.25V539.57ZM724.75 539.57H783.25V597.943H724.75V539.57ZM843.25 539.57H784.75V597.943H843.25V539.57ZM844.75 539.57H903.25V597.943H844.75V539.57ZM483.25 599.44H424.75V657.812H483.25V599.44ZM484.75 599.44H543.25V657.812H484.75V599.44ZM603.25 599.44H544.75V657.812H603.25V599.44ZM604.75 599.44H663.25V657.812H604.75V599.44ZM723.25 599.44H664.75V657.812H723.25V599.44ZM724.75 599.44H783.25V657.812H724.75V599.44ZM843.25 599.44H784.75V657.812H843.25V599.44ZM844.75 599.44H903.25V657.812H844.75V599.44ZM483.25 659.309H424.75V717.681H483.25V659.309ZM484.75 659.309H543.25V717.681H484.75V659.309ZM603.25 659.309H544.75V717.681H603.25V659.309ZM604.75 659.309H663.25V717.681H604.75V659.309ZM723.25 659.309H664.75V717.681H723.25V659.309ZM724.75 659.309H783.25V717.681H724.75V659.309ZM843.25 659.309H784.75V717.681H843.25V659.309ZM844.75 659.309H903.25V717.681H844.75V659.309ZM483.25 719.178H424.75V777.55H483.25V719.178ZM484.75 719.178H543.25V777.55H484.75V719.178ZM603.25 719.178H544.75V777.55H603.25V719.178ZM604.75 719.178H663.25V777.55H604.75V719.178ZM723.25 719.178H664.75V777.55H723.25V719.178ZM724.75 719.178H783.25V777.55H724.75V719.178ZM843.25 719.178H784.75V777.55H843.25V719.178ZM844.75 719.178H903.25V777.55H844.75V719.178ZM483.25 779.047H424.75V837.419H483.25V779.047ZM484.75 779.047H543.25V837.419H484.75V779.047ZM603.25 779.047H544.75V837.419H603.25V779.047ZM604.75 779.047H663.25V837.419H604.75V779.047ZM723.25 779.047H664.75V837.419H723.25V779.047ZM724.75 779.047H783.25V837.419H724.75V779.047ZM843.25 779.047H784.75V837.419H843.25V779.047ZM844.75 779.047H903.25V837.419H844.75V779.047Z" fill="url(#paint3_linear_101_1231)" fill-opacity="0.2"/>
<path fill-rule="evenodd" clip-rule="evenodd" d="M904 0H1384V419.084H904V0ZM904.75 0.748364H963.25V59.1208H904.75V0.748364ZM964.75 0.748364H1023.25V59.1208H964.75V0.748364ZM1083.25 0.748364H1024.75V59.1208H1083.25V0.748364ZM1084.75 0.748364H1143.25V59.1208H1084.75V0.748364ZM1203.25 0.748364H1144.75V59.1208H1203.25V0.748364ZM1204.75 0.748364H1263.25V59.1208H1204.75V0.748364ZM1323.25 0.748364H1264.75V59.1208H1323.25V0.748364ZM1324.75 0.748364H1383.25V59.1208H1324.75V0.748364ZM963.25 60.6175H904.75V118.99H963.25V60.6175ZM964.75 60.6175H1023.25V118.99H964.75V60.6175ZM1083.25 60.6175H1024.75V118.99H1083.25V60.6175ZM1084.75 60.6175H1143.25V118.99H1084.75V60.6175ZM1203.25 60.6175H1144.75V118.99H1203.25V60.6175ZM1204.75 60.6175H1263.25V118.99H1204.75V60.6175ZM1323.25 60.6175H1264.75V118.99H1323.25V60.6175ZM1324.75 60.6175H1383.25V118.99H1324.75V60.6175ZM963.25 120.487H904.75V178.859H963.25V120.487ZM964.75 120.487H1023.25V178.859H964.75V120.487ZM1083.25 120.487H1024.75V178.859H1083.25V120.487ZM1084.75 120.487H1143.25V178.859H1084.75V120.487ZM1203.25 120.487H1144.75V178.859H1203.25V120.487ZM1204.75 120.487H1263.25V178.859H1204.75V120.487ZM1323.25 120.487H1264.75V178.859H1323.25V120.487ZM1324.75 120.487H1383.25V178.859H1324.75V120.487ZM963.25 180.356H904.75V238.728H963.25V180.356ZM964.75 180.356H1023.25V238.728H964.75V180.356ZM1083.25 180.356H1024.75V238.728H1083.25V180.356ZM1084.75 180.356H1143.25V238.728H1084.75V180.356ZM1203.25 180.356H1144.75V238.728H1203.25V180.356ZM1204.75 180.356H1263.25V238.728H1204.75V180.356ZM1323.25 180.356H1264.75V238.728H1323.25V180.356ZM1324.75 180.356H1383.25V238.728H1324.75V180.356ZM963.25 240.225H904.75V298.597H963.25V240.225ZM964.75 240.225H1023.25V298.597H964.75V240.225ZM1083.25 240.225H1024.75V298.597H1083.25V240.225ZM1084.75 240.225H1143.25V298.597H1084.75V240.225ZM1203.25 240.225H1144.75V298.597H1203.25V240.225ZM1204.75 240.225H1263.25V298.597H1204.75V240.225ZM1323.25 240.225H1264.75V298.597H1323.25V240.225ZM1324.75 240.225H1383.25V298.597H1324.75V240.225ZM963.25 300.094H904.75V358.466H963.25V300.094ZM964.75 300.094H1023.25V358.466H964.75V300.094ZM1083.25 300.094H1024.75V358.466H1083.25V300.094ZM1084.75 300.094H1143.25V358.466H1084.75V300.094ZM1203.25 300.094H1144.75V358.466H1203.25V300.094ZM1204.75 300.094H1263.25V358.466H1204.75V300.094ZM1323.25 300.094H1264.75V358.466H1323.25V300.094ZM1324.75 300.094H1383.25V358.466H1324.75V300.094ZM963.25 359.963H904.75V418.336H963.25V359.963ZM964.75 359.963H1023.25V418.336H964.75V359.963ZM1083.25 359.963H1024.75V418.336H1083.25V359.963ZM1084.75 359.963H1143.25V418.336H1084.75V359.963ZM1203.25 359.963H1144.75V418.336H1203.25V359.963ZM1204.75 359.963H1263.25V418.336H1204.75V359.963ZM1323.25 359.963H1264.75V418.336H1323.25V359.963ZM1324.75 359.963H1383.25V418.336H1324.75V359.963Z" fill="url(#paint4_linear_101_1231)" fill-opacity="0.2"/>
<path fill-rule="evenodd" clip-rule="evenodd" d="M904 419.084H1384V838.168H904V419.084ZM904.75 419.832H963.25V478.205H904.75V419.832ZM964.75 419.832H1023.25V478.205H964.75V419.832ZM1083.25 419.832H1024.75V478.205H1083.25V419.832ZM1084.75 419.832H1143.25V478.205H1084.75V419.832ZM1203.25 419.832H1144.75V478.205H1203.25V419.832ZM1204.75 419.832H1263.25V478.205H1204.75V419.832ZM1323.25 419.832H1264.75V478.205H1323.25V419.832ZM1324.75 419.832H1383.25V478.205H1324.75V419.832ZM963.25 479.701H904.75V538.074H963.25V479.701ZM964.75 479.701H1023.25V538.074H964.75V479.701ZM1083.25 479.701H1024.75V538.074H1083.25V479.701ZM1084.75 479.701H1143.25V538.074H1084.75V479.701ZM1203.25 479.701H1144.75V538.074H1203.25V479.701ZM1204.75 479.701H1263.25V538.074H1204.75V479.701ZM1323.25 479.701H1264.75V538.074H1323.25V479.701ZM1324.75 479.701H1383.25V538.074H1324.75V479.701ZM963.25 539.57H904.75V597.943H963.25V539.57ZM964.75 539.57H1023.25V597.943H964.75V539.57ZM1083.25 539.57H1024.75V597.943H1083.25V539.57ZM1084.75 539.57H1143.25V597.943H1084.75V539.57ZM1203.25 539.57H1144.75V597.943H1203.25V539.57ZM1204.75 539.57H1263.25V597.943H1204.75V539.57ZM1323.25 539.57H1264.75V597.943H1323.25V539.57ZM1324.75 539.57H1383.25V597.943H1324.75V539.57ZM963.25 599.44H904.75V657.812H963.25V599.44ZM964.75 599.44H1023.25V657.812H964.75V599.44ZM1083.25 599.44H1024.75V657.812H1083.25V599.44ZM1084.75 599.44H1143.25V657.812H1084.75V599.44ZM1203.25 599.44H1144.75V657.812H1203.25V599.44ZM1204.75 599.44H1263.25V657.812H1204.75V599.44ZM1323.25 599.44H1264.75V657.812H1323.25V599.44ZM1324.75 599.44H1383.25V657.812H1324.75V599.44ZM963.25 659.309H904.75V717.681H963.25V659.309ZM964.75 659.309H1023.25V717.681H964.75V659.309ZM1083.25 659.309H1024.75V717.681H1083.25V659.309ZM1084.75 659.309H1143.25V717.681H1084.75V659.309ZM1203.25 659.309H1144.75V717.681H1203.25V659.309ZM1204.75 659.309H1263.25V717.681H1204.75V659.309ZM1323.25 659.309H1264.75V717.681H1323.25V659.309ZM1324.75 659.309H1383.25V717.681H1324.75V659.309ZM963.25 719.178H904.75V777.55H963.25V719.178ZM964.75 719.178H1023.25V777.55H964.75V719.178ZM1083.25 719.178H1024.75V777.55H1083.25V719.178ZM1084.75 719.178H1143.25V777.55H1084.75V719.178ZM1203.25 719.178H1144.75V777.55H1203.25V719.178ZM1204.75 719.178H1263.25V777.55H1204.75V719.178ZM1323.25 719.178H1264.75V777.55H1323.25V719.178ZM1324.75 719.178H1383.25V777.55H1324.75V719.178ZM963.25 779.047H904.75V837.419H963.25V779.047ZM964.75 779.047H1023.25V837.419H964.75V779.047ZM1083.25 779.047H1024.75V837.419H1083.25V779.047ZM1084.75 779.047H1143.25V837.419H1084.75V779.047ZM1203.25 779.047H1144.75V837.419H1203.25V779.047ZM1204.75 779.047H1263.25V837.419H1204.75V779.047ZM1323.25 779.047H1264.75V837.419H1323.25V779.047ZM1324.75 779.047H1383.25V837.419H1324.75V779.047Z" fill="url(#paint5_linear_101_1231)" fill-opacity="0.2"/>
<path fill-rule="evenodd" clip-rule="evenodd" d="M1384 0H1864V419.084H1384V0ZM1384.75 0.748364H1443.25V59.1208H1384.75V0.748364ZM1444.75 0.748364H1503.25V59.1208H1444.75V0.748364ZM1563.25 0.748364H1504.75V59.1208H1563.25V0.748364ZM1564.75 0.748364H1623.25V59.1208H1564.75V0.748364ZM1683.25 0.748364H1624.75V59.1208H1683.25V0.748364ZM1684.75 0.748364H1743.25V59.1208H1684.75V0.748364ZM1803.25 0.748364H1744.75V59.1208H1803.25V0.748364ZM1804.75 0.748364H1863.25V59.1208H1804.75V0.748364ZM1443.25 60.6175H1384.75V118.99H1443.25V60.6175ZM1444.75 60.6175H1503.25V118.99H1444.75V60.6175ZM1563.25 60.6175H1504.75V118.99H1563.25V60.6175ZM1564.75 60.6175H1623.25V118.99H1564.75V60.6175ZM1683.25 60.6175H1624.75V118.99H1683.25V60.6175ZM1684.75 60.6175H1743.25V118.99H1684.75V60.6175ZM1803.25 60.6175H1744.75V118.99H1803.25V60.6175ZM1804.75 60.6175H1863.25V118.99H1804.75V60.6175ZM1443.25 120.487H1384.75V178.859H1443.25V120.487ZM1444.75 120.487H1503.25V178.859H1444.75V120.487ZM1563.25 120.487H1504.75V178.859H1563.25V120.487ZM1564.75 120.487H1623.25V178.859H1564.75V120.487ZM1683.25 120.487H1624.75V178.859H1683.25V120.487ZM1684.75 120.487H1743.25V178.859H1684.75V120.487ZM1803.25 120.487H1744.75V178.859H1803.25V120.487ZM1804.75 120.487H1863.25V178.859H1804.75V120.487ZM1443.25 180.356H1384.75V238.728H1443.25V180.356ZM1444.75 180.356H1503.25V238.728H1444.75V180.356ZM1563.25 180.356H1504.75V238.728H1563.25V180.356ZM1564.75 180.356H1623.25V238.728H1564.75V180.356ZM1683.25 180.356H1624.75V238.728H1683.25V180.356ZM1684.75 180.356H1743.25V238.728H1684.75V180.356ZM1803.25 180.356H1744.75V238.728H1803.25V180.356ZM1804.75 180.356H1863.25V238.728H1804.75V180.356ZM1443.25 240.225H1384.75V298.597H1443.25V240.225ZM1444.75 240.225H1503.25V298.597H1444.75V240.225ZM1563.25 240.225H1504.75V298.597H1563.25V240.225ZM1564.75 240.225H1623.25V298.597H1564.75V240.225ZM1683.25 240.225H1624.75V298.597H1683.25V240.225ZM1684.75 240.225H1743.25V298.597H1684.75V240.225ZM1803.25 240.225H1744.75V298.597H1803.25V240.225ZM1804.75 240.225H1863.25V298.597H1804.75V240.225ZM1443.25 300.094H1384.75V358.466H1443.25V300.094ZM1444.75 300.094H1503.25V358.466H1444.75V300.094ZM1563.25 300.094H1504.75V358.466H1563.25V300.094ZM1564.75 300.094H1623.25V358.466H1564.75V300.094ZM1683.25 300.094H1624.75V358.466H1683.25V300.094ZM1684.75 300.094H1743.25V358.466H1684.75V300.094ZM1803.25 300.094H1744.75V358.466H1803.25V300.094ZM1804.75 300.094H1863.25V358.466H1804.75V300.094ZM1443.25 359.963H1384.75V418.336H1443.25V359.963ZM1444.75 359.963H1503.25V418.336H1444.75V359.963ZM1563.25 359.963H1504.75V418.336H1563.25V359.963ZM1564.75 359.963H1623.25V418.336H1564.75V359.963ZM1683.25 359.963H1624.75V418.336H1683.25V359.963ZM1684.75 359.963H1743.25V418.336H1684.75V359.963ZM1803.25 359.963H1744.75V418.336H1803.25V359.963ZM1804.75 359.963H1863.25V418.336H1804.75V359.963Z" fill="url(#paint6_linear_101_1231)" fill-opacity="0.2"/>
<path fill-rule="evenodd" clip-rule="evenodd" d="M1384 419.084H1864V838.168H1384V419.084ZM1384.75 419.832H1443.25V478.205H1384.75V419.832ZM1444.75 419.832H1503.25V478.205H1444.75V419.832ZM1563.25 419.832H1504.75V478.205H1563.25V419.832ZM1564.75 419.832H1623.25V478.205H1564.75V419.832ZM1683.25 419.832H1624.75V478.205H1683.25V419.832ZM1684.75 419.832H1743.25V478.205H1684.75V419.832ZM1803.25 419.832H1744.75V478.205H1803.25V419.832ZM1804.75 419.832H1863.25V478.205H1804.75V419.832ZM1443.25 479.701H1384.75V538.074H1443.25V479.701ZM1444.75 479.701H1503.25V538.074H1444.75V479.701ZM1563.25 479.701H1504.75V538.074H1563.25V479.701ZM1564.75 479.701H1623.25V538.074H1564.75V479.701ZM1683.25 479.701H1624.75V538.074H1683.25V479.701ZM1684.75 479.701H1743.25V538.074H1684.75V479.701ZM1803.25 479.701H1744.75V538.074H1803.25V479.701ZM1804.75 479.701H1863.25V538.074H1804.75V479.701ZM1443.25 539.57H1384.75V597.943H1443.25V539.57ZM1444.75 539.57H1503.25V597.943H1444.75V539.57ZM1563.25 539.57H1504.75V597.943H1563.25V539.57ZM1564.75 539.57H1623.25V597.943H1564.75V539.57ZM1683.25 539.57H1624.75V597.943H1683.25V539.57ZM1684.75 539.57H1743.25V597.943H1684.75V539.57ZM1803.25 539.57H1744.75V597.943H1803.25V539.57ZM1804.75 539.57H1863.25V597.943H1804.75V539.57ZM1443.25 599.44H1384.75V657.812H1443.25V599.44ZM1444.75 599.44H1503.25V657.812H1444.75V599.44ZM1563.25 599.44H1504.75V657.812H1563.25V599.44ZM1564.75 599.44H1623.25V657.812H1564.75V599.44ZM1683.25 599.44H1624.75V657.812H1683.25V599.44ZM1684.75 599.44H1743.25V657.812H1684.75V599.44ZM1803.25 599.44H1744.75V657.812H1803.25V599.44ZM1804.75 599.44H1863.25V657.812H1804.75V599.44ZM1443.25 659.309H1384.75V717.681H1443.25V659.309ZM1444.75 659.309H1503.25V717.681H1444.75V659.309ZM1563.25 659.309H1504.75V717.681H1563.25V659.309ZM1564.75 659.309H1623.25V717.681H1564.75V659.309ZM1683.25 659.309H1624.75V717.681H1683.25V659.309ZM1684.75 659.309H1743.25V717.681H1684.75V659.309ZM1803.25 659.309H1744.75V717.681H1803.25V659.309ZM1804.75 659.309H1863.25V717.681H1804.75V659.309ZM1443.25 719.178H1384.75V777.55H1443.25V719.178ZM1444.75 719.178H1503.25V777.55H1444.75V719.178ZM1563.25 719.178H1504.75V777.55H1563.25V719.178ZM1564.75 719.178H1623.25V777.55H1564.75V719.178ZM1683.25 719.178H1624.75V777.55H1683.25V719.178ZM1684.75 719.178H1743.25V777.55H1684.75V719.178ZM1803.25 719.178H1744.75V777.55H1803.25V719.178ZM1804.75 719.178H1863.25V777.55H1804.75V719.178ZM1443.25 779.047H1384.75V837.419H1443.25V779.047ZM1444.75 779.047H1503.25V837.419H1444.75V779.047ZM1563.25 779.047H1504.75V837.419H1563.25V779.047ZM1564.75 779.047H1623.25V837.419H1564.75V779.047ZM1683.25 779.047H1624.75V837.419H1683.25V779.047ZM1684.75 779.047H1743.25V837.419H1684.75V779.047ZM1803.25 779.047H1744.75V837.419H1803.25V779.047ZM1804.75 779.047H1863.25V837.419H1804.75V779.047Z" fill="url(#paint7_linear_101_1231)" fill-opacity="0.2"/>
<path fill-rule="evenodd" clip-rule="evenodd" d="M-56 838.168H424V1257.25H-56V838.168ZM-55.25 838.916H3.25V897.289H-55.25V838.916ZM4.74999 838.916H63.25V897.289H4.74999V838.916ZM123.25 838.916H64.75V897.289H123.25V838.916ZM124.75 838.916H183.25V897.289H124.75V838.916ZM243.25 838.916H184.75V897.289H243.25V838.916ZM244.75 838.916H303.25V897.289H244.75V838.916ZM363.25 838.916H304.75V897.289H363.25V838.916ZM364.75 838.916H423.25V897.289H364.75V838.916ZM3.25 898.785H-55.25V957.158H3.25V898.785ZM4.74999 898.785H63.25V957.158H4.74999V898.785ZM123.25 898.785H64.75V957.158H123.25V898.785ZM124.75 898.785H183.25V957.158H124.75V898.785ZM243.25 898.785H184.75V957.158H243.25V898.785ZM244.75 898.785H303.25V957.158H244.75V898.785ZM363.25 898.785H304.75V957.158H363.25V898.785ZM364.75 898.785H423.25V957.158H364.75V898.785ZM3.25 958.654H-55.25V1017.03H3.25V958.654ZM4.74999 958.654H63.25V1017.03H4.74999V958.654ZM123.25 958.654H64.75V1017.03H123.25V958.654ZM124.75 958.654H183.25V1017.03H124.75V958.654ZM243.25 958.654H184.75V1017.03H243.25V958.654ZM244.75 958.654H303.25V1017.03H244.75V958.654ZM363.25 958.654H304.75V1017.03H363.25V958.654ZM364.75 958.654H423.25V1017.03H364.75V958.654ZM3.25 1018.52H-55.25V1076.9H3.25V1018.52ZM4.74999 1018.52H63.25V1076.9H4.74999V1018.52ZM123.25 1018.52H64.75V1076.9H123.25V1018.52ZM124.75 1018.52H183.25V1076.9H124.75V1018.52ZM243.25 1018.52H184.75V1076.9H243.25V1018.52ZM244.75 1018.52H303.25V1076.9H244.75V1018.52ZM363.25 1018.52H304.75V1076.9H363.25V1018.52ZM364.75 1018.52H423.25V1076.9H364.75V1018.52ZM3.25 1078.39H-55.25V1136.77H3.25V1078.39ZM4.74999 1078.39H63.25V1136.77H4.74999V1078.39ZM123.25 1078.39H64.75V1136.77H123.25V1078.39ZM124.75 1078.39H183.25V1136.77H124.75V1078.39ZM243.25 1078.39H184.75V1136.77H243.25V1078.39ZM244.75 1078.39H303.25V1136.77H244.75V1078.39ZM363.25 1078.39H304.75V1136.77H363.25V1078.39ZM364.75 1078.39H423.25V1136.77H364.75V1078.39ZM3.25 1138.26H-55.25V1196.63H3.25V1138.26ZM4.74999 1138.26H63.25V1196.63H4.74999V1138.26ZM123.25 1138.26H64.75V1196.63H123.25V1138.26ZM124.75 1138.26H183.25V1196.63H124.75V1138.26ZM243.25 1138.26H184.75V1196.63H243.25V1138.26ZM244.75 1138.26H303.25V1196.63H244.75V1138.26ZM363.25 1138.26H304.75V1196.63H363.25V1138.26ZM364.75 1138.26H423.25V1196.63H364.75V1138.26ZM3.25 1198.13H-55.25V1256.5H3.25V1198.13ZM4.74999 1198.13H63.25V1256.5H4.74999V1198.13ZM123.25 1198.13H64.75V1256.5H123.25V1198.13ZM124.75 1198.13H183.25V1256.5H124.75V1198.13ZM243.25 1198.13H184.75V1256.5H243.25V1198.13ZM244.75 1198.13H303.25V1256.5H244.75V1198.13ZM363.25 1198.13H304.75V1256.5H363.25V1198.13ZM364.75 1198.13H423.25V1256.5H364.75V1198.13Z" fill="url(#paint8_linear_101_1231)" fill-opacity="0.2"/>
<path fill-rule="evenodd" clip-rule="evenodd" d="M424 838.168H904V1257.25H424V838.168ZM424.75 838.916H483.25V897.289H424.75V838.916ZM484.75 838.916H543.25V897.289H484.75V838.916ZM603.25 838.916H544.75V897.289H603.25V838.916ZM604.75 838.916H663.25V897.289H604.75V838.916ZM723.25 838.916H664.75V897.289H723.25V838.916ZM724.75 838.916H783.25V897.289H724.75V838.916ZM843.25 838.916H784.75V897.289H843.25V838.916ZM844.75 838.916H903.25V897.289H844.75V838.916ZM483.25 898.785H424.75V957.158H483.25V898.785ZM484.75 898.785H543.25V957.158H484.75V898.785ZM603.25 898.785H544.75V957.158H603.25V898.785ZM604.75 898.785H663.25V957.158H604.75V898.785ZM723.25 898.785H664.75V957.158H723.25V898.785ZM724.75 898.785H783.25V957.158H724.75V898.785ZM843.25 898.785H784.75V957.158H843.25V898.785ZM844.75 898.785H903.25V957.158H844.75V898.785ZM483.25 958.654H424.75V1017.03H483.25V958.654ZM484.75 958.654H543.25V1017.03H484.75V958.654ZM603.25 958.654H544.75V1017.03H603.25V958.654ZM604.75 958.654H663.25V1017.03H604.75V958.654ZM723.25 958.654H664.75V1017.03H723.25V958.654ZM724.75 958.654H783.25V1017.03H724.75V958.654ZM843.25 958.654H784.75V1017.03H843.25V958.654ZM844.75 958.654H903.25V1017.03H844.75V958.654ZM483.25 1018.52H424.75V1076.9H483.25V1018.52ZM484.75 1018.52H543.25V1076.9H484.75V1018.52ZM603.25 1018.52H544.75V1076.9H603.25V1018.52ZM604.75 1018.52H663.25V1076.9H604.75V1018.52ZM723.25 1018.52H664.75V1076.9H723.25V1018.52ZM724.75 1018.52H783.25V1076.9H724.75V1018.52ZM843.25 1018.52H784.75V1076.9H843.25V1018.52ZM844.75 1018.52H903.25V1076.9H844.75V1018.52ZM483.25 1078.39H424.75V1136.77H483.25V1078.39ZM484.75 1078.39H543.25V1136.77H484.75V1078.39ZM603.25 1078.39H544.75V1136.77H603.25V1078.39ZM604.75 1078.39H663.25V1136.77H604.75V1078.39ZM723.25 1078.39H664.75V1136.77H723.25V1078.39ZM724.75 1078.39H783.25V1136.77H724.75V1078.39ZM843.25 1078.39H784.75V1136.77H843.25V1078.39ZM844.75 1078.39H903.25V1136.77H844.75V1078.39ZM483.25 1138.26H424.75V1196.63H483.25V1138.26ZM484.75 1138.26H543.25V1196.63H484.75V1138.26ZM603.25 1138.26H544.75V1196.63H603.25V1138.26ZM604.75 1138.26H663.25V1196.63H604.75V1138.26ZM723.25 1138.26H664.75V1196.63H723.25V1138.26ZM724.75 1138.26H783.25V1196.63H724.75V1138.26ZM843.25 1138.26H784.75V1196.63H843.25V1138.26ZM844.75 1138.26H903.25V1196.63H844.75V1138.26ZM483.25 1198.13H424.75V1256.5H483.25V1198.13ZM484.75 1198.13H543.25V1256.5H484.75V1198.13ZM603.25 1198.13H544.75V1256.5H603.25V1198.13ZM604.75 1198.13H663.25V1256.5H604.75V1198.13ZM723.25 1198.13H664.75V1256.5H723.25V1198.13ZM724.75 1198.13H783.25V1256.5H724.75V1198.13ZM843.25 1198.13H784.75V1256.5H843.25V1198.13ZM844.75 1198.13H903.25V1256.5H844.75V1198.13Z" fill="url(#paint9_linear_101_1231)" fill-opacity="0.2"/>
<path fill-rule="evenodd" clip-rule="evenodd" d="M904 838.168H1384V1257.25H904V838.168ZM904.75 838.916H963.25V897.289H904.75V838.916ZM964.75 838.916H1023.25V897.289H964.75V838.916ZM1083.25 838.916H1024.75V897.289H1083.25V838.916ZM1084.75 838.916H1143.25V897.289H1084.75V838.916ZM1203.25 838.916H1144.75V897.289H1203.25V838.916ZM1204.75 838.916H1263.25V897.289H1204.75V838.916ZM1323.25 838.916H1264.75V897.289H1323.25V838.916ZM1324.75 838.916H1383.25V897.289H1324.75V838.916ZM963.25 898.785H904.75V957.158H963.25V898.785ZM964.75 898.785H1023.25V957.158H964.75V898.785ZM1083.25 898.785H1024.75V957.158H1083.25V898.785ZM1084.75 898.785H1143.25V957.158H1084.75V898.785ZM1203.25 898.785H1144.75V957.158H1203.25V898.785ZM1204.75 898.785H1263.25V957.158H1204.75V898.785ZM1323.25 898.785H1264.75V957.158H1323.25V898.785ZM1324.75 898.785H1383.25V957.158H1324.75V898.785ZM963.25 958.654H904.75V1017.03H963.25V958.654ZM964.75 958.654H1023.25V1017.03H964.75V958.654ZM1083.25 958.654H1024.75V1017.03H1083.25V958.654ZM1084.75 958.654H1143.25V1017.03H1084.75V958.654ZM1203.25 958.654H1144.75V1017.03H1203.25V958.654ZM1204.75 958.654H1263.25V1017.03H1204.75V958.654ZM1323.25 958.654H1264.75V1017.03H1323.25V958.654ZM1324.75 958.654H1383.25V1017.03H1324.75V958.654ZM963.25 1018.52H904.75V1076.9H963.25V1018.52ZM964.75 1018.52H1023.25V1076.9H964.75V1018.52ZM1083.25 1018.52H1024.75V1076.9H1083.25V1018.52ZM1084.75 1018.52H1143.25V1076.9H1084.75V1018.52ZM1203.25 1018.52H1144.75V1076.9H1203.25V1018.52ZM1204.75 1018.52H1263.25V1076.9H1204.75V1018.52ZM1323.25 1018.52H1264.75V1076.9H1323.25V1018.52ZM1324.75 1018.52H1383.25V1076.9H1324.75V1018.52ZM963.25 1078.39H904.75V1136.77H963.25V1078.39ZM964.75 1078.39H1023.25V1136.77H964.75V1078.39ZM1083.25 1078.39H1024.75V1136.77H1083.25V1078.39ZM1084.75 1078.39H1143.25V1136.77H1084.75V1078.39ZM1203.25 1078.39H1144.75V1136.77H1203.25V1078.39ZM1204.75 1078.39H1263.25V1136.77H1204.75V1078.39ZM1323.25 1078.39H1264.75V1136.77H1323.25V1078.39ZM1324.75 1078.39H1383.25V1136.77H1324.75V1078.39ZM963.25 1138.26H904.75V1196.63H963.25V1138.26ZM964.75 1138.26H1023.25V1196.63H964.75V1138.26ZM1083.25 1138.26H1024.75V1196.63H1083.25V1138.26ZM1084.75 1138.26H1143.25V1196.63H1084.75V1138.26ZM1203.25 1138.26H1144.75V1196.63H1203.25V1138.26ZM1204.75 1138.26H1263.25V1196.63H1204.75V1138.26ZM1323.25 1138.26H1264.75V1196.63H1323.25V1138.26ZM1324.75 1138.26H1383.25V1196.63H1324.75V1138.26ZM963.25 1198.13H904.75V1256.5H963.25V1198.13ZM964.75 1198.13H1023.25V1256.5H964.75V1198.13ZM1083.25 1198.13H1024.75V1256.5H1083.25V1198.13ZM1084.75 1198.13H1143.25V1256.5H1084.75V1198.13ZM1203.25 1198.13H1144.75V1256.5H1203.25V1198.13ZM1204.75 1198.13H1263.25V1256.5H1204.75V1198.13ZM1323.25 1198.13H1264.75V1256.5H1323.25V1198.13ZM1324.75 1198.13H1383.25V1256.5H1324.75V1198.13Z" fill="url(#paint10_linear_101_1231)" fill-opacity="0.2"/>
<path fill-rule="evenodd" clip-rule="evenodd" d="M1384 838.168H1864V1257.25H1384V838.168ZM1384.75 838.916H1443.25V897.289H1384.75V838.916ZM1444.75 838.916H1503.25V897.289H1444.75V838.916ZM1563.25 838.916H1504.75V897.289H1563.25V838.916ZM1564.75 838.916H1623.25V897.289H1564.75V838.916ZM1683.25 838.916H1624.75V897.289H1683.25V838.916ZM1684.75 838.916H1743.25V897.289H1684.75V838.916ZM1803.25 838.916H1744.75V897.289H1803.25V838.916ZM1804.75 838.916H1863.25V897.289H1804.75V838.916ZM1443.25 898.785H1384.75V957.158H1443.25V898.785ZM1444.75 898.785H1503.25V957.158H1444.75V898.785ZM1563.25 898.785H1504.75V957.158H1563.25V898.785ZM1564.75 898.785H1623.25V957.158H1564.75V898.785ZM1683.25 898.785H1624.75V957.158H1683.25V898.785ZM1684.75 898.785H1743.25V957.158H1684.75V898.785ZM1803.25 898.785H1744.75V957.158H1803.25V898.785ZM1804.75 898.785H1863.25V957.158H1804.75V898.785ZM1443.25 958.654H1384.75V1017.03H1443.25V958.654ZM1444.75 958.654H1503.25V1017.03H1444.75V958.654ZM1563.25 958.654H1504.75V1017.03H1563.25V958.654ZM1564.75 958.654H1623.25V1017.03H1564.75V958.654ZM1683.25 958.654H1624.75V1017.03H1683.25V958.654ZM1684.75 958.654H1743.25V1017.03H1684.75V958.654ZM1803.25 958.654H1744.75V1017.03H1803.25V958.654ZM1804.75 958.654H1863.25V1017.03H1804.75V958.654ZM1443.25 1018.52H1384.75V1076.9H1443.25V1018.52ZM1444.75 1018.52H1503.25V1076.9H1444.75V1018.52ZM1563.25 1018.52H1504.75V1076.9H1563.25V1018.52ZM1564.75 1018.52H1623.25V1076.9H1564.75V1018.52ZM1683.25 1018.52H1624.75V1076.9H1683.25V1018.52ZM1684.75 1018.52H1743.25V1076.9H1684.75V1018.52ZM1803.25 1018.52H1744.75V1076.9H1803.25V1018.52ZM1804.75 1018.52H1863.25V1076.9H1804.75V1018.52ZM1443.25 1078.39H1384.75V1136.77H1443.25V1078.39ZM1444.75 1078.39H1503.25V1136.77H1444.75V1078.39ZM1563.25 1078.39H1504.75V1136.77H1563.25V1078.39ZM1564.75 1078.39H1623.25V1136.77H1564.75V1078.39ZM1683.25 1078.39H1624.75V1136.77H1683.25V1078.39ZM1684.75 1078.39H1743.25V1136.77H1684.75V1078.39ZM1803.25 1078.39H1744.75V1136.77H1803.25V1078.39ZM1804.75 1078.39H1863.25V1136.77H1804.75V1078.39ZM1443.25 1138.26H1384.75V1196.63H1443.25V1138.26ZM1444.75 1138.26H1503.25V1196.63H1444.75V1138.26ZM1563.25 1138.26H1504.75V1196.63H1563.25V1138.26ZM1564.75 1138.26H1623.25V1196.63H1564.75V1138.26ZM1683.25 1138.26H1624.75V1196.63H1683.25V1138.26ZM1684.75 1138.26H1743.25V1196.63H1684.75V1138.26ZM1803.25 1138.26H1744.75V1196.63H1803.25V1138.26ZM1804.75 1138.26H1863.25V1196.63H1804.75V1138.26ZM1443.25 1198.13H1384.75V1256.5H1443.25V1198.13ZM1444.75 1198.13H1503.25V1256.5H1444.75V1198.13ZM1563.25 1198.13H1504.75V1256.5H1563.25V1198.13ZM1564.75 1198.13H1623.25V1256.5H1564.75V1198.13ZM1683.25 1198.13H1624.75V1256.5H1683.25V1198.13ZM1684.75 1198.13H1743.25V1256.5H1684.75V1198.13ZM1803.25 1198.13H1744.75V1256.5H1803.25V1198.13ZM1804.75 1198.13H1863.25V1256.5H1804.75V1198.13Z" fill="url(#paint11_linear_101_1231)" fill-opacity="0.2"/>
</g>
<defs>
<linearGradient id="paint0_linear_101_1231" x1="904" y1="9.47519e-09" x2="904.427" y2="1008.45" gradientUnits="userSpaceOnUse">
<stop offset="0.0765149" stop-color="white" stop-opacity="0"/>
<stop offset="0.488609" stop-color="white"/>
<stop offset="1" stop-color="white" stop-opacity="0"/>
</linearGradient>
<linearGradient id="paint1_linear_101_1231" x1="904" y1="9.47519e-09" x2="904.427" y2="1008.45" gradientUnits="userSpaceOnUse">
<stop offset="0.0765149" stop-color="white" stop-opacity="0"/>
<stop offset="0.488609" stop-color="white"/>
<stop offset="1" stop-color="white" stop-opacity="0"/>
</linearGradient>
<linearGradient id="paint2_linear_101_1231" x1="904" y1="9.47519e-09" x2="904.427" y2="1008.45" gradientUnits="userSpaceOnUse">
<stop offset="0.0765149" stop-color="white" stop-opacity="0"/>
<stop offset="0.488609" stop-color="white"/>
<stop offset="1" stop-color="white" stop-opacity="0"/>
</linearGradient>
<linearGradient id="paint3_linear_101_1231" x1="904" y1="9.47519e-09" x2="904.427" y2="1008.45" gradientUnits="userSpaceOnUse">
<stop offset="0.0765149" stop-color="white" stop-opacity="0"/>
<stop offset="0.488609" stop-color="white"/>
<stop offset="1" stop-color="white" stop-opacity="0"/>
</linearGradient>
<linearGradient id="paint4_linear_101_1231" x1="904" y1="9.47519e-09" x2="904.427" y2="1008.45" gradientUnits="userSpaceOnUse">
<stop offset="0.0765149" stop-color="white" stop-opacity="0"/>
<stop offset="0.488609" stop-color="white"/>
<stop offset="1" stop-color="white" stop-opacity="0"/>
</linearGradient>
<linearGradient id="paint5_linear_101_1231" x1="904" y1="9.47519e-09" x2="904.427" y2="1008.45" gradientUnits="userSpaceOnUse">
<stop offset="0.0765149" stop-color="white" stop-opacity="0"/>
<stop offset="0.488609" stop-color="white"/>
<stop offset="1" stop-color="white" stop-opacity="0"/>
</linearGradient>
<linearGradient id="paint6_linear_101_1231" x1="904" y1="9.47519e-09" x2="904.427" y2="1008.45" gradientUnits="userSpaceOnUse">
<stop offset="0.0765149" stop-color="white" stop-opacity="0"/>
<stop offset="0.488609" stop-color="white"/>
<stop offset="1" stop-color="white" stop-opacity="0"/>
</linearGradient>
<linearGradient id="paint7_linear_101_1231" x1="904" y1="9.47519e-09" x2="904.427" y2="1008.45" gradientUnits="userSpaceOnUse">
<stop offset="0.0765149" stop-color="white" stop-opacity="0"/>
<stop offset="0.488609" stop-color="white"/>
<stop offset="1" stop-color="white" stop-opacity="0"/>
</linearGradient>
<linearGradient id="paint8_linear_101_1231" x1="904" y1="9.47519e-09" x2="904.427" y2="1008.45" gradientUnits="userSpaceOnUse">
<stop offset="0.0765149" stop-color="white" stop-opacity="0"/>
<stop offset="0.488609" stop-color="white"/>
<stop offset="1" stop-color="white" stop-opacity="0"/>
</linearGradient>
<linearGradient id="paint9_linear_101_1231" x1="904" y1="9.47519e-09" x2="904.427" y2="1008.45" gradientUnits="userSpaceOnUse">
<stop offset="0.0765149" stop-color="white" stop-opacity="0"/>
<stop offset="0.488609" stop-color="white"/>
<stop offset="1" stop-color="white" stop-opacity="0"/>
</linearGradient>
<linearGradient id="paint10_linear_101_1231" x1="904" y1="9.47519e-09" x2="904.427" y2="1008.45" gradientUnits="userSpaceOnUse">
<stop offset="0.0765149" stop-color="white" stop-opacity="0"/>
<stop offset="0.488609" stop-color="white"/>
<stop offset="1" stop-color="white" stop-opacity="0"/>
</linearGradient>
<linearGradient id="paint11_linear_101_1231" x1="904" y1="9.47519e-09" x2="904.427" y2="1008.45" gradientUnits="userSpaceOnUse">
<stop offset="0.0765149" stop-color="white" stop-opacity="0"/>
<stop offset="0.488609" stop-color="white"/>
<stop offset="1" stop-color="white" stop-opacity="0"/>
</linearGradient>
</defs>
</svg>
