<svg width="17" height="17" viewBox="0 0 17 17" fill="none" xmlns="http://www.w3.org/2000/svg">
<path d="M10.9013 3.69041L11.9001 5.68791C12.0347 5.96416 12.3959 6.22624 12.7005 6.28291L14.5068 6.58041C15.6613 6.77166 15.9305 7.60749 15.1018 8.44332L13.6922 9.85291C13.4584 10.0867 13.3238 10.5471 13.4018 10.88L13.8055 12.6225C14.1242 13.9967 13.3876 14.535 12.1763 13.8125L10.4834 12.8067C10.1788 12.6225 9.66884 12.6225 9.36425 12.8067L7.67133 13.8125C6.46008 14.5279 5.72342 13.9967 6.04217 12.6225L6.44592 10.88C6.52384 10.5542 6.38926 10.0937 6.15551 9.85291L4.74593 8.44332C3.91718 7.61457 4.18634 6.77874 5.34093 6.58041L7.14717 6.28291C7.45175 6.23332 7.813 5.96416 7.94759 5.68791L8.94634 3.69041C9.47759 2.60666 10.3559 2.60666 10.9013 3.69041Z" fill="white"/>
<path opacity="0.4" d="M5.6665 4.07291H1.4165C1.12609 4.07291 0.885254 3.83207 0.885254 3.54166C0.885254 3.25124 1.12609 3.01041 1.4165 3.01041H5.6665C5.95692 3.01041 6.19775 3.25124 6.19775 3.54166C6.19775 3.83207 5.95692 4.07291 5.6665 4.07291Z" fill="white"/>
<path opacity="0.4" d="M3.5415 13.9896H1.4165C1.12609 13.9896 0.885254 13.7488 0.885254 13.4583C0.885254 13.1679 1.12609 12.9271 1.4165 12.9271H3.5415C3.83192 12.9271 4.07275 13.1679 4.07275 13.4583C4.07275 13.7488 3.83192 13.9896 3.5415 13.9896Z" fill="white"/>
<path opacity="0.4" d="M2.12484 9.03125H1.4165C1.12609 9.03125 0.885254 8.79042 0.885254 8.5C0.885254 8.20958 1.12609 7.96875 1.4165 7.96875H2.12484C2.41525 7.96875 2.65609 8.20958 2.65609 8.5C2.65609 8.79042 2.41525 9.03125 2.12484 9.03125Z" fill="white"/>
</svg>
