<svg width="14" height="14" viewBox="0 0 14 14" fill="none" xmlns="http://www.w3.org/2000/svg">
<path opacity="0.4" d="M12.6292 5.85083C12.4017 5.52416 11.9992 5.3375 11.5383 5.3375H9.14668C8.98918 5.3375 8.84335 5.27333 8.74418 5.15666C8.63918 5.04 8.59835 4.87666 8.62168 4.7075L8.91918 2.79416C9.04751 2.2225 8.66835 1.58083 8.09668 1.38833C7.56585 1.19 6.94168 1.45833 6.69085 1.8375L4.22918 5.495L4.15918 5.61166V10.7683L4.24668 10.8558L6.09585 12.285C6.34085 12.53 6.89501 12.6642 7.28585 12.6642H9.56085C10.3425 12.6642 11.13 12.075 11.305 11.3575L12.74 6.98833C12.8917 6.57416 12.8508 6.17166 12.6292 5.85083Z" fill="white"/>
<path d="M3.039 3.72168H2.43817C1.534 3.72168 1.1665 4.07168 1.1665 4.93501V10.8033C1.1665 11.6667 1.534 12.0167 2.43817 12.0167H3.039C3.94317 12.0167 4.31067 11.6667 4.31067 10.8033V4.93501C4.31067 4.07168 3.94317 3.72168 3.039 3.72168Z" fill="white"/>
</svg>
