<svg width="15" height="15" viewBox="0 0 15 15" fill="none" xmlns="http://www.w3.org/2000/svg">
<path opacity="0.4" d="M2.60649 9.5625L5.43774 12.3938C6.60024 13.5563 8.48774 13.5563 9.65649 12.3938L12.4002 9.65C13.5627 8.4875 13.5627 6.6 12.4002 5.43125L9.56274 2.60625C8.96899 2.0125 8.15024 1.69375 7.31274 1.7375L4.18774 1.8875C2.93774 1.94375 1.94399 2.9375 1.88149 4.18125L1.73149 7.30625C1.69399 8.15 2.01274 8.96875 2.60649 9.5625Z" fill="white"/>
<path d="M5.9377 7.73751C6.93181 7.73751 7.7377 6.93162 7.7377 5.93751C7.7377 4.9434 6.93181 4.13751 5.9377 4.13751C4.94358 4.13751 4.1377 4.9434 4.1377 5.93751C4.1377 6.93162 4.94358 7.73751 5.9377 7.73751Z" fill="white"/>
<path d="M8.1249 11.0937C8.00615 11.0937 7.8874 11.05 7.79365 10.9562C7.6124 10.775 7.6124 10.475 7.79365 10.2937L10.2937 7.79374C10.4749 7.61249 10.7749 7.61249 10.9562 7.79374C11.1374 7.97499 11.1374 8.27499 10.9562 8.45624L8.45615 10.9562C8.3624 11.05 8.24365 11.0937 8.1249 11.0937Z" fill="white"/>
</svg>
