<svg width="13" height="13" viewBox="0 0 13 13" fill="none" xmlns="http://www.w3.org/2000/svg">
<path d="M11.9167 3.25001V4.56084C11.9167 5.41668 11.3751 5.95834 10.5192 5.95834H8.66675V2.17209C8.66675 1.57084 9.15966 1.08334 9.76091 1.08334C10.3513 1.08876 10.893 1.32709 11.283 1.71709C11.673 2.11251 11.9167 2.65418 11.9167 3.25001Z" fill="white"/>
<path opacity="0.4" d="M1.08325 3.79168V11.375C1.08325 11.8246 1.59242 12.0792 1.94992 11.8083L2.87617 11.115C3.09283 10.9525 3.39617 10.9742 3.59117 11.1692L4.49034 12.0738C4.70159 12.285 5.04825 12.285 5.2595 12.0738L6.1695 11.1638C6.35908 10.9742 6.66242 10.9525 6.87367 11.115L7.79992 11.8083C8.15742 12.0738 8.66658 11.8192 8.66658 11.375V2.16668C8.66658 1.57084 9.15408 1.08334 9.74992 1.08334H3.79159H3.24992C1.62492 1.08334 1.08325 2.05293 1.08325 3.25001V3.79168Z" fill="white"/>
<path d="M6.36466 5.82291H3.3855C3.16341 5.82291 2.97925 5.63874 2.97925 5.41666C2.97925 5.19457 3.16341 5.01041 3.3855 5.01041H6.36466C6.58675 5.01041 6.77091 5.19457 6.77091 5.41666C6.77091 5.63874 6.58675 5.82291 6.36466 5.82291Z" fill="white"/>
</svg>
