<svg width="556" height="119" viewBox="0 0 556 119" fill="none" xmlns="http://www.w3.org/2000/svg">
  <g style="mix-blend-mode:screen" opacity="0.35">
  <path d="M165.454 155.993C163.372 155.924 161.335 155.36 159.449 154.348C153.49 150.54 151.086 143.626 147.289 137.69L141.469 139.531L131.495 128.476L120.13 129.097L112.917 124.795L107.936 127.211L104.611 131.812L99.6186 128.131L95.1782 129.971L92.1183 126.29L93.5102 116.811L84.1002 114.396L83.8126 108.874L85.9868 108L86.8611 107.631L87.2062 105.124L87.9655 99.648L80.2006 100.269L78.8086 108.563L73.8275 109.771L68.835 104.549L69.6632 93.1945L78.2564 83.3589L91.0024 82.151L96.2366 82.4501L97.3409 87.0515L97.0533 92.2742C97.0533 92.2742 99.2735 94.1262 100.113 93.8041C100.953 93.4935 101.494 91.6645 101.494 91.6645L100.412 79.3556L102.897 75.732C105.439 71.9818 109.811 72.6835 112.94 70.2218C116.908 67.1158 116.759 63.9293 117.311 58.8332C117.311 58.8332 119.531 55.4626 121.752 54.8415C128.458 52.9779 134.981 49.5268 141.687 47.3871C143.068 47.1341 144.345 46.3403 145.299 45.1554C147.393 41.8079 139.686 36.9189 137.834 35.1818C137.834 35.1818 141.71 32.766 144.483 33.3412C147.255 33.9164 152.512 33.9624 153.352 34.2615C156.228 35.2968 159.403 28.4752 159.518 26.5886C159.989 18.8582 149.395 9.45975 143.102 8.45894C131.817 6.67588 130.322 10.0005 128.458 21.6651L123.937 28.0611C123.604 28.6018 123.166 29.0389 122.672 29.3725C122.177 29.6946 121.613 29.8902 121.05 29.9362C120.475 29.9822 119.911 29.8902 119.37 29.6486C118.841 29.407 118.358 29.0389 117.955 28.5673C113.193 22.5624 103.84 13.7161 104.059 13.325C104.611 12.1171 112.088 6.25027 112.088 6.25027C112.088 6.25027 121.234 4.09907 122.338 3.48938C123.443 2.87969 128.723 0.406424 128.723 0.406424L127.331 -6.96735L123.454 -11.8679L122.902 -15.4915L118.197 -13.9616L115.701 -9.36012L115.425 -4.43658L108.488 -5.05775L107.66 -9.65919C107.66 -9.65919 109.88 -13.0413 109.88 -13.9616C109.88 -14.8818 105.692 -16.7339 105.692 -16.7339L96.8232 -14.5827C96.8232 -14.5827 95.4313 -15.503 94.3269 -16.4233C92.7164 -17.4816 91.0484 -18.4019 89.3344 -19.1957L85.1471 -15.2039C85.1471 -15.2039 84.5949 -11.8219 86.2514 -11.5803C88.0574 -11.4768 89.8521 -11.8909 91.4856 -12.7882C92.5899 -13.4094 94.2579 -14.3297 94.5455 -13.4094C94.8331 -12.4776 93.4411 -7.88766 93.4411 -7.88766L93.9934 -2.96412L88.1725 -1.1235C86.1019 -1.91725 84.0772 -2.83758 82.1101 -3.89591C79.2917 -5.771 76.2893 -10.499 72.9072 -11.6608C67.9377 -13.3864 66.0396 -9.18755 61.5992 -8.19824C60.2073 -7.89915 37.2001 -8.81945 37.2001 -8.81945L24.4541 -7.89914L19.22 -3.5968L5.9103 2.23553L6.46245 6.81394L0.0894852 10.4376L0.91771 14.4293L3.97771 18.1105L1.2053 20.8828L-10.7239 22.0907L-11 27.4169L9.78701 22.5279L13.1116 15.7867C13.9973 13.9577 27.491 12.5428 29.5272 12.3817C37.6832 11.703 37.7868 15.0735 40.8467 25.2312C42.2847 30.0627 37.177 33.6289 43.0439 40.6461C34.9568 49.9985 27.353 62.2613 36.1188 74.4781C36.1188 74.4781 40.5591 80.6325 40.8352 81.5643C42.4227 87.2471 39.8804 89.5018 43.6076 94.7705C37.9824 96.8986 44.3438 101.684 47.2082 102.731C48.0479 103.042 51.085 101.201 51.085 101.201L47.7604 95.3801L46.0924 85.5445L52.7415 99.0613V107.033L67.4546 117.996L74.9434 117.697L79.1307 120.113L84.9515 121.643L87.4478 129.017L92.6819 133.02L97.1223 137.012L100.734 134.239L103.783 136.39L103.507 142.223L97.686 148.975L96.8577 160.03C96.8577 160.03 93.7977 163.102 94.0853 164.022C94.3729 164.942 94.0854 169.233 94.3615 170.165C96.11 176.055 96.7312 183.072 102.299 186.063C104.669 187.34 107.314 188.088 109.42 189.848C111.318 191.412 112.123 194.472 113.86 195.887C115.033 196.83 117.53 196.819 118.381 197.808C118.715 198.326 118.853 198.959 118.784 199.591C118.784 206.746 116.69 218.25 118.784 225.152C119.738 228.454 117.737 234.815 118.266 238.726C119.037 245.007 125.007 257.615 123.5 263.54C121.257 272.271 130.08 278.885 136.051 283.061C138.144 284.545 145.622 288.537 146.335 283.579C146.737 280.853 141.986 277.367 140.41 275.826L135.429 270.925C137.638 270.005 140.134 269.717 140.41 268.774C140.686 267.831 140.41 261.699 140.41 261.699L136.81 262.309L139.582 252.174L144.022 246.043C145.472 245.537 146.956 245.122 148.451 244.835C149.855 244.835 153.893 237.875 154.295 236.483C154.847 234.631 152.938 233.665 153.317 231.847C154.514 226.188 162.589 219.193 162.589 213.821V209.243C162.589 207.402 173.702 201.156 175.082 198.97C177.935 194.426 180.684 185.154 182.306 179.909C184.584 172.581 182.997 162.331 176.98 157.638C174.749 155.958 169.871 156.384 165.431 155.981L165.454 155.993Z" fill="#0B37D6"/>
  <path d="M134.281 -2.66538C134.281 -2.66538 138.986 -6.96774 139.814 -7.56593C140.642 -8.17562 142.587 -7.26682 142.587 -7.26682L147.027 -3.27511C147.027 -3.27511 145.359 0.406059 144.542 0.406059C142.874 0.325534 141.206 0.118505 139.55 -0.203595C139.159 -0.284121 138.744 -0.203592 138.399 0.0149765C138.043 0.233544 137.767 0.59015 137.606 1.01578L138.158 3.43151C138.158 3.43151 143.702 4.04119 145.647 4.35178C147.188 4.77742 148.614 5.60572 149.834 6.76758L152.606 5.55972C152.606 5.55972 152.894 2.79884 152.33 1.87855C151.778 0.946762 155.103 1.87855 155.103 1.87855L160.337 0.348556L160.889 -2.41234L154.516 -3.62016C154.516 -3.62016 154.516 -8.54374 153.124 -9.15343C151.905 -9.87815 150.777 -10.7984 149.799 -11.9143L141.482 -11.2931L138.434 -14.6751L130.957 -13.4673L131.509 -8.55522L132.061 -5.78285L130.117 -2.15922L134.281 -2.64235V-2.66538Z" fill="#0B37D6"/>
  <path d="M220.531 -11.9481C221.049 -13.386 223.902 -20.0006 223.902 -20.8519C223.902 -21.7031 227.537 -22.2898 228.825 -22.8535C230.125 -23.4171 227.537 -26.8797 227.537 -26.8797L221.578 -28.0876L217.16 -32.3439C209.718 -32.0678 202.263 -32.528 194.855 -31.6537C192.842 -31.4237 190.725 -31.4121 189.241 -30.1928C188.666 -29.7211 187.47 -26.3161 186.837 -26.3161C180.084 -26.3161 174.597 -27.1788 170.513 -20.5643C170.513 -20.5643 165.279 -20.0006 164.29 -20.0006C163.301 -20.0006 164.025 -16.8371 164.025 -16.8371L168.949 -15.9743H177.761L175.955 -13.7081C175.955 -13.7081 174.908 -9.96946 174.655 -8.53151C174.402 -7.09356 179.889 -7.09356 179.889 -7.09356L174.919 -1.61787C172.826 0.682846 173.619 1.82176 174.401 2.39694C175.966 3.60482 175.172 8.33276 175.621 10.0468C176.599 13.7279 178.957 14.3837 182.143 14.0501C186.71 13.5554 187.125 11.0821 188.516 6.63026C189.379 3.85789 191.657 1.38457 192.29 -1.33028C192.554 -2.48064 202.654 -1.60636 203.69 -1.89395C204.725 -2.18154 216.39 -6.20776 217.172 -5.92017C217.954 -5.63258 220.013 -10.4986 220.542 -11.9366L220.531 -11.9481Z" fill="#0B37D6"/>
  <path d="M497.929 71.5114L498.976 55.7975C499.022 54.9233 498.815 54.049 498.389 53.3357C497.952 52.611 497.331 52.0818 496.606 51.8288C495.099 51.2651 493.408 50.4829 492.937 49.7121C492.051 48.2282 492.051 44.2594 491.602 42.7754C491.154 41.2915 488.922 36.345 487.588 36.8396C487.196 36.9201 486.805 36.8741 486.437 36.7361C487.07 39.3819 487.484 42.0162 486.564 44.6505C485.977 46.2035 485.54 47.8255 485.252 49.4821C485.137 50.0112 485.137 50.5634 485.252 51.104L485.77 53.6579L489.141 66.8755C489.336 67.6462 489.313 68.4745 489.072 69.2222C488.83 69.9814 488.393 70.6256 487.818 71.0743L483.182 74.8129C482.779 75.1235 482.445 75.5377 482.192 76.0094C481.939 76.4925 481.79 77.0217 481.744 77.5738C481.698 78.126 481.744 78.6897 481.916 79.2188C482.077 79.748 482.342 80.2197 482.676 80.6223L484.171 82.3938C484.838 83.1646 485.736 83.6017 486.679 83.6132C487.622 83.6247 488.531 83.2221 489.221 82.4744L496.894 74.0192C497.504 73.3635 497.872 72.4662 497.929 71.5114Z" fill="#0B37D6"/>
  <path d="M466.582 178.112C473.3 177.79 479.615 179.838 486.023 181.862C486.449 182 486.897 181.966 487.3 181.759C487.702 181.552 488.025 181.183 488.22 180.735L488.772 179.389C488.887 179.09 488.945 178.768 488.933 178.446C488.933 178.124 488.841 177.801 488.703 177.525C488.565 177.238 488.37 176.996 488.14 176.824C487.91 176.64 487.633 176.536 487.357 176.49L483.975 175.915C483.975 175.915 477.28 172.947 475.946 171.958C474.611 170.98 462.981 171.958 462.981 171.958C462.981 171.958 449.591 164.526 448.694 163.042C447.796 161.558 447.808 157.106 447.808 157.106C447.808 157.106 448.257 149.192 447.359 147.708C446.462 146.224 440.664 141.266 440.664 141.266V129.993C440.676 129.59 440.802 129.21 441.021 128.888C441.239 128.566 441.527 128.347 441.861 128.232C442.194 128.117 442.551 128.129 442.873 128.267C443.207 128.405 443.483 128.647 443.678 128.98L446.416 133.536C446.6 133.835 446.83 134.076 447.106 134.272C447.371 134.467 447.67 134.594 447.981 134.64C448.291 134.697 448.613 134.686 448.912 134.594C449.211 134.502 449.511 134.352 449.764 134.134L451.857 132.362L453.514 129.015C453.824 128.382 453.985 127.657 453.962 126.933C453.951 126.208 453.767 125.495 453.422 124.873L450.511 119.501C450.511 119.501 448.36 113.807 448.28 113.565C446.991 110.149 467.111 104.915 469.711 103.672C469.711 103.672 473.726 98.2195 473.726 96.7356C473.553 94.895 473.254 93.0774 472.84 91.2944C470.953 82.9543 464.661 77.6281 463.004 68.5288C462.567 66.113 466.145 63.076 467.468 62.5814C468.791 62.0867 472.84 70.5074 473.277 71.9914C473.714 73.4753 477.303 73.4638 477.303 73.4638C477.556 71.4967 477.706 69.5181 477.752 67.528C477.752 65.1122 474.174 60.6028 473.277 59.0728C470.873 55.0235 481.962 46.4189 481.744 41.3573C481.617 38.1708 480.11 35.617 478.5 33.1322L466.133 29.382L464.799 21.9622C464.799 21.9622 472.391 19.489 473.737 19.489C475.566 19.765 477.384 20.1676 479.167 20.6968C479.73 20.8694 480.306 20.8924 480.881 20.7658C481.445 20.6393 481.985 20.3632 482.445 19.9721C482.905 19.581 483.285 19.0633 483.561 18.4766C483.837 17.8899 483.987 17.2342 484.01 16.567V16.5325C484.01 14.1168 486.69 15.06 486.69 15.06C486.69 15.06 488.933 18.5112 488.933 20.5013C488.933 22.4914 491.165 28.9564 491.165 28.9564L496.526 30.935L502.059 34.156C502.692 34.5357 503.439 34.6162 504.118 34.3746C504.797 34.133 505.384 33.5809 505.717 32.8561C506.051 32.0969 506.419 31.3607 506.821 30.6475C506.971 30.3599 507.063 30.0378 507.098 29.7042C507.132 29.3705 507.098 29.037 507.017 28.7149C506.937 28.3928 506.787 28.0937 506.603 27.8406C506.407 27.5875 506.177 27.3804 505.913 27.2309C504.268 26.3451 502.197 25.2637 501.426 24.9876C500.08 24.493 500.989 18.051 500.989 18.051L503.612 16.544L510.307 17.0502L515.679 11.1028L505.844 2.19901L496.02 -4.73763L480.398 -8.68339C480.398 -8.68339 471.551 -5.74997 470.136 -5.23231C459.53 -1.35559 447.797 -12.8937 437.075 -10.6735C437.075 -10.6735 422.788 -7.70557 421.453 -7.70557C421.051 -7.77459 420.683 -7.99315 420.406 -8.33826C417.703 -11.0646 414.171 -12.445 410.594 -12.192C406.591 -11.7088 402.564 -11.7203 398.561 -12.2495C389.83 -13.814 381.904 -18.7145 374.266 -23.4195C370.4 -25.8352 362.313 -31.2304 357.528 -29.4589C356.205 -28.9642 356.205 -25.5016 356.205 -25.5016L362.014 -19.0596L360.68 -14.6077C359.506 -14.3431 358.287 -14.3431 357.114 -14.6077C355.515 -15.1829 339.87 -15.7351 344.356 -9.14352C343.447 -10.57 342.435 -11.9159 341.319 -13.1468C340.33 -13.975 338.087 -12.33 338.087 -12.33L336.097 -9.01696L340.284 -5.16329L341.032 -2.40243L339.295 -1.29806L336.143 -5.1978C335.855 -5.5314 321.499 -3.93237 318.991 -4.09343L311.789 0.864622L309.293 1.1407C309.293 1.1407 306.567 4.47677 305.808 4.47677C305.048 4.47677 300.574 5.0174 299.849 5.0174C299.124 5.0174 297.122 2.84322 296.593 2.06097C296.076 1.27873 296.846 -0.41226 296.846 -0.41226L305.048 2.62464C305.773 1.63533 306.371 0.519472 306.797 -0.688406C306.993 -1.3096 306.97 -1.9998 306.739 -2.60949C306.509 -3.21918 306.095 -3.70233 305.578 -3.97842C304.83 -4.25451 300.85 -4.80666 299.86 -5.35883C298.871 -5.8995 296.237 -9.62668 296.133 -9.76473C295.086 -11.1797 279.855 -9.0515 278.728 -8.10821C277.601 -7.16491 271.274 -5.07123 270.273 -4.80664C269.284 -4.54206 266.546 1.54332 266.293 2.36008C266.04 3.17683 264.544 4.01659 263.313 4.29267C260.587 5.3395 257.918 6.61641 255.353 8.11188C254.605 8.66405 255.859 10.8727 255.859 11.9656C256.112 13.4035 256.526 14.784 257.09 16.0954L259.333 17.4758L262.324 14.4389L263.808 14.7149C268.156 19.0058 270.986 21.6516 275.012 14.8415C272.252 13.7256 272.183 9.00917 274.23 6.68544C276.278 4.36171 279.464 3.80955 282.34 3.38391C279.786 4.86788 279.2 9.07819 280.856 11.7125C282.513 14.3468 285.745 15.3361 288.564 14.7264C287.966 16.2449 286.942 17.4873 285.653 18.2465C284.365 19.0058 282.904 19.2474 281.478 18.9253C281.892 21.341 283.272 22.8365 281.938 24.9647C280.822 25.7814 279.671 26.5176 278.475 27.1733L275.99 24.0674L273.759 27.1043C273.759 27.1043 267.317 26.2415 266.546 26C265.982 25.8159 265.395 25.7239 264.797 25.7239C264.797 25.7239 265.05 22.1002 265.05 21.0304C265.05 19.9606 262.324 21.8587 261.312 22.1463C260.311 22.4224 261.818 27.645 261.818 27.645L259.828 27.3804C258.919 27.2424 257.976 26.8052 257.09 26.5751C258.309 26.8857 252.983 31.8668 250.924 31.7518C250.694 31.2111 250.441 29.8997 249.544 29.6236C248.06 29.152 247.036 33.995 244.85 35.2949C244.689 35.3754 244.562 35.5135 244.459 35.686C244.367 35.8586 244.321 36.0541 244.321 36.2497C244.321 36.4453 244.367 36.6523 244.459 36.8134C244.551 36.9859 244.689 37.1124 244.85 37.2045L246.115 37.8602C244.839 38.861 243.504 39.7813 242.135 40.6211L245.115 42.8182L247.427 45.8552C247.427 45.8552 245.678 48.8922 245.195 49.7089C244.701 50.2611 244.114 50.6867 243.47 50.9743C242.825 51.2619 242.147 51.3884 241.457 51.3654C240.467 51.0893 238.983 48.3284 238.224 47.5117C237.465 46.6949 233.749 48.0524 233.749 48.0524C233.749 48.0524 232.012 54.0917 231.517 55.7713C231.023 57.4508 232.265 64.3069 232.265 64.3069C232.265 64.3069 234.761 64.583 235.498 64.0424C236.245 63.5017 238.477 65.6874 239.225 65.9634C241.054 66.0325 242.883 65.9404 244.701 65.6874L246.392 62.3858L251.373 53.8387L252.362 51.4229L254.755 52.9874C255.065 53.1945 255.41 53.3095 255.755 53.3095C256.112 53.3095 256.457 53.229 256.779 53.0334C257.09 52.8493 257.366 52.5617 257.562 52.2281C257.757 51.883 257.872 51.4919 257.907 51.0893C257.907 49.9849 260.886 50.8132 260.886 50.8132L263.371 51.3654L266.845 56.8756H269.583L271.814 59.0728L270.929 61.2125C270.768 61.6036 270.745 62.0638 270.86 62.4779C270.986 62.892 271.239 63.2371 271.573 63.4441L272.056 63.7548L273.482 63.4441C273.77 63.3866 274.023 63.2026 274.196 62.9381C274.368 62.6735 274.449 62.3398 274.414 62.0062L274.046 58.7967L275.68 60.0966C275.921 60.2807 276.197 60.3727 276.485 60.3612C276.773 60.3497 277.049 60.2347 277.279 60.0276C277.371 59.9471 277.44 59.8435 277.497 59.7285C277.555 59.6135 277.578 59.4754 277.589 59.3489C277.589 59.2108 277.589 59.0843 277.543 58.9578C277.509 58.8312 277.44 58.7162 277.359 58.6242L274.012 54.7014C273.022 54.8395 272.022 54.8395 271.032 54.7014C270.284 54.4254 269.295 51.3884 268.053 49.7319C267.696 49.2257 267.478 48.6161 267.432 47.9604C267.386 47.3161 267.512 46.6604 267.8 46.0968L271.032 46.9135L275.012 48.2939L277.762 54.6784L283.721 60.4532L285.814 63.6282C285.964 63.8468 286.159 64.0193 286.39 64.1114C286.62 64.2034 286.861 64.2149 287.091 64.1344C287.321 64.0539 287.528 63.9158 287.689 63.6973C287.851 63.4902 287.943 63.2256 287.977 62.9495L288.46 56.312C288.46 56.312 297.168 56.8641 297.87 56.8641C298.572 56.8641 301.85 59.625 301.85 59.625C300.804 60.0276 299.722 60.3037 298.618 60.4417C297.065 60.7408 295.558 61.293 294.154 62.0982C293.108 62.6504 295.201 64.8591 295.201 64.8591C295.201 64.8591 303.403 65.4113 304.14 65.1352C305.37 64.8706 306.624 64.6751 307.878 64.5831C307.878 64.5831 309.868 60.1771 309.615 59.3489C309.362 58.5321 312.296 56.0359 312.296 56.0359L312.514 56.1279V65.6183L311.18 70.0817L308.039 77.5016L308.868 79.4917L306.394 81.0332C306.394 81.0332 295.5 78.4679 294.523 78.0998L288.437 75.9946C287.574 75.684 286.654 75.7645 285.837 76.2132C285.032 76.6618 284.388 77.444 284.066 78.4103C283.916 78.8705 283.755 79.3191 283.56 79.7678C278.533 78.4794 273.402 77.1104 268.432 75.5344C268.432 75.5344 265.798 74.8098 266.12 73.3488C266.442 71.8878 266.12 66.021 266.12 66.021C266.12 66.021 263.808 64.1919 262.497 64.1919C261.185 64.1919 259.851 64.1919 258.873 65.6529C257.884 67.1138 255.238 67.1138 255.238 67.1138C255.238 67.1138 243.987 68.5403 243.009 68.5403C241.549 68.7819 240.122 69.1499 238.707 69.6446L236.073 67.0793C236.073 67.0793 233.761 69.2765 233.427 70.3693C232.633 72.7276 231.966 75.1548 231.448 77.6166C231.448 80.2509 225.259 83.9896 224.454 87.6132C223.775 90.6272 223.407 93.9402 221.394 96.0684C220.612 96.9312 219.623 97.5408 218.909 98.4841C217.322 100.509 218.047 106.031 218.564 108.343C218.829 111.748 218.932 115.164 218.886 118.592C218.886 119.697 217.241 120.053 217.564 122.216C217.886 124.379 218.553 125.138 221.532 130.269C224.5 135.388 229.447 140.15 230.125 141.243C230.793 142.336 233.761 143.808 234.738 143.808C235.716 143.808 243.941 139.08 245.299 139.057C260.748 138.781 267.949 140.265 267.42 159.177C267.42 159.177 273.701 170.888 274.035 172.717C274.368 174.546 275.024 178.204 274.69 179.665C274.368 181.126 272.7 188.81 272.7 188.81C272.7 188.81 269.077 192.112 269.41 194.298C270.607 199.44 272.148 204.455 274.035 209.31C275.024 211.139 278.326 219.916 278.326 219.916C278.326 219.916 279.372 227.601 279.648 228.705C279.925 229.809 284.273 235.653 284.273 235.653C284.273 235.653 289.887 232.029 290.876 232.352C291.865 232.674 298.79 231.995 298.802 231.995C300.378 231.822 304.761 221.676 306.176 219.836C308.166 217.27 317.196 212.186 317.622 209.298C318.289 204.789 314.965 191.019 323.558 191.019C324.547 191.019 326.526 175.65 326.526 175.65C325.375 170.313 320.946 160.385 325.03 156.025C328.539 152.252 332.726 149.031 335.993 144.982C339.26 140.932 338.133 137.734 340.399 133.95C341.055 132.845 344.69 128.094 344.69 128.094C344.701 126.622 344.598 125.149 344.368 123.712C344.034 122.251 343.378 122.975 342.389 123.343C341.4 123.723 336.108 125.909 336.108 125.909L330.828 126.277C330.828 126.277 323.891 122.251 323.558 120.053C323.224 117.856 319.934 112.001 319.934 112.001L317.622 106.514L311.686 92.2377L309.374 87.8548L311.812 86.4169L321.004 108.538L325.916 111.506L328.148 117.442C328.148 117.442 331.288 122.4 333.957 122.4L340.664 121.905L341.101 114.486L349.602 113.496L359.012 106.56C358.368 103.212 356.216 99.1628 355.952 96.0223C355.756 93.6756 362.279 90.5122 364.372 89.7414C365.718 89.2468 377.325 100.129 377.325 100.129L381.789 109.528C381.789 109.528 386.689 125.863 386.689 127.347C386.689 128.831 389.83 130.303 389.83 130.303L399.251 143.67C399.251 143.67 403.266 144.66 404.612 144.165C405.946 143.67 405.509 141.197 405.509 141.197L403.726 136.745L400.149 133.283C400.149 133.283 400.149 124.827 399.712 122.895C399.274 120.962 400.597 119.432 400.597 117.937C400.597 116.441 408.638 110.517 409.075 109.033C409.513 107.549 414.885 106.077 414.885 106.077L422.926 109.528L428.286 118.926L431.864 122.389L433.21 132.282L432.761 135.25L430.185 138.666C429.931 139 429.747 139.379 429.621 139.794C429.506 140.208 429.46 140.645 429.483 141.082C429.517 141.519 429.621 141.945 429.793 142.336C429.966 142.727 430.219 143.061 430.507 143.348L431.853 144.648C436.304 153.908 440.227 162.651 446.14 170.888L457.713 179.93C458.759 180.723 463.81 178.434 465.132 178.296L466.616 178.193L466.582 178.112Z" fill="#0B37D6"/>
  <g opacity="0.53">
  <path d="M241.715 23.0001C241.542 23.1497 241.393 23.3337 241.278 23.5638C241.174 23.7824 241.105 24.0355 241.094 24.2885L240.898 28.1768L241.404 28.4413C241.634 28.5679 241.876 28.6369 242.129 28.6369C242.382 28.6369 242.624 28.5679 242.854 28.4413C245.212 27.0379 247.593 25.8071 249.261 23.1727C249.48 22.8276 249.572 22.3904 249.514 21.9648C249.422 21.2171 249.376 20.4579 249.353 19.6986C249.353 18.0421 246.362 15.8449 245.373 15.2927C244.338 14.5795 243.36 13.7743 242.451 12.877C242.255 12.6814 242.094 12.4284 242.002 12.1523L241.83 11.6231C241.738 11.37 241.611 11.14 241.439 10.9559C241.266 10.7719 241.059 10.6338 240.841 10.5417C240.61 10.4612 240.38 10.4267 240.139 10.4612C239.909 10.4957 239.679 10.5878 239.472 10.7258L239.322 10.8293C239.057 11.0134 238.85 11.2895 238.724 11.6116C238.597 11.9337 238.563 12.3018 238.609 12.6469L239.529 17.9501C239.61 18.3872 239.84 18.7783 240.162 19.0429L241.68 20.2508C241.864 20.4118 242.025 20.6189 242.129 20.849C242.232 21.0906 242.29 21.3436 242.29 21.6197C242.29 21.8843 242.244 22.1489 242.14 22.3905C242.048 22.6321 241.899 22.8391 241.715 23.0117V23.0001Z" fill="#0B37D6"/>
  </g>
  <g opacity="0.53">
  <path d="M225.986 27.8434C225.94 28.3036 226.055 28.7752 226.285 29.1433C226.883 30.0751 228.022 31.7661 228.436 31.7661C228.85 31.7661 230.691 31.8697 231.829 31.9387C232.106 31.9617 232.37 31.9042 232.623 31.7776C232.876 31.6511 233.095 31.4671 233.267 31.2255L236.27 27.1072C236.431 26.8886 236.546 26.6355 236.615 26.3479C236.672 26.0718 236.684 25.7727 236.626 25.4967L236.109 22.7818C236.051 22.4712 235.925 22.1837 235.741 21.9536L234.579 20.3891C234.406 20.159 234.188 19.975 233.935 19.8599C233.693 19.7449 233.428 19.6874 233.164 19.6989C232.899 19.7104 232.635 19.7909 232.405 19.9405C232.175 20.09 231.967 20.2855 231.806 20.5386L231.266 21.4359C231.07 21.735 230.817 21.965 230.518 22.1146L229.655 22.5632L229.517 22.6323L227.101 24.0472C226.848 24.1852 226.641 24.4038 226.48 24.6684C226.319 24.933 226.227 25.2436 226.193 25.5542L226.009 27.8549L225.986 27.8434Z" fill="#0B37D6"/>
  </g>
  <path d="M486.232 136.136C486.393 135.653 486.393 135.124 486.266 134.629C486.128 134.134 485.852 133.709 485.484 133.421C484.529 132.593 483.528 131.845 482.482 131.167C481.941 130.971 482.482 128.751 482.309 128.164C482.47 126.162 482.896 124.207 483.574 122.366C483.931 121.757 482.85 119.352 481.768 118.559C480.687 117.765 479.065 114.348 478.34 113.359C477.616 112.37 476.178 107.55 475.809 106.951C475.441 106.365 473.463 107.147 472.922 107.354C472.381 107.561 472.197 109.954 472.197 109.954C472.197 109.954 472.738 114.164 472.197 114.164C471.657 114.164 471.15 113.163 471.15 113.163C470.805 113.969 470.61 114.854 470.61 115.763C470.713 116.43 470.771 117.109 470.771 117.788C470.771 118.306 470.943 118.8 471.231 119.191C472.186 120.503 474.372 123.505 474.751 124.023C475.142 124.54 476.373 128.624 476.546 129.234C476.73 130.729 476.833 132.236 476.856 133.755C476.879 134.146 476.983 134.537 477.167 134.871C477.351 135.204 477.604 135.492 477.903 135.687L482.136 138.425L482.412 138.644C482.677 138.862 482.976 139.023 483.298 139.092C483.62 139.162 483.943 139.162 484.265 139.07C484.575 138.977 484.874 138.805 485.127 138.575C485.38 138.333 485.587 138.034 485.726 137.701C485.91 137.125 486.071 136.608 486.232 136.159V136.136Z" fill="#0B37D6"/>
  <path d="M554.254 114.614C553.621 113.406 552.586 114.925 552.586 113.406C552.643 112.463 552.436 111.52 551.976 110.737C551.527 109.955 550.849 109.369 550.078 109.069L549.526 113.406L547.57 115.592L547.282 118.376L549.79 118.077L548.686 123.633C548.686 123.633 546.443 124.565 545.338 124.841C544.234 125.117 543.935 127.003 543.935 127.003L541.979 133.192L541.703 136.598C541.703 136.598 545.327 136.287 546.167 136.287C546.983 136.091 547.743 135.677 548.398 135.079C548.686 133.664 548.789 132.192 548.686 130.742C548.398 129.201 550.918 129.81 551.481 128.89C552.229 127.165 552.609 125.255 552.586 123.322C552.586 122.713 552.735 122.114 553.034 121.62C553.333 121.125 553.759 120.734 554.254 120.527C554.737 119.641 555.001 118.617 555.001 117.571C555.001 116.524 554.748 115.5 554.254 114.614Z" fill="#0B37D6"/>
  </g>
</svg>
