<svg width="224" height="45" viewBox="0 0 224 45" fill="none" xmlns="http://www.w3.org/2000/svg">
<path fill-rule="evenodd" clip-rule="evenodd" d="M6.95432 0.00147137C4.23953 0.00147137 1.63631 1.78654 0.595022 4.27819C0.111567 5.35667 0 6.54672 0 7.69957C0.0185944 11.53 0.0185944 15.3698 0.0185944 19.2142C0.0185945 23.0586 0.0185945 26.9076 0.037189 30.7567C0.0743779 34.2896 3.16105 37.4507 6.69399 37.5622C10.9182 37.5782 15.1425 37.5736 19.3638 37.5691C24.9907 37.563 30.6124 37.5569 36.222 37.5994C38.9219 39.0498 41.5816 40.5403 44.2413 42.0308C46.0145 43.0245 47.7877 44.0182 49.5728 45C49.0706 43.754 48.5685 42.5173 48.0664 41.2806C47.5644 40.0443 47.0624 38.8079 46.5605 37.5622C49.0521 37.5622 51.5438 37.5664 54.0354 37.5705C59.0187 37.5788 64.002 37.587 68.9853 37.5622C72.5183 37.4879 75.605 34.2896 75.6421 30.7567V7.17893C75.6793 5.17073 74.824 3.16253 73.3364 1.82373C72.0348 0.633691 70.2498 -0.0357175 68.4647 0.00147137H6.95432ZM34.7717 5.39443C33.9163 4.01844 31.7594 3.64655 30.6437 4.83659C30.035 5.5805 29.6723 6.47815 29.304 7.38974C29.2673 7.48071 29.2304 7.57183 29.1933 7.66295C27.3711 12.3859 26.6645 17.4808 26.1066 22.5013C24.805 19.1915 23.9125 15.6958 23.2431 12.2C23.0943 11.419 22.8712 10.5637 22.3134 9.96866C21.6068 9.22489 20.4167 9.18769 19.5986 9.70834C19.0036 10.0802 18.5945 10.7124 18.2598 11.3446C16.0285 15.6214 13.7971 19.8609 11.5658 24.1004C10.227 18.7824 9.29728 13.39 8.47912 7.96047C8.36756 7.25388 8.2188 6.47291 7.66097 5.98945C6.88 5.28286 5.65277 5.35724 4.72305 5.69194C3.57019 6.13821 3.08674 7.55139 3.34706 8.70424C3.40044 9.02797 3.45374 9.35177 3.50705 9.67562C4.60506 16.3462 5.70684 23.0396 7.58659 29.53C7.69736 29.8386 7.79802 30.1589 7.89969 30.4825C8.2759 31.6797 8.66584 32.9205 9.63198 33.7695C10.4501 34.4018 11.5286 33.8439 12.1608 33.2117C13.6484 31.7242 14.6525 29.8275 15.5822 27.9681C16.921 25.2533 18.297 22.5013 19.673 19.7865C21.049 24.4351 22.9456 29.0837 26.2926 32.6911C27.0364 33.5092 28.1148 34.2902 29.2677 34.0299C30.4949 33.7323 31.0528 32.3564 30.9784 31.2035C30.7553 26.7037 31.3503 22.2038 32.0569 17.7783C32.6519 14.3941 33.3213 10.9356 34.8832 7.8117C35.2551 7.06793 35.2179 6.10101 34.7717 5.39443ZM49.9075 9.89428C48.2712 8.07203 45.668 7.25388 43.2507 7.55139C41.8004 7.73733 40.4244 8.36954 39.3087 9.37364C35.4782 12.9066 33.9535 18.5593 34.846 23.6542C35.2923 25.8855 36.3708 28.1168 38.3046 29.4556C40.7219 31.0548 44.0689 31.2407 46.5605 29.716C48.2712 28.7119 49.4613 27.0384 50.391 25.3277C52.0273 22.3154 52.6595 18.7452 52.2504 15.361C51.9901 13.39 51.2463 11.419 49.9075 9.89428ZM41.2053 15.1751C41.8375 14.2082 42.5813 13.1297 43.7342 12.7578C44.5523 12.4975 45.5192 12.795 46.0027 13.4644C47.1927 15.2495 47.3787 17.518 47.0068 19.5634C46.6349 21.3856 45.9283 23.2079 44.5151 24.4351C43.8829 24.993 43.0648 25.5136 42.1722 25.3649C41.3169 25.2161 40.7962 24.4351 40.4615 23.7285C39.1971 21.0138 39.6434 17.7039 41.2053 15.1751ZM69.097 9.74553C67.4607 7.99765 64.8946 7.25388 62.5517 7.55139C60.9526 7.73733 59.4279 8.55548 58.1635 9.67115C54.2958 13.6875 52.8826 19.9353 54.5561 25.2533C55.1883 27.0012 56.2668 28.6375 57.8659 29.6044C60.246 31.0176 63.4443 31.1663 65.8244 29.716C67.6094 28.6747 68.8367 26.964 69.7664 25.2161C71.3283 22.3154 71.9233 18.894 71.5886 15.6214C71.3655 13.4644 70.5845 11.3447 69.097 9.74553ZM60.43 15.453C61.0904 14.3886 61.8301 13.1963 63.0724 12.7578C63.8905 12.4975 64.8575 12.795 65.3037 13.4272C66.3822 14.9892 66.6797 16.9602 66.4566 18.7824C66.2334 20.7534 65.6012 22.7616 64.1509 24.1748C63.4815 24.807 62.6633 25.402 61.7336 25.3649C60.8782 25.3277 60.246 24.6211 59.9113 23.8773C58.6097 21.2369 58.9816 18.0015 60.3948 15.5098L60.43 15.453Z" fill="white"/>
<path fill-rule="evenodd" clip-rule="evenodd" d="M88.361 8.26035C90.4064 7.81408 92.5633 7.85128 94.6087 8.33473C94.6087 10.0082 94.6087 11.6817 94.6087 13.3552C92.9352 12.9462 91.0386 12.5743 89.4395 13.3552C87.5056 14.3221 86.4272 16.5163 86.4272 18.5989C86.3156 20.6814 87.0222 23.0243 88.8816 24.2144C90.5923 25.33 92.7865 25.1069 94.6459 24.5863C94.6459 26.2598 94.6459 27.9333 94.6459 29.6068C92.1542 30.3133 89.4395 30.239 87.0222 29.3464C84.1214 28.268 81.8157 25.7391 80.9232 22.764C80.2538 20.4955 80.1794 18.0782 80.7001 15.7725C81.5554 12.0908 84.6793 9.0785 88.361 8.26035ZM103.46 8.00002C105.988 7.70251 108.74 8.11159 110.786 9.71071C112.757 11.2355 113.724 13.7271 114.096 16.1072C114.43 18.7476 114.356 21.4996 113.538 24.0284C112.831 26.1854 111.381 28.1936 109.298 29.1977C107.179 30.2018 104.687 30.2762 102.418 29.7555C100.336 29.2721 98.4764 27.8961 97.4351 25.9994C95.9847 23.4706 95.7244 20.4583 95.8359 17.5948C95.9475 15.1403 96.5797 12.5743 98.216 10.6776C99.5548 9.15288 101.489 8.22316 103.46 8.00002ZM104.241 12.7974C103.162 13.0577 102.53 14.1362 102.27 15.1403C101.749 17.1485 101.823 19.2311 101.972 21.2765C102.121 22.3921 102.232 23.5822 103.013 24.4747C104.055 25.6647 106.174 25.516 107.104 24.2888C107.736 23.5078 107.922 22.5037 108.034 21.5368C108.257 19.8261 108.294 18.0782 108.034 16.3675C107.848 15.3262 107.55 14.2478 106.807 13.4668C106.137 12.7974 105.133 12.5743 104.241 12.7974ZM203.423 8.33473C205.58 7.7769 207.849 7.85127 210.006 8.29754C210.043 9.97104 210.006 11.6445 210.043 13.3552C208.407 12.9462 206.584 12.5743 204.985 13.2808C203.126 14.1362 202.01 16.1072 201.861 18.0782C201.638 20.3095 202.233 22.8384 204.204 24.14C205.915 25.33 208.146 25.1069 210.043 24.5491C210.006 26.2226 210.08 27.9333 210.006 29.6068C207.365 30.2762 204.465 30.2018 201.973 29.1233C199.221 27.9333 197.064 25.4044 196.283 22.5037C195.688 20.2724 195.614 17.8923 196.171 15.6237C196.99 12.128 199.928 9.26445 203.423 8.33473ZM117.405 8.48349C119.786 8.48349 122.203 8.48349 124.583 8.48349C125.438 12.3511 126.256 16.256 127 20.1608C127.67 16.2188 128.599 12.3511 129.529 8.48349C131.984 8.48349 134.438 8.48349 136.892 8.48349C137.859 15.5122 138.789 22.5409 139.719 29.5324C137.859 29.5324 135.963 29.5324 134.103 29.5324C133.583 24.735 133.136 19.9005 132.579 15.1031C131.426 19.9005 130.236 24.735 129.083 29.5324C127.818 29.5324 126.517 29.5324 125.252 29.5324C124.025 24.735 122.835 19.9005 121.571 15.0659C121.087 19.8633 120.604 24.6978 120.12 29.5324C118.335 29.5324 116.55 29.5324 114.728 29.5324C115.62 22.5409 116.513 15.5122 117.405 8.48349ZM143.14 8.48349C145.52 8.48349 147.938 8.48349 150.318 8.48349C151.173 12.3511 151.991 16.256 152.735 20.1608C153.441 16.256 154.334 12.3511 155.264 8.48349H162.59C163.557 15.5122 164.487 22.5409 165.416 29.5324C163.557 29.5324 161.66 29.5324 159.801 29.5324C159.28 24.735 158.797 19.9005 158.276 15.1031C157.123 19.9005 155.97 24.735 154.78 29.5324C153.516 29.5324 152.214 29.5324 150.95 29.5324C149.723 24.6978 148.495 19.9005 147.268 15.0659C146.785 19.9005 146.301 24.6978 145.818 29.5324C144.033 29.5324 142.248 29.5324 140.425 29.5324C141.355 22.5409 142.248 15.5122 143.14 8.48349ZM167.053 8.55786C170.883 8.48348 174.751 8.55787 178.581 8.52068C178.581 10.0082 178.581 11.4958 178.581 13.0205C176.647 13.0577 174.714 13.0205 172.78 13.0205C172.78 14.3221 172.78 15.5866 172.78 16.8882C174.453 16.8882 176.127 16.8882 177.8 16.8882C177.8 18.3385 177.8 19.7889 177.8 21.2393C176.127 21.2393 174.453 21.2393 172.78 21.2393C172.78 22.5037 172.78 23.8053 172.78 25.1069C174.714 25.1069 176.685 25.1069 178.618 25.1069C178.618 26.5945 178.618 28.082 178.618 29.6068C174.788 29.6068 170.92 29.6068 167.09 29.6068C167.053 22.5781 167.127 15.5866 167.053 8.55786ZM180.217 8.48349C182.635 8.48349 185.015 8.4463 187.432 8.48349C189.701 8.55786 192.118 9.1157 193.791 10.7148C195.316 12.128 195.837 14.4709 195.242 16.4419C194.758 18.041 193.568 19.3426 192.081 20.0492C193.568 23.2103 195.093 26.3713 196.618 29.5324C194.61 29.5324 192.601 29.5324 190.63 29.5324C189.068 26.297 187.544 23.0615 185.945 19.8633C185.907 23.0987 185.945 26.3341 185.945 29.5324C184.048 29.5324 182.151 29.5324 180.255 29.5324C180.217 22.5409 180.217 15.5122 180.217 8.48349ZM185.907 12.5371C185.907 14.2106 185.907 15.8841 185.907 17.5576C186.949 17.4832 188.064 17.446 188.92 16.8138C189.924 16.07 189.812 14.5453 189.18 13.5784C188.399 12.6486 187.023 12.6486 185.907 12.5371ZM211.642 8.52068C215.473 8.52068 219.303 8.52068 223.133 8.52068C223.133 10.0082 223.133 11.533 223.133 13.0205C221.2 13.0205 219.229 13.0205 217.295 13.0205C217.295 14.3221 217.295 15.5866 217.295 16.8882C218.968 16.8882 220.642 16.8882 222.315 16.8882C222.315 18.3385 222.315 19.7889 222.315 21.2393H217.295C217.295 22.5409 217.295 23.8053 217.295 25.1069C219.266 25.1069 221.2 25.1069 223.171 25.1069C223.171 26.5945 223.171 28.082 223.171 29.6068C219.34 29.6068 215.473 29.6068 211.642 29.6068C211.605 22.5409 211.642 15.5122 211.642 8.52068Z" fill="white"/>
</svg>
