<svg width="170" height="51" viewBox="0 0 170 51" fill="none" xmlns="http://www.w3.org/2000/svg">
<path fill-rule="evenodd" clip-rule="evenodd" d="M105.091 39.8857C95.2835 47.1375 81.0178 51.0011 68.7136 51.0011C51.4759 51.0011 36.0214 44.641 24.2522 34.0606C23.3606 33.2284 24.1333 32.0991 25.2627 32.7529C37.9235 40.1235 53.5563 44.5221 69.7241 44.5221C80.6017 44.5221 92.6087 42.2633 103.665 37.5676C105.329 36.9137 106.696 38.6969 105.091 39.8857Z" fill="white"/>
<path fill-rule="evenodd" clip-rule="evenodd" d="M109.194 35.1884C107.946 33.5835 100.872 34.4157 97.7219 34.8318C96.7709 34.9506 96.5926 34.1185 97.4842 33.5241C103.131 29.5416 112.344 30.7304 113.414 32.0381C114.484 33.3457 113.117 42.6184 107.827 47.017C106.995 47.6709 106.222 47.3142 106.579 46.4226C107.767 43.4506 110.442 36.8527 109.194 35.1884Z" fill="white"/>
<path fill-rule="evenodd" clip-rule="evenodd" d="M97.8983 5.58739V1.72377C97.8983 1.12936 98.3144 0.772718 98.8494 0.772718L116.087 0.772718C116.622 0.772718 117.098 1.1888 117.098 1.72377V4.99299C117.098 5.52795 116.622 6.24124 115.79 7.43005L106.874 20.1503C110.202 20.0908 113.709 20.5664 116.681 22.2307C117.335 22.5873 117.514 23.1817 117.573 23.7167V27.8181C117.573 28.4125 116.979 29.0663 116.325 28.7097C111.035 25.916 103.961 25.6188 98.1361 28.7691C97.5417 29.0663 96.8878 28.4719 96.8878 27.8775V23.9545C96.8878 23.3601 96.8878 22.2901 97.5417 21.3391L107.884 6.53844L98.9088 6.53844C98.3738 6.53844 97.8983 6.12236 97.8983 5.58739ZM35.0698 29.5419H29.8391C29.3635 29.4824 28.9475 29.1258 28.888 28.6503L28.888 1.78321C28.888 1.24825 29.3636 0.832162 29.8985 0.832162L34.7726 0.832162C35.3076 0.832162 35.6642 1.24824 35.7237 1.72377V5.23075H35.8426C37.0908 1.84264 39.5279 0.237758 42.7376 0.237758C46.0069 0.237758 48.0873 1.84264 49.5138 5.23075C50.7621 1.84264 53.6747 0.237758 56.7656 0.237758C58.9649 0.237758 61.3425 1.12936 62.8285 3.20978C64.4928 5.46851 64.1362 8.73774 64.1362 11.6503V28.6503C64.1362 29.1852 63.6607 29.6013 63.1257 29.6013H57.9544C57.4194 29.5419 57.0033 29.1258 57.0033 28.6503V14.3846C57.0033 13.2552 57.1222 10.4021 56.8845 9.33213C56.4684 7.54892 55.339 7.01396 53.7935 7.01396C52.5453 7.01396 51.1782 7.84613 50.6432 9.21326C50.1082 10.5804 50.1677 12.8391 50.1677 14.3846V28.6503C50.1677 29.1852 49.6922 29.6013 49.1572 29.6013H43.9264C43.3915 29.5419 42.9754 29.1258 42.9754 28.6503V14.3846C42.9754 11.4125 43.4509 6.95451 39.7656 6.95451C36.0209 6.95451 36.1398 11.2342 36.1398 14.3846V28.6503C36.0803 29.1258 35.6642 29.5419 35.0698 29.5419ZM131.958 0.237758C139.744 0.237758 143.965 6.89508 143.965 15.3951C143.965 23.5978 139.328 30.1363 131.958 30.1363C124.349 30.1363 120.188 23.479 120.188 15.1573C120.129 6.7762 124.349 0.237758 131.958 0.237758ZM131.958 5.76571C128.094 5.76571 127.856 11.0559 127.856 14.3251C127.856 17.5944 127.797 24.6083 131.898 24.6083C135.94 24.6083 136.178 18.9615 136.178 15.5139C136.178 13.2552 136.059 10.521 135.405 8.3811C134.811 6.47901 133.622 5.76571 131.958 5.76571ZM154.01 29.5419H148.779C148.244 29.4824 147.828 29.0664 147.828 28.5908V1.66432C147.888 1.1888 148.304 0.772718 148.839 0.772718L153.713 0.772718C154.188 0.772718 154.545 1.12937 154.664 1.54545V5.64684H154.783C156.269 1.96153 158.29 0.237758 161.916 0.237758C164.234 0.237758 166.552 1.06992 168.038 3.38809C169.405 5.52795 169.405 9.15381 169.405 11.7692V28.7097C169.346 29.1852 168.93 29.5419 168.395 29.5419H163.164C162.688 29.4824 162.272 29.1258 162.213 28.7097V14.0874C162.213 11.1153 162.569 6.83564 158.944 6.83564C157.695 6.83564 156.507 7.66781 155.912 8.9755C155.199 10.6398 155.08 12.2447 155.08 14.0874V28.5908C155.021 29.1258 154.545 29.5419 154.01 29.5419ZM84.1676 16.7028C84.1676 18.7237 84.227 20.4475 83.2165 22.2901C82.3844 23.7762 81.0767 24.6678 79.5907 24.6678C77.5697 24.6678 76.3809 23.1223 76.3809 20.8636C76.3809 16.4056 80.3634 15.5734 84.1676 15.5734V16.7028ZM89.4578 29.4824C89.1011 29.7796 88.6256 29.8391 88.2095 29.6013C86.4858 28.1747 86.1291 27.4615 85.1781 26.0943C82.3249 29.0069 80.2445 29.8985 76.5592 29.8985C72.1606 29.8985 68.7131 27.1643 68.7131 21.7552C68.7131 17.4755 71.0313 14.6223 74.3005 13.1958C77.1536 11.9475 81.1361 11.7098 84.1676 11.3531V10.6993C84.1676 9.45102 84.2865 7.96502 83.5137 6.89509C82.8599 5.94404 81.6711 5.52795 80.6012 5.52795C78.5802 5.52795 76.797 6.53845 76.3809 8.6783C76.262 9.15382 75.9648 9.62933 75.4893 9.62933L70.4369 9.09437C70.0208 8.97549 69.5453 8.6783 69.6641 8.02445C70.853 1.84265 76.3809 0 81.3739 0C83.9298 0 87.2585 0.653841 89.2795 2.61537C91.8354 4.99299 91.5976 8.20278 91.5976 11.6503V19.7936C91.5976 22.2307 92.6081 23.3006 93.5592 24.6678C93.9158 25.1433 93.9753 25.7377 93.5592 26.0349C92.4298 26.9265 90.5277 28.5908 89.4578 29.4824ZM15.5139 16.7028C15.5139 18.7237 15.5734 20.4475 14.5629 22.2901C13.7307 23.7762 12.423 24.6678 10.937 24.6678C8.91605 24.6678 7.72725 23.1223 7.72725 20.8636C7.72725 16.4056 11.7098 15.5734 15.5139 15.5734V16.7028ZM20.7447 29.4824C20.388 29.7796 19.9125 29.8391 19.4964 29.6013C17.7727 28.1747 17.416 27.4615 16.465 26.0943C13.6118 29.0069 11.5314 29.8985 7.84613 29.8985C3.44754 29.8985 0 27.1643 0 21.7552C0 17.4755 2.31817 14.6223 5.58739 13.1958C8.44053 11.9475 12.423 11.7098 15.4545 11.3531V10.6993C15.4545 9.45102 15.5734 7.96502 14.8007 6.89509C14.1468 5.94404 12.958 5.52795 11.8881 5.52795C9.8671 5.52795 8.08389 6.53845 7.66781 8.6783C7.54893 9.15382 7.25172 9.62933 6.7762 9.62933L1.72377 9.09437C1.30768 8.97549 0.832169 8.6783 0.95105 8.02445C2.13986 1.84265 7.66781 0 12.6608 0C15.2167 0 18.5454 0.653841 20.5664 2.61537C23.1223 4.99299 22.8845 8.20278 22.8845 11.6503L22.8845 19.7936C22.8845 22.2307 23.895 23.3006 24.8461 24.6678C25.2027 25.1433 25.2622 25.7377 24.8461 26.0349C23.7167 26.9265 21.8146 28.5908 20.7447 29.4824Z" fill="white"/>
</svg>
