<svg width="135" height="54" viewBox="0 0 135 54" fill="none" xmlns="http://www.w3.org/2000/svg">
<g clip-path="url(#clip0_101_1622)">
<path d="M17.4568 11.7861C7.93474 11.7861 0 15.8173 0 27.9808C0 37.6168 5.33561 43.6846 17.7022 43.6846C32.2586 43.6846 33.1916 34.1151 33.1916 34.1151H26.1386C26.1386 34.1151 24.6265 39.2679 17.2722 39.2679C11.2823 39.2679 6.97425 35.2296 6.97425 29.5698H33.9297V26.0178C33.9297 20.4182 30.3678 11.7861 17.4568 11.7861ZM17.2105 16.3255C22.9122 16.3255 26.7992 19.8115 26.7992 25.0363H7.13005C7.13005 19.4893 12.204 16.3255 17.2105 16.3255Z" fill="white"/>
<path d="M33.9246 0.0078125V37.5764C33.9246 39.7088 33.772 42.7032 33.772 42.7032H40.499C40.499 42.7032 40.7408 40.5528 40.7408 38.5871C40.7408 38.5871 44.0645 43.7768 53.102 43.7768C62.6187 43.7768 69.0832 37.1823 69.0832 27.7354C69.0832 18.9465 63.1455 11.8779 53.1173 11.8779C43.7268 11.8779 40.8088 16.9386 40.8088 16.9386V0.0078125H33.9246ZM51.381 16.5247C57.8437 16.5247 61.9536 21.3117 61.9536 27.7354C61.9536 34.6239 57.2069 39.13 51.4273 39.13C44.5296 39.13 40.8088 33.7547 40.8088 27.7966C40.8088 22.2446 44.1473 16.5247 51.381 16.5247Z" fill="white"/>
<path d="M85.8025 11.7861C71.4776 11.7861 70.559 19.6138 70.559 20.8649H77.689C77.689 20.8649 78.0628 16.295 85.3108 16.295C90.0205 16.295 93.6702 18.4467 93.6702 22.5826V24.0548H85.3108C74.2132 24.0548 68.3462 27.295 68.3462 33.8702C68.3462 40.3406 73.7669 43.8613 81.0928 43.8613C91.0769 43.8613 94.2929 38.3556 94.2929 38.3556C94.2929 40.5456 94.4618 42.7036 94.4618 42.7036H100.8C100.8 42.7036 100.555 40.0288 100.555 38.3174V23.5258C100.555 13.8269 92.716 11.7861 85.8025 11.7861ZM93.6702 28.4715V30.4345C93.6702 32.9947 92.0869 39.3601 82.7675 39.3601C77.6643 39.3601 75.4762 36.8182 75.4762 33.8697C75.4762 28.5061 82.8445 28.4715 93.6702 28.4715Z" fill="white"/>
<path d="M96.7148 13.0139H104.736L116.248 36.0314L127.733 13.0139H135L114.079 53.9921H106.457L112.494 42.5688L96.7148 13.0139Z" fill="white"/>
</g>
<defs>
<clipPath id="clip0_101_1622">
<rect width="135" height="54" fill="white"/>
</clipPath>
</defs>
</svg>
