<svg width="172" height="49" viewBox="0 0 172 49" fill="none" xmlns="http://www.w3.org/2000/svg">
<mask id="mask0_101_1601" style="mask-type:luminance" maskUnits="userSpaceOnUse" x="0" y="0" width="172" height="49">
<path d="M172 0H0V48.9538H172V0Z" fill="white"/>
</mask>
<g mask="url(#mask0_101_1601)">
<path d="M36.5317 8.91186C36.3597 8.91186 32.9541 8.8433 32.9541 8.8433C32.9541 8.8433 30.0989 6.10078 29.8237 5.79225C29.7205 5.68941 29.5829 5.62085 29.4453 5.62085V47.7526L42.2077 44.5988C42.2077 44.5988 37.0133 9.52893 36.9789 9.28896C36.9101 9.04898 36.7037 8.91186 36.5317 8.91186Z" fill="white"/>
<path fill-rule="evenodd" clip-rule="evenodd" d="M36.5328 8.91181C36.7048 8.91181 36.9112 9.04893 36.9456 9.28891C36.98 9.52888 42.1744 44.5988 42.2088 44.5988L29.4464 47.7526L0 42.679C0 42.679 3.5088 15.6309 3.5776 14.671C3.7496 13.4026 3.784 13.3683 5.1256 12.957C5.18141 12.957 6.41445 12.5735 8.29212 11.9894C8.72902 11.8535 9.20081 11.7068 9.7008 11.5515C10.0104 9.52888 11.008 6.92349 12.3152 4.83232C14.2072 1.88412 16.512 0.204331 18.8168 0.135769C20.0208 0.101487 21.0184 0.512864 21.8096 1.33562C21.854 1.35775 21.8841 1.39419 21.9184 1.43568C21.9372 1.45845 21.9572 1.48273 21.9816 1.50702C22.1192 1.47274 22.2224 1.47274 22.36 1.47274C24.1488 1.47274 25.6624 2.50118 26.66 4.42094C26.9696 5.03801 27.2104 5.6208 27.348 6.10073C28.2424 5.82648 28.7928 5.65508 28.7928 5.65508C28.9992 5.58652 29.5496 5.51795 29.8248 5.7922C30.1 6.10073 32.9552 8.84324 32.9552 8.84324C32.9552 8.84324 36.3608 8.91181 36.5328 8.91181ZM23.5984 7.30059C24.424 7.02633 25.1808 6.78636 25.8688 6.58068C25.5248 5.38082 24.6648 3.3925 22.9104 3.11825C23.4264 4.48951 23.5984 6.13501 23.5984 7.30059ZM17.1393 9.25215C18.8222 8.73875 20.5049 8.22542 22.0504 7.74624C22.0848 6.47783 21.9472 4.59236 21.2592 3.25537C20.6056 3.52962 20.0208 4.00957 19.608 4.45522C18.5072 5.65508 17.6128 7.43771 17.1312 9.25463L17.1393 9.25215ZM20.2616 2.05553C19.8832 1.78128 19.436 1.67844 18.8856 1.67844C15.3424 1.78128 12.212 7.33487 11.3864 11.0715C11.6806 10.982 11.9825 10.8904 12.2909 10.797C13.2805 10.4971 14.3358 10.1772 15.4112 9.83741C15.8584 7.47199 16.9936 5.03801 18.4728 3.46106C19.0232 2.844 19.6424 2.36406 20.2616 2.05553ZM20.8812 20.9783L22.3604 15.4591C22.3604 15.4591 21.0876 14.8078 18.5764 14.9791C12.1093 15.3904 9.18528 19.8814 9.46048 24.3379C9.65385 27.3248 11.4125 28.5677 12.9522 29.6559C14.1515 30.5036 15.218 31.2573 15.3084 32.6684C15.3772 33.4225 14.8612 34.5538 13.5196 34.6223C11.4557 34.7595 8.84128 32.8055 8.84128 32.8055L7.84368 37.0221C7.84368 37.0221 10.4237 39.7646 15.102 39.5246C19.0236 39.2847 21.7068 36.165 21.4316 31.6056C21.2025 28.0981 18.7291 26.513 16.7747 25.2606C15.5009 24.4443 14.4475 23.7692 14.3796 22.7953C14.3796 22.3496 14.3796 20.5327 17.2692 20.3612C19.23 20.2242 20.8812 20.9783 20.8812 20.9783Z" fill="white"/>
<path d="M59.4736 27.2221C57.9944 26.4336 57.2376 25.748 57.2376 24.8224C57.2376 23.6569 58.304 22.9026 59.9552 22.9026C61.8816 22.9026 63.6016 23.6912 63.6016 23.6912L64.9432 19.5773C64.9432 19.5773 63.7048 18.6174 60.0584 18.6174C54.9672 18.6174 51.424 21.5314 51.424 25.6108C51.424 27.9421 53.0752 29.6904 55.2768 30.9588C57.0656 31.953 57.6848 32.6729 57.6848 33.7356C57.6848 34.8325 56.7904 35.7239 55.1392 35.7239C52.6968 35.7239 50.3576 34.4555 50.3576 34.4555L48.9128 38.5693C48.9128 38.5693 51.0456 40.0091 54.6576 40.0091C59.8864 40.0091 63.6704 37.4379 63.6704 32.8099C63.636 30.3075 61.744 28.5248 59.4736 27.2221Z" fill="white"/>
<path d="M80.3228 18.5419C77.7428 18.5419 75.7132 19.776 74.1652 21.6272L74.0964 21.5929L76.3324 9.93726H70.5188L64.8428 39.625H70.6564L72.5828 29.4776C73.3396 25.6382 75.3348 23.2727 77.1924 23.2727C78.4996 23.2727 79.0156 24.164 79.0156 25.4325C79.0156 26.2209 78.9468 27.215 78.7748 28.0036L76.5732 39.625H82.3868L84.6572 27.6265C84.898 26.3581 85.07 24.8496 85.07 23.8212C85.1044 20.5302 83.3844 18.5419 80.3228 18.5419Z" fill="white"/>
<path d="M98.2802 18.5422C91.2626 18.5422 86.6187 24.85 86.6187 31.8778C86.6187 36.3686 89.4051 40.0024 94.6339 40.0024C101.514 40.0024 106.158 33.8661 106.158 26.667C106.192 22.5189 103.75 18.5422 98.2802 18.5422ZM95.4251 35.5802C93.4299 35.5802 92.6042 33.9004 92.6042 31.7749C92.6042 28.4496 94.3242 23.0332 97.489 23.0332C99.553 23.0332 100.241 24.8157 100.241 26.5298C100.241 30.0951 98.4867 35.5802 95.4251 35.5802Z" fill="white"/>
<path d="M121.08 18.5422C117.158 18.5422 114.922 22.0047 114.922 22.0047H114.854L115.198 18.885H110.038C109.797 20.9763 109.315 24.1987 108.868 26.5985L104.809 47.8529H110.622L112.239 39.2483H112.377C112.377 39.2483 113.581 40.0024 115.782 40.0024C122.628 40.0024 127.1 33.009 127.1 25.9471C127.1 22.039 125.346 18.5422 121.08 18.5422ZM115.507 35.6487C113.994 35.6487 113.099 34.7916 113.099 34.7916L114.062 29.3752C114.75 25.7414 116.642 23.3417 118.672 23.3417C120.461 23.3417 121.011 24.9872 121.011 26.5298C121.011 30.3008 118.775 35.6487 115.507 35.6487Z" fill="white"/>
<path d="M135.436 10.2173C133.579 10.2173 132.1 11.6914 132.1 13.5768C132.1 15.2909 133.2 16.4908 134.852 16.4908H134.92C136.744 16.4908 138.292 15.2566 138.326 13.1312C138.326 11.4514 137.191 10.2173 135.436 10.2173Z" fill="white"/>
<path d="M127.285 39.5895H133.098L137.054 19.0205H131.206L127.285 39.5895Z" fill="white"/>
<path d="M151.88 18.9891H147.821L148.027 18.0292C148.371 16.0409 149.541 14.2924 151.501 14.2924C152.533 14.2924 153.359 14.601 153.359 14.601L154.494 10.0416C154.494 10.0416 153.497 9.52734 151.329 9.52734C149.265 9.52734 147.201 10.1101 145.619 11.4471C143.624 13.1269 142.695 15.5609 142.248 18.0292L142.076 18.9891H139.358L138.498 23.3771H141.216L138.12 39.6264H143.933L147.029 23.3771H151.054L151.88 18.9891Z" fill="white"/>
<path d="M165.91 19.0205C165.91 19.0205 162.264 28.1737 160.647 33.1788H160.578C160.475 31.5675 159.134 19.0205 159.134 19.0205H153.01L156.519 37.9097C156.588 38.321 156.554 38.5953 156.382 38.8696C155.694 40.1721 154.558 41.4406 153.217 42.3662C152.116 43.1546 150.878 43.6689 149.914 44.0117L151.531 48.9482C152.701 48.7082 155.178 47.7141 157.242 45.7943C159.89 43.3261 162.367 39.4865 164.878 34.2759L171.999 19.0205H165.91Z" fill="white"/>
</g>
</svg>
