<svg width="195" height="30" viewBox="0 0 195 30" fill="none" xmlns="http://www.w3.org/2000/svg">
<path fill-rule="evenodd" clip-rule="evenodd" d="M0 22.0279L12.6702 14.5078L25.2939 22.0279L12.8024 29.5665L0 22.0279Z" fill="white"/>
<path fill-rule="evenodd" clip-rule="evenodd" d="M12.6702 0L25.2939 7.23972L25.2939 22.0279L12.6702 14.5078V0Z" fill="white" fill-opacity="0.75"/>
<path fill-rule="evenodd" clip-rule="evenodd" d="M12.6702 0L0 7.23972V22.0279L12.6702 14.5078V0Z" fill="white" fill-opacity="0.25"/>
<path d="M39.8998 23.217H36.2307V2.54321H39.8998V23.217Z" fill="white"/>
<path d="M54.066 10.7278V9.05686H57.7351V23.217H54.066V21.5461C52.9662 22.9243 51.4209 23.6134 49.4299 23.6134C47.5338 23.6134 45.9031 22.896 44.5379 21.4611C43.1916 20.0073 42.5185 18.2326 42.5185 16.1369C42.5185 14.0601 43.1916 12.2948 44.5379 10.841C45.9031 9.38726 47.5338 8.66038 49.4299 8.66038C51.4209 8.66038 52.9662 9.3495 54.066 10.7278ZM47.2968 19.0256C48.0363 19.7619 48.9748 20.1301 50.1125 20.1301C51.2502 20.1301 52.1888 19.7619 52.9283 19.0256C53.6868 18.2704 54.066 17.3075 54.066 16.1369C54.066 14.9663 53.6868 14.0129 52.9283 13.2766C52.1888 12.5214 51.2502 12.1438 50.1125 12.1438C48.9748 12.1438 48.0363 12.5214 47.2968 13.2766C46.5573 14.0129 46.1875 14.9663 46.1875 16.1369C46.1875 17.3075 46.5573 18.2704 47.2968 19.0256Z" fill="white"/>
<path d="M69.3388 8.66038C71.2539 8.66038 72.8846 9.38726 74.2309 10.841C75.5961 12.2948 76.2787 14.0601 76.2787 16.1369C76.2787 18.2515 75.5961 20.0262 74.2309 21.4611C72.9036 22.896 71.2729 23.6134 69.3388 23.6134C67.3479 23.6134 65.812 22.9243 64.7312 21.5461V23.217H61.0621V3.39282H64.7312V10.7278C65.812 9.3495 67.3479 8.66038 69.3388 8.66038ZM65.8404 19.0256C66.5799 19.7619 67.5185 20.1301 68.6562 20.1301C69.7939 20.1301 70.7325 19.7619 71.472 19.0256C72.2305 18.2704 72.6097 17.3075 72.6097 16.1369C72.6097 14.9663 72.2305 14.0129 71.472 13.2766C70.7325 12.5214 69.7939 12.1438 68.6562 12.1438C67.5185 12.1438 66.5799 12.5214 65.8404 13.2766C65.1009 14.0129 64.7312 14.9663 64.7312 16.1369C64.7312 17.3075 65.1009 18.2704 65.8404 19.0256Z" fill="white"/>
<path d="M92.6893 17.6379H81.9665C82.4406 19.4126 83.7774 20.3 85.9769 20.3C87.38 20.3 88.4419 19.828 89.1624 18.884L92.1204 20.5832C90.7173 22.6034 88.6505 23.6134 85.92 23.6134C83.5688 23.6134 81.6821 22.9054 80.26 21.4894C78.8379 20.0734 78.1268 18.2892 78.1268 16.1369C78.1268 14.0223 78.8284 12.2476 80.2316 10.8127C81.6157 9.37782 83.4171 8.66038 85.6356 8.66038C87.7403 8.66038 89.4563 9.37782 90.7836 10.8127C92.1489 12.2476 92.8315 14.0223 92.8315 16.1369C92.8315 16.5334 92.7841 17.0337 92.6893 17.6379ZM81.9096 14.8059H89.1624C88.9538 13.8807 88.5272 13.1727 87.8825 12.6818C87.2568 12.191 86.5078 11.9455 85.6356 11.9455C84.6496 11.9455 83.8342 12.2004 83.1895 12.7102C82.5449 13.2011 82.1182 13.8996 81.9096 14.8059Z" fill="white"/>
<path d="M99.0619 23.217H95.3928V2.54321H99.0619V23.217Z" fill="white"/>
<path d="M108.59 8.71702C110.714 8.71702 112.411 9.46278 113.681 10.9543C114.99 12.427 115.644 14.1734 115.644 16.1936C115.644 16.288 115.625 16.5806 115.587 17.0715H103.101C103.29 18.4875 103.897 19.6203 104.921 20.4699C105.945 21.3195 107.225 21.7443 108.761 21.7443C110.922 21.7443 112.449 20.9419 113.34 19.3371L114.99 20.3C114.364 21.3195 113.501 22.1219 112.401 22.7072C111.321 23.2736 110.098 23.5568 108.732 23.5568C106.495 23.5568 104.675 22.8582 103.271 21.4611C101.868 20.064 101.167 18.2892 101.167 16.1369C101.167 14.0035 101.859 12.2382 103.243 10.841C104.627 9.42502 106.41 8.71702 108.59 8.71702ZM108.59 10.5295C107.111 10.5295 105.869 10.9638 104.864 11.8322C103.878 12.7007 103.29 13.843 103.101 15.259H113.71C113.501 13.7486 112.923 12.5874 111.975 11.7756C110.989 10.9449 109.861 10.5295 108.59 10.5295Z" fill="white"/>
<path d="M125.285 8.71702C126.992 8.71702 128.348 9.24566 129.353 10.3029C130.358 11.3414 130.86 12.7479 130.86 14.5227V23.217H128.983V14.5227C128.983 13.2577 128.642 12.2759 127.959 11.5774C127.295 10.8788 126.347 10.5295 125.115 10.5295C123.693 10.5295 122.564 10.9732 121.73 11.8606C120.915 12.7479 120.507 14.0601 120.507 15.7971V23.217H118.63V9.05686H120.507V11.2658C121.569 9.56662 123.162 8.71702 125.285 8.71702Z" fill="white"/>
<path d="M146.72 11.8322V9.05686H148.597V22.6506C148.597 24.6896 147.896 26.2944 146.492 27.465C145.089 28.6356 143.411 29.2209 141.458 29.2209C138.14 29.2209 135.893 28.0692 134.717 25.7658L136.367 24.8312C137.22 26.5493 138.917 27.4084 141.458 27.4084C143.089 27.4084 144.369 26.9836 145.298 26.1339C146.246 25.2843 146.72 24.1232 146.72 22.6506V20.4416C145.412 22.5184 143.496 23.5568 140.975 23.5568C138.946 23.5568 137.211 22.8394 135.77 21.4045C134.348 19.9696 133.636 18.2137 133.636 16.1369C133.636 14.0601 134.348 12.3042 135.77 10.8694C137.211 9.43446 138.946 8.71702 140.975 8.71702C143.496 8.71702 145.412 9.75543 146.72 11.8322ZM137.135 20.1301C138.216 21.2062 139.543 21.7443 141.117 21.7443C142.691 21.7443 144.018 21.2062 145.099 20.1301C146.18 19.0161 146.72 17.6851 146.72 16.1369C146.72 14.5699 146.18 13.2483 145.099 12.1721C144.018 11.077 142.691 10.5295 141.117 10.5295C139.543 10.5295 138.216 11.077 137.135 12.1721C136.054 13.2483 135.514 14.5699 135.514 16.1369C135.514 17.6851 136.054 19.0161 137.135 20.1301Z" fill="white"/>
<path d="M154.876 4.69555C154.876 5.07315 154.743 5.39411 154.477 5.65844C154.212 5.92276 153.89 6.05492 153.51 6.05492C153.131 6.05492 152.809 5.92276 152.543 5.65844C152.278 5.39411 152.145 5.07315 152.145 4.69555C152.145 4.31795 152.278 3.99698 152.543 3.73266C152.809 3.46834 153.131 3.33618 153.51 3.33618C153.89 3.33618 154.212 3.46834 154.477 3.73266C154.743 3.99698 154.876 4.31795 154.876 4.69555ZM154.449 23.217H152.572V9.05686H154.449V23.217Z" fill="white"/>
<path d="M165.088 8.71702C166.794 8.71702 168.15 9.24566 169.155 10.3029C170.16 11.3414 170.663 12.7479 170.663 14.5227V23.217H168.785V14.5227C168.785 13.2577 168.444 12.2759 167.761 11.5774C167.098 10.8788 166.15 10.5295 164.917 10.5295C163.495 10.5295 162.367 10.9732 161.533 11.8606C160.717 12.7479 160.31 14.0601 160.31 15.7971V23.217H158.432V9.05686H160.31V11.2658C161.371 9.56662 162.964 8.71702 165.088 8.71702Z" fill="white"/>
<path d="M180.862 8.71702C182.986 8.71702 184.683 9.46278 185.954 10.9543C187.262 12.427 187.916 14.1734 187.916 16.1936C187.916 16.288 187.897 16.5806 187.859 17.0715H175.373C175.563 18.4875 176.169 19.6203 177.193 20.4699C178.217 21.3195 179.497 21.7443 181.033 21.7443C183.195 21.7443 184.721 20.9419 185.612 19.3371L187.262 20.3C186.636 21.3195 185.773 22.1219 184.674 22.7072C183.593 23.2736 182.37 23.5568 181.005 23.5568C178.767 23.5568 176.947 22.8582 175.544 21.4611C174.141 20.064 173.439 18.2892 173.439 16.1369C173.439 14.0035 174.131 12.2382 175.515 10.841C176.899 9.42502 178.682 8.71702 180.862 8.71702ZM180.862 10.5295C179.383 10.5295 178.141 10.9638 177.136 11.8322C176.15 12.7007 175.563 13.843 175.373 15.259H185.982C185.773 13.7486 185.195 12.5874 184.247 11.7756C183.261 10.9449 182.133 10.5295 180.862 10.5295Z" fill="white"/>
<path d="M189.49 4.43968H191.712V4.73174H190.757V7.53721H190.446V4.73174H189.49V4.43968Z" fill="white"/>
<path d="M194.614 4.43968H195.001V7.53721H194.69V4.90874L193.601 6.723H193.557L192.468 4.90874V7.53721H192.157V4.43968H192.544L193.579 6.16545L194.614 4.43968Z" fill="white"/>
</svg>
