<svg width="55" height="6" viewBox="0 0 55 6" fill="none" xmlns="http://www.w3.org/2000/svg">
<path d="M49.3333 3C49.3333 4.47276 50.5272 5.66667 52 5.66667C53.4728 5.66667 54.6667 4.47276 54.6667 3C54.6667 1.52724 53.4728 0.333333 52 0.333333C50.5272 0.333333 49.3333 1.52724 49.3333 3ZM1.85714 3.5C2.13329 3.5 2.35714 3.27614 2.35714 3C2.35714 2.72386 2.13329 2.5 1.85714 2.5V3.5ZM5.57143 2.5C5.29529 2.5 5.07143 2.72386 5.07143 3C5.07143 3.27614 5.29529 3.5 5.57143 3.5V2.5ZM9.28571 3.5C9.56186 3.5 9.78571 3.27614 9.78571 3C9.78571 2.72386 9.56186 2.5 9.28571 2.5V3.5ZM13 2.5C12.7239 2.5 12.5 2.72386 12.5 3C12.5 3.27614 12.7239 3.5 13 3.5V2.5ZM16.7143 3.5C16.9904 3.5 17.2143 3.27614 17.2143 3C17.2143 2.72386 16.9904 2.5 16.7143 2.5V3.5ZM20.4286 2.5C20.1524 2.5 19.9286 2.72386 19.9286 3C19.9286 3.27614 20.1524 3.5 20.4286 3.5V2.5ZM24.1429 3.5C24.419 3.5 24.6429 3.27614 24.6429 3C24.6429 2.72386 24.419 2.5 24.1429 2.5V3.5ZM27.8571 2.5C27.581 2.5 27.3571 2.72386 27.3571 3C27.3571 3.27614 27.581 3.5 27.8571 3.5V2.5ZM31.5714 3.5C31.8476 3.5 32.0714 3.27614 32.0714 3C32.0714 2.72386 31.8476 2.5 31.5714 2.5V3.5ZM35.2857 2.5C35.0096 2.5 34.7857 2.72386 34.7857 3C34.7857 3.27614 35.0096 3.5 35.2857 3.5V2.5ZM39 3.5C39.2761 3.5 39.5 3.27614 39.5 3C39.5 2.72386 39.2761 2.5 39 2.5V3.5ZM42.7143 2.5C42.4381 2.5 42.2143 2.72386 42.2143 3C42.2143 3.27614 42.4381 3.5 42.7143 3.5V2.5ZM46.4286 3.5C46.7047 3.5 46.9286 3.27614 46.9286 3C46.9286 2.72386 46.7047 2.5 46.4286 2.5V3.5ZM50.1429 2.5C49.8667 2.5 49.6429 2.72386 49.6429 3C49.6429 3.27614 49.8667 3.5 50.1429 3.5V2.5ZM0 3.5H1.85714V2.5H0V3.5ZM5.57143 3.5H9.28571V2.5H5.57143V3.5ZM13 3.5H16.7143V2.5H13V3.5ZM20.4286 3.5H24.1429V2.5H20.4286V3.5ZM27.8571 3.5H31.5714V2.5H27.8571V3.5ZM35.2857 3.5H39V2.5H35.2857V3.5ZM42.7143 3.5H46.4286V2.5H42.7143V3.5ZM50.1429 3.5H52V2.5H50.1429V3.5Z" fill="#0A3E95" fill-opacity="0.5"/>
</svg>
