<svg width="24" height="24" viewBox="0 0 24 24" fill="none" xmlns="http://www.w3.org/2000/svg">
<path opacity="0.4" d="M18.04 13.55C17.62 13.96 17.38 14.55 17.44 15.18C17.53 16.26 18.52 17.05 19.6 17.05H21.5V18.24C21.5 20.31 19.81 22 17.74 22H6.26C4.19 22 2.5 20.31 2.5 18.24V11.51C2.5 9.44001 4.19 7.75 6.26 7.75H17.74C19.81 7.75 21.5 9.44001 21.5 11.51V12.95H19.48C18.92 12.95 18.41 13.17 18.04 13.55Z" fill="#006FFF"/>
<path d="M14.85 3.95V7.74999H6.26C4.19 7.74999 2.5 9.44 2.5 11.51V7.84002C2.5 6.65002 3.23 5.58997 4.34 5.16997L12.28 2.16997C13.52 1.70997 14.85 2.62 14.85 3.95Z" fill="#006FFF"/>
<path d="M22.56 13.9699V16.03C22.56 16.58 22.12 17.0299 21.56 17.0499H19.6C18.52 17.0499 17.53 16.2599 17.44 15.1799C17.38 14.5499 17.62 13.9599 18.04 13.5499C18.41 13.1699 18.92 12.95 19.48 12.95H21.56C22.12 12.97 22.56 13.4199 22.56 13.9699Z" fill="#006FFF"/>
<path d="M14 12.75H7C6.59 12.75 6.25 12.41 6.25 12C6.25 11.59 6.59 11.25 7 11.25H14C14.41 11.25 14.75 11.59 14.75 12C14.75 12.41 14.41 12.75 14 12.75Z" fill="#006FFF"/>
</svg>
