<svg width="18" height="14" viewBox="0 0 18 14" fill="none" xmlns="http://www.w3.org/2000/svg">
<path d="M1.10355 6.09703C1.10355 6.09703 9.06452 3.02377 11.8255 1.9416C12.8839 1.50877 16.4733 0.123584 16.4733 0.123584C16.4733 0.123584 18.1299 -0.482382 17.9918 0.989309C17.9458 1.59533 17.5777 3.7163 17.2095 6.01047C16.6573 9.25692 16.0591 12.8063 16.0591 12.8063C16.0591 12.8063 15.9671 13.8019 15.1848 13.9751C14.4025 14.1482 13.114 13.3691 12.8839 13.1959C12.6998 13.0661 9.43263 11.1182 8.2362 10.1659C7.91406 9.9062 7.54595 9.3868 8.28218 8.78078C9.93882 7.35234 11.9175 5.57763 13.114 4.45221C13.6662 3.93275 14.2184 2.72076 11.9175 4.19245C8.65036 6.31348 5.42916 8.30463 5.42916 8.30463C5.42916 8.30463 4.69286 8.73746 3.31237 8.34788C1.93181 7.95836 0.321209 7.4389 0.321209 7.4389C0.321209 7.4389 -0.783137 6.78963 1.10355 6.09703Z" fill="white"/>
</svg>
