<svg width="744" height="419" viewBox="0 0 744 419" fill="none" xmlns="http://www.w3.org/2000/svg">
<path d="M1.62044 410.147C-0.711397 410.531 -0.448125 413.961 1.90628 413.992L361.054 418.957C392.023 419.408 422.938 416.421 453.245 410.042L789.533 339.275C791.459 338.869 791.226 336.048 789.255 335.965L516.377 325.064L1.62044 410.147Z" fill="#090E32"/>
<path d="M682.552 284.897L682.77 288.447L675.173 288.162L675.331 276.682L369.77 271.341C369.77 271.341 386.349 312.302 388.523 312.415C390.696 312.528 674.932 305.803 674.932 305.803L675 300.928H683.538L683.906 306.916H691.052L692.406 284.22L682.552 284.897Z" fill="#090E32"/>
<path d="M688.922 287.101V303.666H693.104L693.841 287.101H688.922Z" fill="#006FF6"/>
<path d="M646.753 280.813C637.915 280.813 630.746 294.332 630.746 311.01C630.746 327.688 637.915 341.207 646.753 341.207H664.227V280.806H646.753V280.813Z" fill="#090E32"/>
<path d="M664.231 341.208C673.071 341.208 680.238 327.689 680.238 311.012C680.238 294.334 673.071 280.815 664.231 280.815C655.39 280.815 648.224 294.334 648.224 311.012C648.224 327.689 655.39 341.208 664.231 341.208Z" fill="#090E32"/>
<path d="M665.679 329.242C671.017 329.242 675.344 321.081 675.344 311.014C675.344 300.947 671.017 292.787 665.679 292.787C660.34 292.787 656.013 300.947 656.013 311.014C656.013 321.081 660.34 329.242 665.679 329.242Z" fill="#0E1849"/>
<path d="M665.674 319.594C668.187 319.594 670.225 315.751 670.225 311.011C670.225 306.27 668.187 302.427 665.674 302.427C663.161 302.427 661.123 306.27 661.123 311.011C661.123 315.751 663.161 319.594 665.674 319.594Z" fill="#313B60"/>
<path d="M598.119 280.63C587.551 280.63 578.976 296.796 578.976 316.739C578.976 336.682 587.543 352.849 598.119 352.849H619.008V280.63H598.119Z" fill="#090E32"/>
<path d="M619.011 352.85C629.584 352.85 638.155 336.683 638.155 316.741C638.155 296.798 629.584 280.631 619.011 280.631C608.439 280.631 599.868 296.798 599.868 316.741C599.868 336.683 608.439 352.85 619.011 352.85Z" fill="#090E32"/>
<path d="M620.745 338.54C627.126 338.54 632.299 328.779 632.299 316.739C632.299 304.698 627.126 294.938 620.745 294.938C614.364 294.938 609.191 304.698 609.191 316.739C609.191 328.779 614.364 338.54 620.745 338.54Z" fill="#0E1849"/>
<path d="M620.74 327.014C623.743 327.014 626.178 322.417 626.178 316.746C626.178 311.074 623.743 306.477 620.74 306.477C617.736 306.477 615.301 311.074 615.301 316.746C615.301 322.417 617.736 327.014 620.74 327.014Z" fill="#313B60"/>
<path d="M564.109 288.759V320.979L604.676 314.841V288.609L564.109 288.759Z" fill="#313B60"/>
<path d="M564.113 288.761H536.929L540.411 320.981H564.113V288.761Z" fill="#0E1849"/>
<path d="M508.599 276.684C495.353 276.684 484.611 296.943 484.611 321.934C484.611 346.925 495.353 367.184 508.599 367.184H534.776V276.684H508.599Z" fill="#090E32"/>
<path d="M534.772 367.185C548.02 367.185 558.76 346.926 558.76 321.936C558.76 296.945 548.02 276.686 534.772 276.686C521.524 276.686 510.784 296.945 510.784 321.936C510.784 346.926 521.524 367.185 534.772 367.185Z" fill="#090E32"/>
<path d="M536.943 349.255C544.94 349.255 551.423 337.025 551.423 321.939C551.423 306.854 544.94 294.624 536.943 294.624C528.946 294.624 522.463 306.854 522.463 321.939C522.463 337.025 528.946 349.255 536.943 349.255Z" fill="#0E1849"/>
<path d="M536.939 334.794C540.707 334.794 543.762 329.035 543.762 321.93C543.762 314.826 540.707 309.066 536.939 309.066C533.171 309.066 530.117 314.826 530.117 321.93C530.117 329.035 533.171 334.794 536.939 334.794Z" fill="#313B60"/>
<path d="M491.329 279.102H392.053L430.799 358.987L481.325 353.555C489.246 352.705 495.105 345.792 494.654 337.84L491.322 279.102H491.329Z" fill="#1C7FFF"/>
<path d="M415.199 279.102H360.694C367.14 291.424 378.536 319.409 374.241 357.37L430.807 358.987C432.778 351.231 433.876 342.542 433.876 333.372C433.876 309.171 426.203 288.37 415.199 279.11V279.102Z" fill="#0E1849"/>
<path d="M442.141 329.331L442.66 341.887L452.123 341.225L452.8 329.331H442.141Z" fill="#006FFF"/>
<path d="M440.675 302.329L442.142 316.096H452.123L452.8 301.464L440.675 302.329Z" fill="#006FFF"/>
<path d="M430.954 288.854L432.706 295.519L487.843 294.616V288.492L430.954 288.854Z" fill="#006FFF"/>
<path d="M472.04 330.629C472.04 335.428 469.656 339.325 466.715 339.325C463.774 339.325 461.389 335.436 461.389 330.629C461.389 325.822 463.774 321.932 466.715 321.932C469.656 321.932 472.04 325.822 472.04 330.629Z" fill="#006FFF"/>
<path d="M432.13 0L433.033 283.821L225.702 285.431L213.976 10.374L432.13 0Z" fill="#090E32"/>
<path d="M227.96 26.6008L238.04 276.434L418.343 272.04V17.9044L227.96 26.6008Z" fill="#313B60"/>
<path d="M395.745 15.7012L418.258 14.4449C419.281 14.3847 420.124 15.3325 420.064 16.4685L419.695 23.2992C419.642 24.3073 418.883 25.0972 417.973 25.0972H396.475C395.609 25.0972 394.872 24.3825 394.767 23.4271L394.12 17.8527C393.992 16.7468 394.737 15.7613 395.745 15.7012ZM224.302 23.0811L224.806 27.2938C225.032 29.1971 226.634 30.6039 228.507 30.5512L248.019 29.9945C249.877 29.9419 251.389 28.4599 251.532 26.5641L251.803 22.9156C251.961 20.764 250.298 18.9285 248.192 18.9285H227.913C225.739 18.9285 224.054 20.8769 224.317 23.0886L224.302 23.0811Z" fill="#006FFF"/>
<path d="M432.128 0L698.311 118.612L695.731 279.638L433.031 283.821L432.128 0Z" fill="#0E1849"/>
<path d="M451.74 30.5244L450.799 266.801L686.074 267.576L681.892 127.027L451.74 30.5244Z" fill="#090E32"/>
<path d="M526.006 267.041L521.936 267.026V59.9523L526.006 61.66V267.041ZM540.824 67.8739L536.755 66.1662V267.078L540.824 267.093V67.8739ZM555.642 74.0877L551.573 72.38V267.123L555.642 267.138V74.0877ZM511.18 55.4462L507.11 53.7385V266.973L511.18 266.988V55.4462ZM570.461 80.3016L566.391 78.5939V267.176L570.461 267.191V80.3016ZM481.535 43.0185L477.466 41.3108V266.875L481.535 266.89V43.0185ZM496.354 49.2323L492.284 47.5246V266.928L496.354 266.943V49.2323ZM462.64 266.83L466.709 266.845V36.8046L462.64 35.0969V266.83ZM659.379 117.585L655.31 115.877V267.469L659.379 267.484V117.577V117.585ZM644.561 111.371L640.491 109.663V267.424L644.561 267.439V111.363V111.371ZM674.205 123.799L670.136 122.091V267.522L674.205 267.537V123.791V123.799ZM629.742 105.157L625.673 103.449V267.372L629.742 267.387V105.149V105.157ZM600.098 92.7293L596.028 91.0216V267.274L600.098 267.289V92.7293ZM585.279 86.5154L581.21 84.8077V267.229L585.279 267.244V86.5154ZM614.924 98.9431L610.854 97.2354V267.326L614.924 267.341V98.9431Z" fill="#313B60"/>
<path d="M453.523 28.0641L469.71 33.7664C470.395 34.0072 470.846 34.5939 470.846 35.2484V38.8067C470.846 39.9276 469.567 40.7025 468.386 40.2962L452.199 34.767C451.499 34.5262 451.041 33.9395 451.041 33.2774V29.5461C451.041 28.4177 452.327 27.6428 453.515 28.0641H453.523ZM671.61 122.461V124.454C671.61 124.883 671.881 125.274 672.287 125.417L681.802 128.885C682.427 129.111 683.104 128.697 683.171 128.035L683.397 125.989C683.45 125.515 683.164 125.063 682.712 124.905L672.971 121.498C672.302 121.264 671.602 121.761 671.602 122.468L671.61 122.461ZM677.131 266.793L677.259 268.185C677.312 268.727 677.763 269.141 678.304 269.141H687.451C688.03 269.141 688.504 268.667 688.504 268.087V266.696C688.504 266.116 688.03 265.642 687.451 265.642H678.177C677.56 265.642 677.071 266.177 677.131 266.793ZM446.121 264.439V268.17C446.121 269.005 446.798 269.69 447.641 269.69H460.977C461.782 269.69 462.451 269.058 462.497 268.253L462.655 265.229C462.7 264.394 462.053 263.679 461.218 263.634L447.723 262.927C446.858 262.882 446.129 263.574 446.129 264.446L446.121 264.439Z" fill="#006FF6"/>
<path d="M117.6 167.758C119.27 181.397 119.014 196.202 117.48 211.789C117.156 215.076 114.516 217.679 111.214 217.867C105.903 218.176 100.209 217.928 95.2672 217.303C92.2584 216.92 89.9266 214.505 89.5354 211.496C87.5571 196.164 86.3386 181.592 86.6244 167.292C86.6996 163.628 89.7009 160.724 93.3642 160.717C99.4646 160.717 106.114 161.123 111.876 161.92C114.885 162.334 117.232 164.734 117.6 167.75V167.758Z" fill="#090E32"/>
<path d="M115.377 145.921C115.317 144.484 115.821 143.108 116.799 142.054C117.777 141.001 119.116 140.399 120.553 140.362L124.885 140.241C125.314 139.301 126.254 138.646 127.353 138.646H134.626C136.123 138.646 137.342 139.858 137.342 141.362V143.288C137.342 144.785 136.123 146.004 134.626 146.004H127.353C126.405 146.004 125.577 145.515 125.088 144.785L120.681 144.905C120.395 144.913 120.207 145.063 120.124 145.154C120.041 145.244 119.898 145.44 119.913 145.725L110.985 212.002L122.636 217.132V217.057C122.636 214.777 124.487 212.927 126.766 212.927H133.212C135.491 212.927 137.342 214.777 137.342 217.057V223.504C137.342 225.783 135.491 227.634 133.212 227.634H126.766C124.487 227.634 122.636 225.783 122.636 223.504V222.09L106.577 215.018L115.385 145.921H115.377Z" fill="#090E32"/>
<path d="M202.052 288.487H171.55C156.115 288.487 143.598 312.094 143.598 341.215C143.598 370.335 156.115 393.942 171.55 393.942H202.052C217.487 393.942 230.004 370.335 230.004 341.215C230.004 312.094 217.487 288.487 202.052 288.487Z" fill="#090E32"/>
<path d="M347.783 360.329H119.985V380.325H347.783V360.329Z" fill="#313B60"/>
<path d="M356.822 288.473C341.386 288.473 328.87 312.079 328.87 341.2C328.87 370.321 341.386 393.928 356.822 393.928H387.324V288.473H356.822Z" fill="#090E32"/>
<path d="M387.317 393.926C402.754 393.926 415.269 370.319 415.269 341.198C415.269 312.078 402.754 288.471 387.317 288.471C371.879 288.471 359.365 312.078 359.365 341.198C359.365 370.319 371.879 393.926 387.317 393.926Z" fill="#090E32"/>
<path d="M389.831 373.025C399.15 373.025 406.703 358.775 406.703 341.196C406.703 323.618 399.15 309.367 389.831 309.367C380.513 309.367 372.959 323.618 372.959 341.196C372.959 358.775 380.513 373.025 389.831 373.025Z" fill="#0E1849"/>
<path d="M389.836 356.194C394.223 356.194 397.779 349.481 397.779 341.201C397.779 332.921 394.223 326.208 389.836 326.208C385.449 326.208 381.893 332.921 381.893 341.201C381.893 349.481 385.449 356.194 389.836 356.194Z" fill="#313B60"/>
<path d="M232.472 41.3068C196.607 42.4202 163.472 75.6109 145.871 112.631C112.856 182.066 119.024 289.154 123.839 327.896C124.734 335.118 129.405 340.399 134.881 340.399H305.361L397.845 38.1472L232.472 41.3068Z" fill="#006FFF"/>
<path d="M329.909 39.4434L328.743 39.4659C325.163 46.59 319.687 56.0838 312.157 65.4197C299.016 81.7141 276.864 100.709 244.993 100.709C243.714 100.709 242.413 100.679 241.104 100.619C226.067 99.8968 217.033 95.7667 214.257 88.3267C209.293 75.0037 225.172 53.8119 236.237 41.2338L234.763 41.2639C223.57 54.0452 208.187 74.9812 213.295 88.6878C216.221 96.5491 225.563 100.905 241.059 101.65C242.39 101.71 243.706 101.747 245.008 101.747C277.285 101.747 299.701 82.5341 312.984 66.0516C320.725 56.4449 326.314 46.6803 329.909 39.4509V39.4434Z" fill="#0E1849"/>
<path d="M143.923 116.901H373.759L374.391 114.833H144.863C144.547 115.517 144.239 116.209 143.93 116.901H143.923Z" fill="#0E1849"/>
<path d="M372.985 268.559C372.985 268.559 395.168 267.574 409.798 269.041C411.799 221.699 413.792 157.146 408.459 77.0731C407.888 68.5197 403.104 37.6385 396.687 38.1801C370.097 40.437 334.42 80.4283 322.414 112.626C291.213 196.325 305.369 340.402 305.369 340.402L350.223 339.725C346.147 273.193 372.985 268.559 372.985 268.559Z" fill="#1C7FFF"/>
<path d="M320.879 116.911H410.587C410.557 116.219 410.535 115.534 410.505 114.842H321.624C321.376 115.527 321.128 116.211 320.887 116.911H320.879Z" fill="#775915"/>
<path d="M146.903 291.581L157.013 325.057H254.574L267.301 291.581H146.903Z" fill="#090E32"/>
<path d="M123.482 241.338L118.938 244.287C113.214 248.003 109.739 254.458 109.739 261.401V283.067C109.739 289.521 112.748 295.592 117.833 299.406L122.729 303.078C125.091 304.845 127.935 305.801 130.861 305.801H296.812L300.009 303.213C306.666 297.834 310.555 289.627 310.555 280.945V244.467L295.707 236.884L123.474 241.345L123.482 241.338Z" fill="#006FFF"/>
<path d="M174.567 239.56L177.455 246.015C178.027 247.294 179.298 248.121 180.705 248.121H224.679C226.048 248.121 227.296 247.331 227.891 246.097L230.584 240.463C231.704 238.123 230.027 235.415 227.432 235.37L177.877 234.55C175.274 234.505 173.506 237.183 174.567 239.56Z" fill="#FFF4DE"/>
<path d="M239.994 247.163L236.06 252.278C234.939 253.73 233.224 254.603 231.389 254.641L180.096 255.656C178.411 255.686 176.786 255.017 175.62 253.805L169.655 247.607C168.497 246.403 166.895 245.733 165.225 245.756L144.547 246.004C140.891 246.049 138.138 249.292 138.627 252.91C139.883 262.186 142.576 270.8 147.337 278.45C152.084 286.071 160.531 290.6 169.512 290.6H239.242C246.974 290.6 254.361 287.237 259.318 281.301C266.524 272.68 270.925 262.735 272.963 251.654C273.648 247.923 270.722 244.5 266.93 244.545L244.725 244.808C242.875 244.831 241.13 245.703 240.001 247.17L239.994 247.163Z" fill="#313B60"/>
<path d="M274.724 246.536C273.13 243.572 270.128 241.842 266.894 241.88L244.734 242.143C242.033 242.173 239.506 243.444 237.859 245.581L233.955 250.659C233.323 251.479 232.375 251.96 231.337 251.983L180.044 252.998C179.089 252.998 178.194 252.637 177.539 251.96L171.574 245.761C169.912 244.039 167.603 243.098 165.196 243.091L144.713 243.331C143.449 243.346 142.186 243.557 141.035 244.091C137.379 245.791 135.491 249.553 135.987 253.262C137.387 263.575 140.358 272.272 145.082 279.855C150.234 288.122 159.592 293.253 169.513 293.253H239.243C247.855 293.253 255.919 289.514 261.365 282.999C268.594 274.348 273.37 264.027 275.544 252.321C275.913 250.358 275.672 248.289 274.732 246.536H274.724ZM257.266 279.584C252.835 284.887 246.261 287.927 239.235 287.927H169.506C161.404 287.927 153.777 283.752 149.595 277.034C149.565 276.981 149.527 276.928 149.497 276.876C148 274.453 149.79 271.324 152.641 271.324H256.22C259.236 271.324 260.966 274.777 259.154 277.192C258.544 278.004 257.912 278.802 257.266 279.584ZM270.301 251.321C269.639 254.871 268.722 258.279 267.548 261.537C266.239 265.185 262.704 267.562 258.83 267.562H151.46C147.413 267.562 143.871 264.832 142.87 260.912C142.208 258.317 141.682 255.594 141.283 252.727C141.163 251.877 141.283 250.982 141.742 250.26C142.381 249.252 143.419 248.68 144.57 248.665L165.248 248.417C166.196 248.417 167.099 248.8 167.753 249.485L173.688 255.654C175.365 257.399 177.705 258.392 180.134 258.324L231.427 257.309C234.083 257.256 236.542 256.015 238.16 253.908L242.094 248.793C242.725 247.965 243.696 247.484 244.734 247.469L266.939 247.206C268.225 247.228 269.384 247.86 270.008 249.056C270.369 249.748 270.429 250.561 270.286 251.328L270.301 251.321Z" fill="#090E32"/>
<path d="M336.768 343.759C336.768 343.759 324.801 273.488 368.707 266.349C385.414 263.633 409.785 269.042 409.785 269.042L399.743 286.713C399.743 286.713 375.507 275.625 362.847 297.637C355.686 310.079 356.619 344.639 356.619 344.639L336.768 343.759Z" fill="#2F89FF"/>
<path d="M358.409 253.952L360.064 263.506C360.418 265.56 362.291 267.004 364.374 266.824L367.714 266.538C369.542 266.38 371.031 265.003 371.332 263.19L372.837 254.103C373.235 251.695 371.415 249.491 368.978 249.423L362.471 249.243C359.929 249.175 357.965 251.447 358.402 253.952H358.409Z" fill="#0E1849"/>
<path d="M381.177 209.161L382.125 238.154C382.23 241.283 383.923 243.736 385.976 243.736H396.74C398.786 243.736 400.471 241.306 400.591 238.199L401.675 209.559C401.802 206.227 400.08 203.406 397.891 203.345L385.096 202.992C382.862 202.932 381.064 205.76 381.169 209.161H381.177Z" stroke="#006FFF" stroke-width="1.37" stroke-miterlimit="10"/>
<path d="M324.812 283.23V286.804C324.812 287.925 325.723 288.835 326.843 288.835H341.451C342.565 288.835 343.467 287.94 343.482 286.834L343.527 283.261C343.542 282.132 342.632 281.207 341.496 281.207H326.843C325.723 281.207 324.812 282.117 324.812 283.238V283.23Z" fill="#006FFF"/>
<path d="M327.338 284.086V285.764C327.338 286.29 327.767 286.711 328.286 286.711H335.131C335.65 286.711 336.071 286.29 336.079 285.771L336.102 284.094C336.102 283.567 335.68 283.131 335.154 283.131H328.294C327.767 283.131 327.346 283.559 327.346 284.078L327.338 284.086Z" fill="#006FFF"/>
<path d="M352.449 317.557L302.179 317.76C302.179 317.91 302.157 321.243 302.157 321.394V374.174H348.583C353.254 374.174 357.045 369.6 357.045 363.95L361.385 327.765C361.385 321.898 357.301 317.233 352.449 317.557Z" fill="#2F89FF"/>
<path d="M326.525 141.051C319.139 161.536 314.731 210.72 316.167 239.126C316.325 242.233 318.198 244.648 320.47 244.648H330.482C331.693 244.648 332.844 243.956 333.656 242.729L369.995 179.395C370.725 178.304 371.131 176.882 371.131 175.4V142.759C371.131 139.456 369.153 136.793 366.746 136.853L330.324 137.741C328.707 137.779 327.24 139.057 326.525 141.044V141.051Z" fill="#C1E3F8"/>
<path d="M330.488 246.921H320.476C316.948 246.921 314.127 243.618 313.901 239.24C312.465 210.909 316.737 161.514 324.387 140.277C325.433 137.373 327.682 135.538 330.262 135.47L366.684 134.582C368.218 134.545 369.715 135.162 370.896 136.32C372.483 137.87 373.393 140.217 373.393 142.76V175.401C373.393 177.297 372.874 179.133 371.927 180.584L335.625 243.859C335.603 243.904 335.573 243.949 335.542 243.994C334.301 245.852 332.451 246.921 330.48 246.921H330.488ZM366.827 139.126H366.804L330.382 140.014C329.735 140.029 329.051 140.751 328.667 141.819C321.311 162.229 317.061 211.676 318.445 239.014C318.543 241 319.596 242.384 320.483 242.384H330.495C330.909 242.384 331.375 242.069 331.744 241.534L368.038 178.275C368.06 178.23 368.09 178.185 368.12 178.14C368.594 177.425 368.873 176.432 368.873 175.409V142.767C368.873 141.481 368.436 140.255 367.744 139.578C367.444 139.284 367.135 139.134 366.834 139.134L366.827 139.126Z" fill="#0E1849"/>
<path d="M315.97 220.949C315.842 227.531 315.902 233.708 316.173 239.124C316.331 242.231 318.204 244.646 320.475 244.646H330.487C331.698 244.646 332.849 243.954 333.662 242.727L346.163 220.941H315.962L315.97 220.949Z" fill="#0E1849"/>
<path d="M335.583 167.758C333.913 181.397 334.169 196.201 335.703 211.789C336.027 215.076 338.667 217.679 341.969 217.867C347.28 218.176 352.974 217.927 357.916 217.303C360.925 216.919 363.257 214.504 363.648 211.495C365.626 196.164 366.845 181.592 366.559 167.291C366.484 163.628 363.482 160.724 359.819 160.716C353.719 160.716 347.069 161.123 341.307 161.92C338.299 162.334 335.952 164.733 335.583 167.75V167.758Z" fill="#090E32"/>
<path d="M348.713 145.921C348.773 144.484 348.269 143.107 347.292 142.054C346.314 141.001 344.975 140.399 343.538 140.361L339.213 140.241C338.784 139.301 337.844 138.646 336.746 138.646H329.472C327.975 138.646 326.756 139.857 326.756 141.362V143.288C326.756 144.785 327.975 146.004 329.472 146.004H336.746C337.693 146.004 338.521 145.515 339.01 144.785L343.418 144.905C343.704 144.913 343.892 145.063 343.974 145.153C344.057 145.244 344.2 145.439 344.185 145.725L341.327 212.001L329.675 217.132V217.057C329.675 214.777 327.824 212.927 325.545 212.927H319.099C316.82 212.927 314.969 214.777 314.969 217.057V223.504C314.969 225.783 316.82 227.634 319.099 227.634H325.545C327.824 227.634 329.675 225.783 329.675 223.504V222.089L345.734 215.018L348.713 145.921Z" fill="#090E32"/>
<path d="M256.8 322.392L254.731 321.451L279.231 267.573L288.174 195.113L290.431 195.391L281.45 268.197L256.807 322.399L256.8 322.392ZM150.656 321.451L126.209 267.686L132.799 195.978L130.542 195.768L123.893 268.077L148.587 322.392L150.656 321.451Z" fill="#0E1849"/>
<path d="M279.085 266.068L267.17 289.366C265.741 292.165 267.772 295.49 270.916 295.49C278.182 295.49 284.945 291.751 288.803 285.597L297.86 271.154C299.876 267.949 297.567 263.774 293.776 263.781H282.665C281.146 263.849 279.777 264.722 279.085 266.076V266.068Z" fill="#0E1849"/>
<path d="M133.006 266.068L144.92 289.366C146.35 292.165 144.319 295.49 141.174 295.49C133.908 295.49 127.146 291.751 123.287 285.597L114.23 271.154C112.215 267.949 114.524 263.774 118.315 263.781H129.425C130.944 263.849 132.313 264.722 133.006 266.076V266.068Z" fill="#0E1849"/>
<path d="M302.343 318.897H116.894C112.362 318.897 108.688 322.572 108.688 327.104V365.967C108.688 370.5 112.362 374.175 116.894 374.175H302.343C306.875 374.175 310.549 370.5 310.549 365.967V327.104C310.549 322.572 306.875 318.897 302.343 318.897Z" fill="#006FFF"/>
<path d="M155.913 377.837H250.45L245.568 369.998C242.936 365.77 240.679 365.168 235.842 365.251L170.649 364.393C165.278 364.484 160.419 367.764 158.155 372.834L155.913 377.844V377.837Z" fill="#090E32"/>
<path d="M351.848 316.621H122.613L122.778 318.893H139.462L152.588 347.044C154.86 351.911 159.794 355.07 165.165 355.093L242.552 355.401H242.612C247.494 355.401 252.075 352.799 254.58 348.608L272.317 318.893H351.848V316.621ZM252.632 347.442C250.533 350.955 246.704 353.13 242.612 353.13H242.567L165.18 352.821C160.682 352.806 156.552 350.158 154.649 346.081L141.975 318.886H269.669L252.632 347.435V347.442Z" fill="#0E1849"/>
<path d="M155.913 329.525H250.45L245.568 337.364C242.936 341.592 238.4 344.112 233.563 344.029L170.649 342.976C165.278 342.886 160.419 339.606 158.155 334.536L155.913 329.525Z" fill="#090E32"/>
<path d="M171.635 319.103L172.673 329.816C172.906 332.201 174.885 334.044 177.277 334.096L220.626 335.112C223.079 335.172 225.17 333.344 225.448 330.907L226.779 319.179C227.095 316.365 224.899 313.905 222.071 313.905H176.359C173.561 313.905 171.372 316.312 171.643 319.103H171.635Z" fill="#DAF0FF"/>
<path d="M220.736 336.295C220.691 336.295 220.638 336.295 220.593 336.295L177.243 335.279C174.249 335.204 171.775 332.902 171.481 329.923L170.443 319.211C170.285 317.548 170.834 315.893 171.955 314.659C173.076 313.426 174.678 312.719 176.34 312.719H222.052C223.737 312.719 225.347 313.441 226.475 314.697C227.596 315.953 228.13 317.638 227.942 319.308L226.61 331.037C226.264 334.061 223.752 336.295 220.728 336.295H220.736ZM172.813 318.985L173.851 329.698C174.024 331.488 175.506 332.865 177.303 332.902L220.645 333.918C222.488 333.986 224.045 332.609 224.256 330.766L225.587 319.038C225.7 318.037 225.384 317.029 224.707 316.277C224.038 315.525 223.067 315.088 222.06 315.088H176.348C175.332 315.088 174.4 315.502 173.723 316.254C173.038 317.007 172.722 317.977 172.82 318.985H172.813Z" fill="#090E32"/>
<path d="M123.108 210.34L130.915 216.103C132.232 217.081 133.834 217.6 135.474 217.6H279.634C281.274 217.6 282.861 217.073 284.185 216.11L294.565 208.474C296.438 207.098 297.582 204.954 297.679 202.637C298.507 182.528 302.697 159.606 305.254 147.171C306.232 142.409 302.599 137.956 297.74 137.956H139.28C136.136 137.956 133.285 139.859 132.149 142.793C124.838 161.532 121.317 182.837 120.016 203.66C119.851 206.27 121.016 208.79 123.115 210.348L123.108 210.34Z" fill="#C1E3F8"/>
<path d="M121.122 190.749C120.648 195.052 120.279 199.363 120.016 203.658C119.851 206.269 121.016 208.789 123.115 210.346L130.923 216.108C132.239 217.086 133.842 217.606 135.481 217.606H279.642C281.281 217.606 282.869 217.079 284.192 216.116L294.573 208.48C296.446 207.104 297.589 204.96 297.687 202.643C297.845 198.753 298.131 194.759 298.507 190.757H121.122V190.749Z" fill="#90C5EC"/>
<path d="M220.422 137.948H199.608L167.835 217.6H188.641L220.422 137.948Z" fill="#DAF0FF"/>
<path d="M257.013 137.948H226.196L194.422 217.6H225.24L257.013 137.948Z" fill="#DAF0FF"/>
<path d="M153.198 217.6H163.601L195.374 137.948H184.971L153.198 217.6Z" fill="#DAF0FF"/>
<path d="M305.454 139.344C303.558 137.019 300.745 135.68 297.744 135.68H139.284C135.215 135.68 131.499 138.2 130.032 141.961C123.368 159.038 119.238 179.749 117.749 203.513C117.538 206.914 119.035 210.148 121.765 212.164L129.573 217.927C131.273 219.183 133.372 219.868 135.478 219.868H279.638C281.775 219.868 283.813 219.198 285.528 217.934L295.909 210.299C298.353 208.501 299.82 205.74 299.948 202.723C300.775 182.637 305.018 159.58 307.477 147.619C308.079 144.685 307.342 141.661 305.446 139.336L305.454 139.344ZM303.039 146.708C300.55 158.798 296.255 182.133 295.42 202.543C295.352 204.175 294.555 205.672 293.231 206.643L292.704 207.034L124.834 208.779L124.473 208.508C122.991 207.41 122.172 205.65 122.292 203.792C123.751 180.493 127.783 160.242 134.275 143.609C135.064 141.585 137.08 140.224 139.292 140.224H297.751C299.384 140.224 300.911 140.946 301.941 142.21C302.972 143.474 303.37 145.114 303.047 146.708H303.039Z" fill="#090E32"/>
<path d="M132.088 134.613C130.613 134.621 129.342 135.659 129.049 137.103C128.124 141.632 126.98 150.953 132.659 152.766C140.219 155.181 291.427 152.706 291.427 152.706C291.427 152.706 306.449 153.804 310.473 137.66C310.97 135.674 309.473 133.741 307.419 133.748L132.088 134.613Z" fill="#090E32"/>
<path d="M294.718 143.782H283.916C282.494 143.782 281.351 142.631 281.351 141.217C281.351 139.795 282.502 138.651 283.916 138.651H294.718C296.139 138.651 297.283 139.802 297.283 141.217C297.283 142.638 296.132 143.782 294.718 143.782Z" fill="#DAF0FF"/>
<path d="M142.761 143.782H131.96C130.538 143.782 129.395 142.631 129.395 141.217C129.395 139.795 130.545 138.651 131.96 138.651H142.761C144.183 138.651 145.326 139.802 145.326 141.217C145.326 142.638 144.175 143.782 142.761 143.782Z" fill="#DAF0FF"/>
<path d="M199.884 210.956L190.76 198.935C190.64 198.039 189.865 197.28 188.85 197.332L151.111 199.273C150.472 199.303 149.9 199.664 149.592 200.228L129.576 200.868C129.109 200.883 128.681 201.048 128.455 201.297C127.959 201.853 128.613 202.53 129.644 202.53H150.043C150.359 202.794 150.75 202.967 151.209 202.967H187.428L194.228 212.739C194.514 213.145 194.973 213.386 195.469 213.386H198.681C199.93 213.386 200.644 211.957 199.884 210.956Z" fill="#090E32"/>
<path d="M279.35 208.88L270.226 196.858C270.106 195.963 269.331 195.203 268.315 195.256L230.577 197.197C229.938 197.227 229.366 197.588 229.058 198.152L209.042 198.791C208.575 198.807 208.147 198.972 207.921 199.22C207.424 199.777 208.079 200.454 209.109 200.454H229.509C229.825 200.717 230.216 200.89 230.675 200.89H266.894L273.694 210.663C273.98 211.069 274.438 211.309 274.935 211.309H278.147C279.395 211.309 280.11 209.88 279.35 208.88Z" fill="#090E32"/>
<path d="M117.468 344.87H134.589C136.786 344.87 138.568 343.089 138.568 340.891V329.434C138.568 327.236 136.786 325.454 134.589 325.454H117.468C115.271 325.454 113.489 327.236 113.489 329.434V340.891C113.489 343.089 115.271 344.87 117.468 344.87Z" fill="#90C5EC"/>
<path d="M134.588 325.453H117.513C117.07 327.266 116.964 329.184 117.25 330.922C117.544 332.668 118.22 334.368 119.281 335.88C121.951 339.679 126.946 342.161 132.069 342.229C134.333 342.259 136.619 341.815 138.575 340.83V329.433C138.575 327.236 136.792 325.453 134.596 325.453H134.588Z" fill="#DAF0FF"/>
<path d="M137.865 352.376V361.66C137.865 363.533 136.684 365.007 135.322 364.842C127.311 363.864 120.707 363.932 114.892 358.199C113.042 356.379 113.531 349.194 115.81 349.194H135.533C136.819 349.194 137.865 350.624 137.865 352.384V352.376Z" fill="#90C5EC"/>
<path d="M135.535 349.194H119.521C119.559 349.932 119.664 350.684 119.829 351.436C120.506 354.536 121.936 357.477 123.982 359.907C125.403 361.599 127.133 363.014 129.036 364.135C131.037 364.39 133.121 364.579 135.325 364.849C136.686 365.015 137.867 363.54 137.867 361.667V352.384C137.867 350.624 136.822 349.194 135.535 349.194Z" fill="#DAF0FF"/>
<path d="M295.741 325.453H278.621C276.423 325.453 274.642 327.235 274.642 329.433V340.89C274.642 343.088 276.423 344.87 278.621 344.87H295.741C297.939 344.87 299.72 343.088 299.72 340.89V329.433C299.72 327.235 297.939 325.453 295.741 325.453Z" fill="#90C5EC"/>
<path d="M278.62 325.453H295.695C296.139 327.266 296.244 329.184 295.958 330.922C295.665 332.668 294.988 334.368 293.927 335.88C291.257 339.679 286.262 342.161 281.14 342.229C278.876 342.259 276.589 341.815 274.633 340.83V329.433C274.633 327.236 276.416 325.453 278.612 325.453H278.62Z" fill="#DAF0FF"/>
<path d="M275.355 352.376V361.66C275.355 363.533 276.536 365.007 277.898 364.842C285.909 363.864 292.513 363.932 298.328 358.199C300.178 356.379 299.689 349.194 297.41 349.194H277.687C276.401 349.194 275.355 350.624 275.355 352.384V352.376Z" fill="#90C5EC"/>
<path d="M277.687 349.194H293.702C293.664 349.932 293.559 350.684 293.393 351.436C292.716 354.536 291.287 357.477 289.241 359.907C287.82 361.599 286.089 363.014 284.186 364.135C282.186 364.39 280.102 364.579 277.898 364.849C276.536 365.015 275.355 363.54 275.355 361.667V352.384C275.355 350.624 276.401 349.194 277.687 349.194Z" fill="#DAF0FF"/>
</svg>
